<svg version="1" xmlns="http://www.w3.org/2000/svg" width="71.531" height="64.77" viewBox="0 0 71.531 64.77"><path fill-rule="evenodd" clip-rule="evenodd" fill="#7D7D7D" d="M48.81 6.285c-2.372 1.575-3.606 4.282-6.286 5.547-1.57-2.37-4.277-3.61-5.547-6.285C38.98 3.852 40.83 2.004 42.524 0c2.56 1.633 4.652 3.727 6.285 6.285z"/><path fill-rule="evenodd" clip-rule="evenodd" fill="#7D7D7D" d="M28.102 7.024c5.394 7.105 22.164 12.175 27.363 1.48 2.492 1.328 4.043 3.602 5.914 5.547-8.04 12.11-30.01 4.04-33.28-7.024zm.742 26.62C33.23 38.23 39.246 43.934 39.2 52.87c-.08 15.35-19.418 14.017-27.365 6.285C5.418 52.922 1.39 43.708 0 35.125c1.875 1.37 2.235 4.09 3.328 6.29 3.153 6.315 8.954 16.026 17.75 16.64 5.528.383 10.633-2.215 12.204-6.656 2.437-6.9-2.64-11.83-5.176-15.905-1.324 1.758-2.692 3.473-4.067 5.176-2.41-2.147-4.694-4.425-7.026-6.655 1.684-2.496 4.016-3.168 5.918-5.176 2.34-2.476 5.297-9.53-.738-10.723-4.032-.796-7.594 1.903-10.352 4.067-1.22.953-4.207 4.78-4.81 4.808C4.978 27.08 1.92 21.09.75 20.337c5.41-3.804 9.61-10.512 18.49-8.875 8.858 1.636 14.893 13.027 9.604 22.183z"/><path fill-rule="evenodd" clip-rule="evenodd" fill="#7D7D7D" d="M51.77 36.606c6.336 7.324 20.13-1.184 14.793-9.614-10.113-2.308-22.777 20.254-32.172 4.81 10.304 3.362 13.606-7.946 24.776-10.356 3.168-.684 9.226 1.695 10.723 4.437 3.06 5.613 2.187 19.992-5.548 20.336-5.065.22-11.15-5.464-12.57-9.616z"/></svg>