<svg xmlns="http://www.w3.org/2000/svg" width="74.997" height="70.376" viewBox="0 0 74.997 70.376"><path fill="#58BCB4" d="M11.223 20.54c.816.833 2.382.907 3.277 0 .895-.897 8.215-8.27 8.215-8.27l8.215 8.27c.906.92 2.382.92 3.285 0l8.203-8.27 8.215 8.27c.824.833 2.39.907 3.285 0 .898-.897 8.215-8.27 8.215-8.27l4.926 4.966c1.81 1.82 4.75 1.82 6.57 0 1.81-1.82 1.81-4.79 0-6.62L63.773.688c-.904-.92-2.37-.92-3.275 0l-8.215 8.277L44.067.69c-.906-.92-2.383-.92-3.285 0l-8.215 8.277L24.364.69c-.918-.92-2.383-.92-3.29 0L12.86 8.966 7.934 3.994c-1.813-1.82-4.762-1.82-6.575 0-1.815 1.832-1.815 4.797 0 6.62 3.05 3.068 9.212 9.285 9.86 9.927zm52.55 4.724c-.906-.918-2.37-.918-3.277 0l-8.21 8.27-8.216-8.27c-.906-.918-2.382-.918-3.285 0l-8.21 8.27-8.204-8.27c-.915-.918-2.38-.918-3.286 0l-8.21 8.27-4.927-4.966c-1.812-1.82-4.76-1.82-6.574 0-1.81 1.832-1.81 4.79 0 6.622 3.052 3.074 9.216 9.285 9.864 9.934.817.824 2.383.906 3.278 0 .894-.906 8.21-8.277 8.21-8.277l8.216 8.277c.907.918 2.383.918 3.286 0l8.203-8.277s7.397 7.445 8.214 8.277c.825.824 2.392.906 3.286 0 .894-.906 8.214-8.277 8.214-8.277l4.927 4.96c1.814 1.833 4.75 1.833 6.576 0 1.81-1.82 1.81-4.788 0-6.616-3.42-3.433-9.867-9.924-9.867-9.924zm9.86 34.495c1.81 1.82 1.81 4.786 0 6.614-1.82 1.82-4.762 1.82-6.574 0l-4.93-4.96s-7.315 7.362-8.214 8.276c-.898.9-2.465.83-3.285 0-.815-.83-8.214-8.276-8.214-8.276l-8.203 8.277c-.906.91-2.383.91-3.285 0l-8.216-8.275s-7.317 7.363-8.21 8.277c-.9.9-2.466.83-3.278 0-.65-.66-6.813-6.866-9.864-9.933-1.812-1.833-1.812-4.79 0-6.62 1.813-1.82 4.762-1.82 6.575 0l4.925 4.963 8.21-8.27c.907-.917 2.372-.917 3.29 0l8.203 8.27 8.21-8.27c.907-.917 2.384-.917 3.285 0l8.217 8.27 8.21-8.27c.91-.917 2.376-.917 3.278 0 .008 0 6.454 6.495 9.868 9.928z"/></svg>