<svg xmlns="http://www.w3.org/2000/svg" width="65.602" height="72.93" viewBox="0 0 65.602 72.93"><g fill="#58BCB4"><path d="M55.75.336L24.957 63.05M56.44.676L25.65 63.383l-1.378-.677L55.06 0l1.38.676zM23.113 58.95L52.64.632 19.224 34.356M0 68.03l65.598-.163.004 1.53-65.598.165L0 68.03zm.48 3.363h64.586v1.53H.48v-1.53z"/><path d="M15.567 64.266l20.136 5.218 4.586-.875.58-2.267-24.22-6.278m34.753-19.28c0 1.483-1.2 2.69-2.688 2.69s-2.69-1.207-2.69-2.69c0-1.493 1.202-2.692 2.69-2.692s2.688 1.2 2.688 2.69v.002z"/><path d="M37.082 52.035l-4.14 4.618-.196.218-.07.288-1.81 7.562 2.244.53 1.738-7.273-.19.22.26-.5-.07.284 3.82-4.26-.733-.528c-.412-.3-.7-.71-.853-1.154z"/><path d="M34.656 58.19l.192-.213.07-.286m7.742-15.17l-3.832.88.223.055-.443-.007.227-.05-3.883-.988-.47 1.853 4.103 1.047.225.055.223-.05 1.92-.44c.893-1.236 1.596-2.225 1.596-2.22.033-.047.08-.087.115-.133v-.002z"/><path d="M39.055 43.45l-.227-.055-.226.046m.008 8.81l2.257 1.62c.273.196.598.274.926.22.328-.06.613-.234.81-.504 0-.004 5.155-7.2 5.155-7.2.195-.27.27-.597.22-.93-.052-.323-.23-.612-.505-.804l-2.258-1.617c-.273-.193-.603-.275-.934-.217-.322.05-.603.234-.8.504l-5.16 7.19c-.393.562-.27 1.34.29 1.742z"/><path d="M44.285 42.816c.327-.06.66.02.934.22l2.252 1.617c.273.194.45.48.504.804.05.332-.023.66-.22.93 0 0-5.155 7.195-5.155 7.2-.19.27-.48.444-.81.503-.326.05-.654-.027-.924-.22l-2.257-1.616c-.558-.402-.687-1.18-.288-1.738l5.16-7.19c.188-.275.473-.455.8-.51h.002z"/><path d="M45.676 44.332l-7.53 1.926.502.008-5.324-1.56-.54 1.845 5.328 1.56.255.08.254-.068 7.537-1.933m-5.55 5.802L36.2 57.588l-.157.19-.06.24-1.757 6.882 2.23.574 1.758-6.89-.205.43 4.405-5.603"/></g></svg>