<svg version="1" xmlns="http://www.w3.org/2000/svg" width="59.507" height="48.442" viewBox="0 0 59.507 48.442"><path fill="#7D7D7D" d="M18.92 24.625v.008c.008.13 0 .352-.016.56-.01.3-.027.68-.027 1.163v6.937c-.69-.8-1.605-1.574-3.2-1.96-.933-.23-1.43-.692-1.53-.868.027-.406.3-1.094.562-1.754.232-.6.482-1.22.65-1.85 1.683-2.02 3.276-2.32 3.56-2.233zm-9.974 5.79c-.18.234-.832.71-1.55.922 0-.11.027-.22.054-.336.078-.266.508-.96 1.117-1.85.188.49.35.95.38 1.268zm50.45 11.187c-.37-1.418-4.402-15.55-4.94-17.434-.626-2.145-2.68-3.836-5.79-4.75-1.12-.337-2.145-1.114-2.32-1.442.027-.598.41-1.55.777-2.48.516-1.31 1.11-2.79 1.11-4.133 0-2.766-1.33-5.727-5.063-5.727-3.738 0-5.06 2.96-5.06 5.727 0 .96.294 1.984.657 2.968-.902-.14-1.832-.16-2.81-.176-1.304-.028-2.65-.055-3.964-.38-1.578-.386-2.23-1.206-2.277-1.366 0-.586.4-1.578.777-2.547.516-1.305 1.11-2.785 1.11-4.133C31.603 2.96 30.273 0 26.535 0c-3.73 0-5.058 2.957-5.058 5.727 0 1.344.586 2.828 1.11 4.133.362.933.745 1.887.772 2.484-.177.328-1.19 1.11-2.314 1.438-1.766.523-4.965 1.754-6.535 4.133-.45.687-1.304 1.855-2.27 3.164-.22-.04-.456-.05-.69-.05-2.465 0-4 1.726-4 4.506 0 .532.113 1.08.27 1.6C6.64 28.832 5.9 30 5.76 30.556c-.134.518-.15 1-.048 1.447-1.477.746-2.445 1.79-2.81 3.043-.194.68-.717 2.368-1.276 4.144C.916 41.47.243 43.61.09 44.204c-.323 1.25.227 2.305 1.446 2.762.422.16.914.12 1.38-.113.624-.3 1.128-.895 1.323-1.53.01-.06.025-.103.052-.15.203-.28.363-.585.766-2.128.202-.758.382-1.402.542-1.934v6.46c0 .483.398.874.875.874.484 0 .875-.39.875-.875v-7.614c0-.328.01-.594.02-.8.03-.7.058-1.36-.786-1.83-.273-.155-.605-.167-.906-.035-.386.17-1.042.454-2.304 5.31-.355 1.36-.465 1.51-.496 1.56-.13.17-.21.327-.31.655-.073.23-.335.453-.47.496-.376-.16-.396-.335-.31-.67.14-.55.867-2.876 1.512-4.927.555-1.793 1.086-3.492 1.29-4.184.237-.813.968-1.53 2.1-2.07.16-.075.33-.15.512-.22.168-.066.348-.133.55-.188l.13-.037c.305-.094.71-.258 1.12-.484.235-.13.466-.266.68-.44.57-.42 1.02-.963 1.02-1.57 0-.092-.008-.186-.01-.28-.08-.66-.37-1.39-.67-2.163-.085-.215-.167-.43-.253-.652 0-.012-.007-.027-.01-.04-.114-.3-.243-.65-.33-.995-.073-.3-.124-.59-.124-.853 0-.156.008-.316.02-.477v-.01c.085-.964.476-1.96 1.624-2.21.18-.047.384-.066.61-.066.176 0 .337.015.49.047.327.05.612.16.847.32.01.01.027.02.04.03.792.61.878 1.856.878 2.368 0 .152-.02.336-.063.53 0 .04-.01.087-.018.126-.004.016-.012.035-.012.055-.137.57-.383 1.202-.633 1.81l-.22.57c-.26.67-.466 1.316-.466 1.887 0 .082.008.16.024.242.167.96 1.307 1.886 2.84 2.257 1.514.38 2.13 1.176 2.846 2.105.188.25.383.494.58.72.06.076.12.15.186.216v2.37c-.516-.347-.96-.683-1.195-.874-.12-.085-.188-.144-.188-.144-.28-.223-.673-.254-.99-.082-.83.477-.797 1.13-.766 1.828 0 .043 0 .082.01.13.01.18.016.4.016.663v7.61c0 .48.39.873.87.873.476 0 .875-.392.875-.875v-7.61c0-.12-.007-.24-.007-.35.41.288.89.608 1.38.894v6.835c0 .484.39.875.87.875.477 0 .875-.392.875-.876v-20.97c0-.45.012-.81.027-1.09.04-.914.074-1.64-.895-2.164-.946-.516-2.64-.14-4.32 1.223-.168-.867-.56-1.852-1.454-2.532-.02-.015-.04-.035-.066-.046.887-1.204 1.62-2.21 2.05-2.864.927-1.402 2.966-2.648 5.575-3.426 1.436-.42 3.565-1.687 3.565-3.05 0-.922-.437-2.024-.902-3.184-.465-1.16-.98-2.484-.98-3.492 0-1.48.43-3.98 3.312-3.98 2.89 0 3.316 2.5 3.316 3.983 0 1.01-.523 2.333-.987 3.493-.458 1.164-.895 2.266-.895 3.184 0 1.24 1.545 2.557 3.6 3.06 1.5.37 2.945.4 4.34.43 1.31.027 2.555.055 3.602.383.028.074.056.148.08.222.214.57.37 1.098.39 1.473-.176.32-1.156 1.082-2.25 1.422-.02.007-.043.015-.062.018-1.625.477-3.824 1.438-5.066 3.247-.017.015-.028.027-.03.04-.02.034-.045.07-.057.1-.02.047-.047.102-.062.15-.01.053-.017.112-.026.167 0 .027-.01.062-.01.085-.012.208-.01.442.008.735.016.28.027.63.027 1.082v22.31c0 .483.39.874.874.874.483 0 .87-.39.87-.875v-12.7c.516-1.96.95-3.328 1.29-4.23-.005.078-.005.164-.005.25V47.56c0 .483.39.87.874.87.48 0 .87-.392.87-.87V30.652c0-.45.017-.805.028-1.09.04-.875.074-1.633-.89-2.16-.294-.164-.642-.18-.958-.047-.234.102-.617.273-1.215 1.59v-4.078c0-.41-.01-.738-.028-1.008-.008-.15-.008-.28-.016-.385.45-.586 1.11-1.117 1.94-1.56.606-.327 1.298-.612 2.063-.835 1.437-.43 3.56-1.694 3.56-3.057 0-.82-.35-1.785-.75-2.817-.05-.12-.104-.242-.15-.367-.466-1.166-.99-2.48-.99-3.49 0-1.488.43-3.984 3.32-3.984 2.89 0 3.32 2.492 3.32 3.984 0 1.01-.522 2.325-.987 3.49-.463 1.16-.9 2.265-.9 3.183 0 1.363 2.13 2.625 3.566 3.058 1.464.43 4.003 1.467 4.612 3.565.53 1.875 4.554 15.984 4.917 17.387.147.56.08.98-.673 1.27-.18.036-.793-.362-.95-.88-.288-.95-1.436-5.057-2.24-8.146-1.66-6.375-2.513-6.746-2.923-6.922-.316-.137-.664-.12-.953.04-.965.53-.934 1.257-.89 2.167.006.285.026.64.026 1.08v16.91c0 .486.39.877.87.877.478 0 .876-.39.876-.875v-16.9c0-.087-.007-.17-.007-.247.348.918.793 2.305 1.31 4.32.82 3.11 1.968 7.242 2.265 8.21.226.767.866 1.505 1.612 1.876.55.27 1.12.323 1.61.14 1.512-.575 2.165-1.817 1.774-3.35z"/></svg>