<svg version="1" xmlns="http://www.w3.org/2000/svg" width="53.58" height="40.727" viewBox="0 0 53.58 40.727"><path fill="#7D7D7D" d="M5.4 17.593c-.23.934-.294 2.016-.23 3.16.19 2.696 1.202 5.836 2.952 8.977l-5.02 2.844C.442 27.527 1.497 21.476 5.4 17.594zm2.258-1.738l6.223 10.59-4.723 2.695c-1.668-2.992-2.617-6.008-2.785-8.445-.163-2.25.32-3.95 1.29-4.84zm2.215-.742c1.098.062 2.383.55 3.734 1.465 2.067 1.38 4.24 3.672 6.032 6.578l-4.73 2.694-6.205-10.607c.363-.11.743-.152 1.165-.13zm4.28-1.34c4.492-.172 8.946 1.973 11.516 5.942l-5 2.863c-1.88-3.078-4.16-5.516-6.42-7.024-.97-.636-1.94-1.105-2.866-1.38.91-.23 1.84-.377 2.765-.4zm.15-1.207c-1.88 0-3.754.47-5.547 1.293-.57.23-1.31.65-1.942 1.06C.57 18.994-1.456 27.23 2.34 33.7c.15.275.528.384.802.235l11.328-6.453 7.047 12.03H.527c-.315.044-.55.36-.526.68.048.317.36.552.657.532H52.97c.316 0 .61-.277.61-.594 0-.32-.298-.617-.61-.617H22.89l-7.384-12.63 11.31-6.448c.273-.172.378-.55.23-.808-2.7-4.648-7.68-7.195-12.743-7.066zM41.45 4.69c3.84 0 6.942 3.122 6.942 6.985 0 3.864-3.102 7.004-6.94 7.004-3.86 0-6.962-3.14-6.962-7.01 0-3.862 3.1-6.983 6.96-6.983zM41.307 0c-.273.062-.484.34-.484.613V3.52c-1.773.124-3.395.87-4.684 1.972l-2.07-2.078c-.15-.13-.36-.192-.548-.172-.423.086-.61.742-.296 1.04L35.27 6.34c-1.116 1.296-1.835 2.93-1.96 4.734h-2.93c-.316 0-.59.316-.57.617 0 .32.316.6.61.58h2.89c.125 1.824.844 3.46 1.96 4.753l-2.046 2.06c-.254.21-.273.655-.043.89.24.234.68.21.89-.044l2.05-2.06c1.284 1.1 2.91 1.825 4.702 1.954v2.93c0 .32.297.595.613.595.317 0 .59-.275.59-.595V19.83c1.794-.126 3.42-.85 4.728-1.954l2.048 2.06c.21.254.653.278.888.043.23-.236.21-.68-.043-.89l-2.065-2.08c1.117-1.293 1.836-2.93 1.96-4.735h2.91c.318 0 .59-.278.59-.595 0-.32-.272-.592-.59-.592h-2.92c-.125-1.805-.844-3.438-1.94-4.735l2.046-2.06c.36-.34 0-1.107-.484-1.04-.125.02-.254.086-.36.17l-2.047 2.06C45.46 4.38 43.81 3.658 42.02 3.53V.62c0-.34-.318-.655-.654-.612-.02-.008-.04-.008-.06-.008z"/></svg>