<svg xmlns="http://www.w3.org/2000/svg" width="69.211" height="69.205" viewBox="0 0 69.211 69.205"><g fill="#7D7D7D"><path d="M21 20.767c.007.003.01.013.014.017l-.015.03v-.047zm-2.992 5.315c-.895 4.24-1.443 6.51-1.61 7.193h17.484v-2.7c-1.267 0-5.462-1.213-6.04-1.097-.572.116-3.448.786-3.448.786l.23-3.413h4.658s2.36-1.1 0-2.6c-2.358-1.492-3.684-3.63-4.888-3.282-1.21.347.577-2.417.577-2.417s3.34-1.297 3.8-2.044c.46-.75-2.24.96-3.28.85-1.03-.113-.284-1.33-.284-1.33s3.05-4.263 6.96-4.092c3.91.174-.92-.634-1.268-.634-.347 0 .75-1.726 1.957-1.96 1.208-.23-.343-1.212-2.53.975-2.187 2.188-2.016 2.59-3.22 2.475-1.21-.112.4-2.59 1.15-3.107.748-.517.29-.894-.117-.76-.402.13-2.012 2.375-2.3 3.868-.29 1.5-1.438 2.59-1.438 2.59l-.42.35-.327.312-.29-.43h-.29s-.75 2.617-1.556 2.96c-.808.343-1.38-1.167-1.38-1.167s.23-.61 1.38-1.878c1.15-1.268 2.012-2.606 2.012-2.606l-.174-.584-.573.63-2.187 2.183s-2.128 1.21-.98-1.09c1.15-2.3 1.44-3.91 2.703-4.6 1.265-.69 3.163-2.018 3.163-2.018l-.056-.63-.632.46s-1.84 1.496-1.78.98c.058-.52.17-1.44.17-1.44l-.57-.287-.06.632-.116.978s-2.188 3.106-2.53 3.336c-.35.23-.63-1.15-.63-1.15s-.634-.69-.634.4c0 1.09.46 1.32.46 1.32s-1.32 6.33 1.78 8.63l.028.02c-.385.127-1.95.884-2.9 5.396zm16.672 7.193h13.95c-1.928-1.652-4.734-3.442-6.695-3.442-2.693 0-5.625.52-7.252.686v2.75zm-.802.803h-17.3l.653 1.552s1.37 4.315 2.4 4.6c1.04.29.51 4.776.51 4.776l.348 1.727-.015 3.51.384 4.662-.197 1.292-.184 3.32-.51 2.66h1.727s.243-1.055.243-1.627c0-.573.158-1.12.158-1.12l.55-8.616v-5.117l.673-.406.682 5.76.34.348-.263 8.396.07.23s-.798 1.385-.68 1.556c.112.17 1.27.52 1.785 0 .52-.52.305-1.21.305-1.21l-.134-.46.43-9.376v-4.14l.796-2.994s.05-.803 1.375-.803c.907 0 3.725-.402 5.86-.88V34.08zm15.866.24c-.06-.093-.125-.17-.2-.24H34.68v7.444c.637-.163 1.163-.326 1.478-.485 1.38-.69 1.77-.632 1.77-.632s1.342 0 1.802 1.38c.46 1.38 4.21 4.487 4.67 4.89.46.4 3.63 2.07 1.042 7.418-2.588 5.35-.974 3.396-2.24 5.064-1.268 1.668-1.15 1.84-.98 2.07.173.23 1.323.112 1.61.112.29 0 .69-.98.69-1.38s.862-.23.98-.69c.115-.46.078-1.847.078-1.847l.343-.978v2.357l.02.515s-1.688 2.562-.937 2.517c.75-.045 2.033 0 2.033 0s.72-1.254.49-2.174c-.23-.92.424-.52.424-.52l.472-5.693s.923-3.915 1.73-4.89c.806-.98-1.146-2.016-1.264-2.24-.117-.23-2.937-3.854 0-8.457.058-.092.107-.176.158-.264l.093.003 1.195 3.12s1.08.23 1.08-1.2c0-1.44-.515-2.674-.628-3.766-.036-.276-.434-.81-1.053-1.446z"/><path d="M34.603 66.195c-17.452 0-31.595-14.043-31.595-31.364 0-17.32 14.144-31.36 31.595-31.36 17.45 0 31.595 14.044 31.595 31.366 0 17.327-14.145 31.365-31.595 31.365zm0-66.195C15.49 0 0 15.49 0 34.6c0 19.113 15.495 34.605 34.606 34.605 19.11 0 34.604-15.492 34.604-34.604C69.207 15.49 53.713 0 34.603 0z"/><path d="M33.878 41.305h.803V67.8h-.8zm14.452-8.03H67.6v.803H48.33zm-46.57 0h15.256v.803H1.76zM33.878 1.158h.803v29.708h-.8z"/></g></svg>