<svg xmlns="http://www.w3.org/2000/svg" width="67.875" height="40.185" viewBox="0 0 67.875 40.185"><path fill="#58BCB4" d="M29.027 38.31c-.227.148-.45.3-.523.45-1.426-.376-1.426-2.552-1.426-2.626 0-.375-.3-.75-.75-.75-.074 0-3.15-.148-6.15-1.426.376.074.826.148 1.275.227.523.074 1.125.074 1.648.074 2.18 0 4.2-.38 6.08-.83l.374-.073c.603-.148 1.126-.227 1.65-.375h3.45c.522.074.976.3 1.425.45.6.226 1.272.448 2.175.6 2.7.376 4.8-.073 6.825-.6h.147c-2.7 1.124-5.773 1.948-9.148 1.948-3.447.005-5.776 1.954-7.05 2.927h-.002zm23.477-9.074c-.75.602-1.8 1.352-3.074 2.102-.375 0-.898.074-1.426.074-1.2.148-2.25.375-3.3.676-2.025.45-3.9.898-6.302.523-.676-.07-1.273-.3-1.875-.52-.676-.225-1.352-.45-2.176-.6-2.02-.3-3.52.074-5.1.45l-.37.073c-2.25.523-4.65.977-7.2.676-.977-.075-1.8-.3-2.7-.524-.676-.148-1.35-.375-2.1-.45-.603-.675-1.126-1.5-1.427-2.55h37.055v.074zm14.625 3.226h-.08c-.522-.074-1.124-.074-1.573-.227-.3-.074-.523-.148-.75-.227-.45-.15-.898-.375-1.8-.375-.9 0-1.65.148-2.4.375-.226.074-.522.148-.75.148-1.726.375-3.897.45-5.55.148-.9-.148-1.5-.375-2.023-.523-.148-.07-.3-.143-.523-.143 2.024-1.352 3.227-2.477 3.3-2.625.23-.227.303-.524.15-.824-.15-.3-.374-.45-.675-.45H14.48c-.227 0-.45.075-.602.228-.15.148-.227.375-.15.6.15 1.126.525 2.103.978 2.927-1.65-.074-2.774.227-3.977.523-.906.228-1.81.45-2.93.525-.9.075-2.4-.073-3.828-.226-1.2-.147-2.398-.226-3.226-.226-.45 0-.75.375-.75.75s.374.75.75.75c.75 0 1.874.074 3.073.227 1.5.15 3.074.3 4.125.228 1.272-.148 2.25-.375 3.147-.602 1.426-.374 2.7-.675 4.95-.374 2.925 2.853 7.8 3.603 9.6 3.75.228 1.353.9 3.15 2.853 3.376h.148c.45 0 .75-.3 1.426-.75 1.2-.977 3.225-2.625 6.073-2.625 5.324 0 9.977-1.874 13.352-3.823h2.176c.075 0 .15.074.228.074.6.228 1.2.45 2.323.603 1.876.3 4.126.228 6.075-.147.3-.074.523-.148.824-.227.375-.074.75-.227 1.125-.227h1.425c.228.074.45.074.603.227.227.074.523.227.898.3.604.15 1.2.228 1.8.228h.077c.376.074.75-.3.825-.676.005-.306-.296-.68-.745-.68h.003zM34.35 2.912l17.853 22.273H34.35V2.912zm-.75 23.773h20.177c.3 0 .523-.148.676-.45.148-.225.074-.6-.074-.823L34.13.287c-.23-.227-.526-.375-.827-.227-.3.075-.523.375-.523.676V25.86c.07.45.372.825.82.825zM29.027 8.462v16.726h-7.273l7.273-16.726zM20.55 26.685h9.15c.448 0 .75-.3.75-.75V4.86c0-.374-.228-.675-.603-.75-.375-.073-.675.075-.824.45L19.88 25.64c-.076.225-.076.522.073.675.148.222.375.37.597.37z"/></svg>