<svg xmlns="http://www.w3.org/2000/svg" width="74.625" height="61.108" viewBox="0 0 74.625 61.108"><g fill="#7D7D7D"><path d="M48.934 37.46c1.698.474 3.522-.5 4.007-2.24.47-1.716-.52-3.52-2.232-4.005l-1.333-.375-1.726 6.237 1.29.384zm-.43-6.866l-11.37-3.214c-.706-.188-1.416.24-1.613.956l-1.01 3.633c-.2.71.19 1.44.91 1.66l11.37 3.18 1.715-6.22zm10.33 15.766c1.69-.872 2.825-2.533 2.978-4.44.21-2.597-1.72-4.308-4.324-4.323-2.727-.016-2.86 2.61-3.965 3.457l5.312 5.305z"/><path d="M74.562 60.336c.372-1.102-1.008-1.828-1.008-1.828l-8.422-4.238c-.63-.36-2.066-1.68-2.066-1.68L51.39 40.633c-.984-.945-2.203-1.695-3.63-2.094L32.136 34.11l-9.383-9.848c-.696-.646-1.063-1.72-1.063-1.72l-4.722-12.67c-.52-1.922-2.914-2.574-2.914-2.574L9.858 6 .776 3.73s-.648-.115-.76.408c-.12.524.487.65.487.65L9.8 8.815c2.062.695 2.984 3.015 2.984 3.015l4.414 15.394s.637 1.91 1.715 2.898L28.973 42s.983 1.598 3.456 2.418l20.47 6.188 7.54 6.352s.59.734 2.37 1.188l9.863 2.867c.75.19 1.606.155 1.884-.677z"/><path d="M27.483 27.27l1.574-14.012c.45-1.94-1.35-3.648-1.35-3.648l-3.083-3.13-6.93-6.297s-.51-.41-.863-.004c-.342.4.13.8.13.8l6.28 7.95c1.49 1.583 1.206 4.07 1.206 4.07l-1.527 7.77s-.24 1.466 1.007 2.852l3.558 3.646zm29.403-11.625c-.38-.38-3.332-2.383-6.952-2.383-.403 0-.798.024-1.185.063l-3.2-1.778c0 .86.24 1.72.45 2.305-1.85.496-3.45 1.125-4.838 1.125L38.12 13.07c0 1.524.762 3.05.762 3.05s-.762 1.525-.762 3.048l3.047-1.906c1.387 0 2.984.63 4.836 1.125-.21.586-.453 1.445-.453 2.305l3.2-1.778c.386.04.78.063 1.184.063 3.62 0 6.573-2 6.952-2.383.383-.375.383-.566 0-.95zM34.48 50.835c-.426-.43-3.747-2.675-7.813-2.675-.453 0-.9.027-1.332.07l-3.594-1.996c0 .965.27 1.93.51 2.586-2.08.56-3.87 1.266-5.43 1.266l-3.425-2.14c0 1.71.856 3.425.856 3.425s-.855 1.717-.855 3.43l3.426-2.14c1.56 0 3.356.708 5.434 1.267-.24.66-.51 1.625-.51 2.586l3.595-1.996c.432.043.874.07 1.33.07 4.067 0 7.388-2.25 7.813-2.676.43-.425.424-.64 0-1.07zm32.704-28.062c-.192-.192-1.692-1.21-3.528-1.21-.207 0-.406.01-.602.03l-1.62-.902c0 .44.12.877.226 1.17-.938.25-1.75.57-2.453.57l-1.547-.97c0 .78.387 1.55.387 1.55s-.387.776-.387 1.55l1.547-.97c.703 0 1.516.32 2.453.57-.105.297-.226.734-.226 1.168l1.62-.903c.195.02.398.033.602.033 1.836 0 3.336-1.016 3.528-1.21.19-.177.19-.274 0-.47z"/></g></svg>