<svg xmlns="http://www.w3.org/2000/svg" width="59.027" height="42.079" viewBox="0 0 59.027 42.079"><path fill="#FFF" d="M11.625 9.454h17.4L25.8 14.926h6.45l-3.824 5.7c-15.074-.075-16.648-9.15-16.8-11.172zM22.5 5.102h15.074l3.3 3.602H22.5V5.102zM29.028.75h3.6v3.602h-3.6V.75zM43.5 14.778c-2.7 3.676-7.574 5.7-14.176 5.773l4.352-6.443h-6.602l2.852-4.8h15.676c-.075.976-.45 3.3-2.102 5.476zm15.527 5.926H35.324C46.274 18.08 46.426 9.227 46.426 9.08v-.376h-4.5L37.95 4.352h-4.575V0h-5.1v4.352H21.75v4.352H10.875v.375c0 .07.15 9 11.102 11.62H.375v.75H25.5c-3.226 2.924-3.676 3.6-3.75 3.9-.226.225-1.125.75-1.8 1.123-1.727.977-2.477 1.5-2.55 1.95-.15.147-.9.448-1.427.6-1.574.603-3.3 1.274-2.926 2.4.15.374-.6.897-1.2 1.35-.976.75-2.25 1.728-1.726 3.075 0 0 .08.15 0 .15-.22.3-1.5.3-2.392.3-1.65 0-3.375.074-3.375 1.273 0 1.05-2.477 2.177-4.05 2.626l-.3.15v1.727H57.23V40.35l-.3-.074c-1.575-.45-4.052-1.648-4.052-2.625 0-1.2-1.727-1.2-3.375-1.27-.897 0-2.25 0-2.397-.3v-.15c.523-1.27-.75-2.25-1.727-3.07-.604-.45-1.275-1.05-1.2-1.353.374-1.125-1.35-1.8-2.927-2.398-.522-.228-1.272-.45-1.425-.603-.075-.45-.825-.977-2.55-1.95-.678-.374-1.576-.897-1.803-1.124-.074-.226-.523-.976-3.75-3.897H58.95v-.828h.077z"/></svg>