<svg xmlns="http://www.w3.org/2000/svg" width="67.505" height="67.504" viewBox="0 0 67.505 67.504"><path fill="#58BCB4" d="M47.72 31.48c-.083.854-.278 1.71-.563 2.53.605-.254 1.008-.676 1.008-1.36 0-.437-.185-.812-.446-1.17zM12.96 21.165l-.702.375 9.117 17.743 1.477-.797-.047-.094c-.88-1.293-1.774-2.625-2.344-4.08l-7.5-13.146zm39.4-5.625c.765 0 1.405.63 1.405 1.407 0 .778-.64 1.407-1.406 1.407-.77 0-1.386-.63-1.386-1.407s.618-1.406 1.383-1.406zm-45.493-.163c-2.16-.008-4.5.75-4.5.75s2.54 3.113 4.922 3.82 3.345-.066 3.7-1.265c.356-1.2-.03-2.364-2.414-3.07-.52-.157-1.105-.23-1.71-.235zm26.883-2.18c-11.055 0-10.922 9.657-10.922 9.657l-.07 5.132c-.903-.01-1.125.887-1.125 2.672 0 2.676 1.633 5.47 3.117 6.914.504 2.102 1.473 3.957 2.766 5.368-.047.026-.094.042-.14.07-4.407 2.687-9.67 4.507-13.103 6.327-.945.5-1.95 1.387-2.765 2.508-.56.77-1.035 1.605-1.453 2.46-.016.032-.032.04-.047.07-.06.118-.11.255-.164.376-.828 1.776-1.387 3.66-1.71 5.558-.01.035-.017.082-.025.117l-.05.258c-.058.33-.117.66-.164.985-.04.266-.09.848-.07 1.125-.004.016 0 .03 0 .047-.12 1.733 3.117 2.296 3.117 2.296 1.22.36 3.47.762 6.188 1.125 4.848.8 9.817 1.07 14.696 1.22.473.016.96.023 1.477.023h.094c.257 0 .53.005.796 0 .516-.003 1.004-.007 1.477-.022 4.876-.147 9.85-.417 14.696-1.22 2.723-.365 4.97-.764 6.188-1.123 0 0 3.238-.562 3.117-2.297-.002-.017 0-.03 0-.048.02-.277-.03-.86-.07-1.125-.064-.46-.143-.934-.232-1.406-.36-2.08-1-4.136-1.97-6.046-.012-.02-.012-.05-.023-.07-.398-.8-.86-1.574-1.383-2.297-.815-1.12-1.82-2.008-2.765-2.508-3.434-1.82-8.695-3.64-13.102-6.33-.047-.027-.094-.043-.14-.07 1.292-1.41 2.26-3.266 2.765-5.367 1.485-1.445 3.118-4.238 3.118-6.914 0-1.786-.223-2.684-1.125-2.673l-.07-5.132s.133-9.657-10.922-9.657zM15.422 11.72s-3.113 2.54-3.82 4.923c-.707 2.382.066 3.347 1.265 3.703 1.2.355 2.363-.008 3.07-2.39.708-2.384-.515-6.235-.515-6.235zm-10.57-.562c-1.754.04-3.563.61-3.563.61s2.12 2.64 4.122 3.234 2.816-.066 3.117-1.078-.01-2.008-2.015-2.602c-.5-.148-1.078-.175-1.664-.164zm22.054-.96c-3.578 0-6.617 2.206-6.468 3.304.12.898.574 2.113 2.695 2.53 2.008-2.706 5.328-4.33 8.695-4.686-1.187-.7-2.96-1.15-4.922-1.15zM12.376 8.44s-2.618 2.144-3.212 4.148.043 2.816 1.055 3.117c1.01.3 2.005-.035 2.6-2.04.592-2.003-.447-5.225-.447-5.225zM3.14 7.385C1.6 7.42 0 7.925 0 7.925s1.89 2.31 3.656 2.835c1.766.523 2.48-.047 2.742-.938.262-.89-.04-1.773-1.804-2.297-.442-.128-.938-.152-1.453-.14zm6.704-2.11S7.53 7.143 7.008 8.908c-.524 1.766.047 2.477.937 2.742.89.262 1.75-.015 2.274-1.78.52-1.766-.378-4.595-.378-4.595zM23.86.002c-.032.004-.075.03-.094.047-.692.55 4.28 8.08 8.976 10.052-.125.386-.222.79-.304 1.195.19-.013.37-.02.562-.025.504-.02 1.016-.023 1.523 0 .266-3.183 2.57-7.394 9.445-7.406 7.352.01 9.445 4.84 9.445 8.062 0 2.667-3.207 3.41-4.875 5.577-1.43 1.855-1.98 7.02-1.64 9.586.05.044.104.09.14.14.258.55.445 1.107.562 1.69.93 1.363 2.46 2.41 2.46 3.937 0 1.626-1.542 2.204-3.42 2.415-.235.496-.51.98-.798 1.43-.39.426-.703.89-.984 1.383 4.965-.164 8.367-1.7 8.367-6.844-.254-9.487 2.12-12.05 2.484-16.382 1.692.883 4.892 1.336 7.403 1.336 3.578 0 4.234-1.597 4.383-2.695s-2.914-3.305-6.492-3.305c-2.285 0-4.285.617-5.438 1.524-.094-.547-.207-1.098-.375-1.617C59.89 8.13 64.84.6 64.15.05c-.637-.51-7.707 4.198-13.97 3.655-1.8-1.117-3.937-1.777-6.21-1.78h-.023c-2.273.007-4.39.663-6.188 1.78C31.784 4.225 25.07-.04 23.905.002c-.018 0-.03-.004-.046 0zm-21.165 0s-.336 3.52.703 5.438c1.04 1.917 2.106 2.023 3.07 1.5.966-.524 1.462-1.48.423-3.4S2.698.003 2.698.003z"/></svg>