<svg xmlns="http://www.w3.org/2000/svg" width="72" height="49.238" viewBox="0 0 72 49.238"><path fill="#FFF" d="M64.117 37.512l-5.53 6.148-1.087.56.902-2.638-.78-.172.866-4.078-1.645-1.648-.262-1.56-.87-.608-.253.867-1.82-2.254-1.13.77.61 1.735.172 1.995-.868.69 1.043.178-.433 1.382-.78 1.652-.608.605-.95.694-2.256-.084-1.25.262-1.434-1.562v-.82L44.74 35.16l3.924-3.206.274-1.217 1.865-.953.72-.085.097-.87 2.61-2.86.866-1.3 1.206-.57.004.007 9.434 10.44.084.088 2.352.786 1.742 1.744-5.8.34zM50.14 48.094l.114-.44-.957-.478.086-1.324-1.215-.793 1.21-.447.872-.516-1.648-.086-.055-.69.055-.004.434.086.605-.172 1.04-.347 1.13-.172.61-.52.698-.603 2.34 2.397-.324.88h-.35l-4.64 3.226zm-22.343-1.13l-.04-1.308-.503-1.125.355-2.943-.607-1.215-.926-2.17-.58-1.386v-.953l-.34.866-.59.69-.427.52.133.95.11.956-1.594.434-.294.785v1.04l.42.78-.254.608-.063.477-6.687.168-3.89-1.18-3.548.6-2.403.15 1.242-.904 1.566-1.21 1.3.17.61-.866 3.3.52 1.733.778 1.563-.776.782 1.213s.866-.087 1.13-.087c.26 0 .345-.433.345-.433l-.148-.692v-1.65l-.363-1.042.13-.868-.204-.953-.364-.783-1.09-1.3-.677-.41.41-.04h.56l1.216-.81.87-.416 1.3.063.953-1.36.953-.16.652-.313h1.172l.347-1.175.778-.292-.28-1.053.385-.402v-.738l1.246-1.04.585-1.125.984-.696 1.01-.955.637.26.36.264-1.12.947-.26 1.478L29 28.06l-.695 1.562.087 1.3-.52 1.126-.218.695-1.41.907v1.343l1.546 1.215.703 2.645v4.812l.843 1.852.27.027-1.817 1.42zm.754-32.37l2.15-.586 2.114-1.645 1.464-2.832 2.47-2.842 3.17-2.386.708-1.557.508.504.957 3.905 2.256.524-.867 3.034 1.13.7.78.17-.435.953-1.21 1.22-1.13 1.387-.953.26-.52 1.3-1.04.433.175-1.387.52-1.125.176-1.126-1.386 2.167-.52 1.126-.434.78-1.734.783-2.084 1.19-1.214.578h-.91l.996-1.093-.086-.815-.952.067-2.255-.226-.954-.81-.433-1.224-.435-.96-.952-.176-.466-.082 1.396-.2zm2.8 13.984l1.13-.777-.694-.342-.26-.957.433-.867 1.73-.606.086-1.125 1.382-.95 1.895-.86-.324 1.202.26.95-.347 1.908-.35 2.516-.52.78-.61 1.04-.26 1.944-.65 1.188h-.996l-1.906-1.09-1.735-.55 1.13-.876.69-1.048-.085-1.476zm17.4-6.07v.996l.31.824-.44.777-.786.352-.83.348-.843.605-.72.672.285-1.203.703-.608 1.223-1.125.766-.867.336-.776zm.37-2.778l-.95.782-.864.69-1.124.954-.434 1.387-.953 1.558-.086 1.397-.263 1.563-.17 1.3-.954.433-.694 1.387-.086.866.263.695.61.78-.954-.26-.61-.085-1.125 1.39 1.386 1.13-.604 2.34-.694.52-.26-.955-.605-2.083-1.387-1.56L37 32.137l.867-.866 1.126-2.17 1.473-2.95.26-1.99.346-3.99 1.043.61-.35-1.474.35-.52.952-.52 1.04-.61.953-1.038.862-.867.605-.173.5.172.234.256v1.562l.2.952-.113.605.68.085 1.118-.347.908-.867.453.172-.25.866-1.12.694zM42.04 1.004l1.16.29 4.44 5.593 4.153 3.746 1.598 1.062.018.086-1.5 1.36-1.473 2.26L50 14.36l-.78-.52-.086-1.04-1.48-2.43-1.82-.78-.868-2.254-.864-.695-.78-3.293-1.3-.172-.52-.867-.52-.235 1.062-1.065zm26.71 33.703l-2.405-.852-9.237-10.203-.71-1.426-.403-5.187-.806-.608-.98-5.28-1.863-1.235-4.048-3.65-4.585-5.78L41.755 0l-1.55 1.547-1.02 2.172-3.025 2.263-2.61 2.992-1.382 2.74-1.797 1.44-2 .546-2.98.427-2.62 5.85-.94 1.7-2.395 2.394-.84.17-2.577 1.925-1.856-.207-5.195 8.187-2.222 2.024-.203 1.402L0 45.426l5.44-.773 3.17-.2 3.406-.57 3.87 1.16 7.587-.19 1.234 2.473 1.492 1.758 4.14-2.688 2.16-.184 7.31 1.383 1.53-.766 2.16.72 2.39.212 3.85 1.348.25.126 5.09-3.62h1.94l2.046-1.12 5.47-6.067 7.46-.458-3.256-3.27z"/></svg>