<svg xmlns="http://www.w3.org/2000/svg" width="75" height="31.584" viewBox="0 0 75 31.584"><g fill="#58BCB4"><path d="M0 31.584S15.34 1.15 29.012.034c14.777-1.212 25.265 31.55 25.265 31.55H0z"/><path d="M39.48 2.438s5.648 5.524 9.266 12.266C52.62 21.93 54.94 28.93 54.94 28.93s1.024-3.19 4.063-10.566 5.14-11.566 5.14-11.566-6.026.457-12.202-.348c-5.333-.695-12.46-4.012-12.46-4.012zm16.028 29.146l4.184-10.996s1.988 3.004 3.14 4.992c1.153 1.988 3.067 6 3.067 6H55.505v.004zm11.488 0s-.918-2.648-3.012-7.47c-2.094-4.815-3-6.702-3-6.702l1.324-3.453L75 31.58h-8.004z"/></g></svg>