<svg version="1" xmlns="http://www.w3.org/2000/svg" width="67.5" height="62.176" viewBox="0 0 67.5 62.176"><g fill="#7D7D7D"><path d="M29.176 27.375c0-3.75-3-6.75-6.75-6.75 3.75 0 6.75-3 6.75-6.75 0 3.75 3 6.75 6.75 6.75-3.75 0-6.75 3-6.75 6.75zM33.75 0C15.074 0 0 15.074 0 33.75 0 39 1.2 43.95 3.3 48.375l8.102-4.574 10.274 5.856L49.05 34.13 66 43.73c.977-3.148 1.5-6.45 1.5-9.977C67.5 15.073 52.426 0 33.75 0z"/><path d="M57.074 41.477c-1.125-.524-2.25-1.125-3.375-1.727-.828-.45-1.88-1.352-2.777-1.426 0 1.8 2.477 4.273 3.45 5.773-.524-.074-.75.676-.45 1.125.3.45.824.602 1.2.977.75.75.675 1.945.374 2.922S54.6 51 54.45 52.05c-.075.302-.075.603-.228.9-.148.3-.375.448-.602.675-2.398 2.023-5.55 2.55-8.398 3.75-1.125.45-2.55.75-3.602.148-.227-.148-.45-.3-.75-.375-.375-.074-.824 0-1.2.15-1.425.3-2.85-.228-4.198-.75-2.102-.825-4.2-1.728-6.375-2.552-1.575-.602-3.075-1.125-4.727-1.574l-1.05-.524c4.8 3.977 10.5 6.602 16.574 8.176 3.977 1.05 8.023 1.727 12.148 2.102 6.148-4.05 10.95-9.977 13.5-17.102-.602-.227-1.125-.45-1.727-.676-2.24-.898-4.49-1.875-6.74-2.92z"/></g></svg>