<svg xmlns="http://www.w3.org/2000/svg" width="69.422" height="69.422" viewBox="0 0 69.422 69.422"><path fill="#58BCB4" d="M34.84 65.574c-7.88 0-15.14-2.97-20.598-7.844l1.414-2.06 1.044-4.13-2.51-1.633-2.885-.96L9.38 44.33s-2.12-1.73-3.66-2.31c-.543-.204-.89-1.01-1.453-2.22-.28-1.656-.423-3.355-.423-5.09 0-1.023.05-2.03.148-3.027.12-.14.22-.254.285-.336 1.54-1.922 5.673-3.75 5.673-3.75s1.36-.192-.957-4.04c-2.312-3.843 1.05-6.152 1.05-6.152l1.83-1.343s-.77 4.04.19 4.618c.96.578 1.922-1.25 2.114-1.828.19-.578 2.21-2.75 2.98-3.903s.098-3.89-1.058-4.08c-.237-.04-.41-.166-.55-.34 5.266-4.18 11.923-6.68 19.153-6.68 5.738 0 11.113 1.58 15.723 4.315-3.883-.152-7.855 2.055-8.61 1.887-.866-.192-5.077.53-6.616 1.105-1.54.577-1.343 1.38-1.73 1.472-.386.094-.59.42-1.187 1.09-.598.672.258 1.44.258 1.44s2.31.58 2.69-1.12c.23-1.012-.095.867 0 1.633.1.77 1.54.96 2.308 0 .348-.434.293-1.53.512-1.89.272-.442.804-.106 1.12-.15.192-.027-.18.325.062.47.492.29 1.492-.21 1.25.96-.098.473-1.6.567-1.793 1.262-.197.696-.55 1.07-.55 1.07L35 17.47l-1.026-1.506s-1.04.45-.77 1.344c.184.617-.27 1.343-.27 1.343s-1.652.29-1.652.77c0 .268-.652.3-1.023.45-.307.12-.534.63-.834.67-.18.03-1.29.13-1.54.16-.675.09-.35.27-.35.55 0 .384 1.25.48 1.25.48s.77.32.48.9c-.29.578.222.77-.352.77-.25 0-.832-.036-1.41-.032-.746.004-1.473-.23-1.488.078-.07 1.188-.028 2.84-.028 2.84s1 .48 1.546.352c.752-.18 1.826.418 2.34-.96.037-.107.107-.34.19-.45.355-.47.69-1.375 1.28-1.668.364-.18.887-.025 1.06-.033.382-.023 1.026-.543 1.026-.543s1.73.223 2.18 1.922c.133.5 0 1.348.29 1.508.175.098.96-.77.96-.77l.898.032-.495-1.168-1.654-1.814.227-.13s1.312.033 1.41.322c.094.29 1.598.992 1.344 1.828-.417 1.38.547 1.762.547 1.762s.868.16 1.25-.57c.333-.633.388-1.2.388-1.2l1.083-.156s-.06-2.372 1.16-2.435c1.22-.062 1.347 0 1.347 0s2.63.9 2.92 1.57c.29.672.413 1.356-.45 1.454-.867.09-2.148-.077-2.148-.077s-3.39-.535-3.103.426c.29.96.57 1.914.57 1.914s.775-.054 1.442.094c.714.16 1.604.064 1.604.064l.16 1.668-.426.122c-.482.136-1.912.214-2.3.36-.382.143-4.565-.58-4.663-.435-.097.143-1.49.623-2.257.432-.77-.19-.966-2.02-.966-2.02s-.093-.868-.624-.817c-.53.047-4.185.383-4.185.383s-1.202.53-1.202.815c0 0-.335-.237-.815 0-.48.24-1.202.193-1.394.58-.19.386-.914 1.105-1.297 1.777-.38.673-1.488.77-1.777 1.973-.29 1.203-.527 3.22-.48 4.086.046.866.046 2.952.914 3.42.867.474 2.02 1.673 2.453 2.106.434.434 2.79.77 3.08.578.29-.19 1.25-.578 1.777-.578.53 0 1.685.046 2.02.336.337.29.723.96 1.01 1.684.29.723.58 1.922.818 2.355.242.435 1.203 1.25.867 2.067-.336.816-.96 1.633-.867 2.598.097.96.72 2.262.938 2.69.22.435 1.613 1.778 1.562 2.212-.047.434.336.29.867.482.527.19 2.79-.436 3.125-.82.336-.385.816-1.54 1.44-2.166s1.974-1.684 2.646-2.402c.672-.723 1.344-1.348 1.396-2.258.043-.914-.484-2.982 0-3.316.476-.338 1.15-.818 1.633-1.443.48-.624 1.487-.624 2.21-2.644.724-2.02.962-2.598.817-2.69-.14-.1-1.25.386-1.44.67-.19.29-1.395.306-1.633.54-.238.23-1.25 0-1.25 0s.383-1.79.145-2.414c-.242-.626-1.44-3.08-1.828-3.942-.317-.71-.367-1.543-.22-2.09.064.09.126.176.173.262.172.308 1.117 1.378 1.508 2.503.832 2.403 1.762 4.133 1.762 4.133s1.25.066 3.332-1.54c1.416-1.09 2.916-1.17 3.17-1.73.48-1.058-1.51-2.02-1.51-2.02l-1.728.068-1.355-2.33.394-.14s1.446 1.73 2.118 1.73 2.5-.19 3.08.483c.576.67 2.31 1.827 2.596 2.98.29 1.15.147 2.796.672 3.366.737.8 1.44.677 1.44.677l.867-2.02 2.082-2.372 1.772-.874v.066c0 17.02-13.97 30.864-30.99 30.864l-.003.004zM50.11 24.68c-.192-.61-.13-1.508.16-1.668.288-.16.894-1.09.894-1.09.098-.21.707.066.836.16.13.098.19 1.22.062 1.922-.13.707.352 1.12.543 1.188.195.066.32 1.57.288 1.89-.03.32-.93.61-1.175.64-.25.032-1.227.052-1.195-.417.04-.465-.218-2.016-.414-2.625zM34.71 0C15.57 0 0 15.57 0 34.71c0 19.142 15.57 34.712 34.71 34.712 19.142 0 34.712-15.57 34.712-34.71C69.422 15.57 53.852 0 34.712 0h-.002z"/><path fill="#58BCB4" d="M27.355 16.344s.45.258.58.383c.127.13 1.25.418 1.73.16.48-.254.737-.96 1.09-.992.35-.032.128 0 .06-.258-.06-.254.353-1.2.353-1.2l-.96-.82s-.61-1.218-.544-1.6c.063-.388-.46-1.095-.43-1.142.028-.047-1.652.024-1.652 1.016v1.41s-.273.58-.434.74c-.16.16-.007.83.086 1.12.098.29.12 1.187.12 1.186zm-.35-.48c.077-.157-.157-1.036-.25-1.376l-.04-.132-.16-.61c-.098-.19-.383.29-.567.383-.183.094-.172.414-.265.67-.098.26-.32 1.22-.32 1.22l.59.16c-.005 0 .913-.128 1.01-.32zm22.56 32.308s-.097 1.44-.77 1.875c-.67.434-1.152 1.203-1.152 1.633 0 .434-.144.914 0 1.348.146.434.513.723.93.672.42-.047.9-.914.993-1.297.098-.383.387-1.195.672-1.465.29-.266.387-1.035.336-1.422-.047-.383.29-1.778-1.008-1.344z"/></svg>