<svg xmlns="http://www.w3.org/2000/svg" width="36.031" height="45.043" viewBox="0 0 36.031 45.043"><path fill="#58BCB4" d="M12.152 43.266c-5.718 0-10.37-4.652-10.37-10.37 0-4.95 7.742-17.408 10.37-21.49 2.63 4.086 10.372 16.54 10.372 21.49 0 5.717-4.653 10.37-10.372 10.37zm0-34.38c-.296 0-.574.15-.742.4C10.945 9.986 0 26.472 0 32.896 0 39.592 5.45 45.04 12.15 45.04c6.698 0 12.15-5.45 12.15-12.148 0-6.422-10.944-22.91-11.41-23.61-.163-.25-.44-.398-.738-.398v.002z"/><path fill="#58BCB4" d="M12.918 42.637c.055 0 .11-.008.164-.02 4.21-.906 7.526-4.102 8.45-8.14.108-.47-.165-.95-.603-1.07-.446-.122-.907.18-1.017.647-.773 3.375-3.586 6.05-7.164 6.82-.445.094-.738.562-.65 1.043.08.415.422.72.816.72zm13.676-9.597c.07 0 .142-.01.207-.024 3.23-.762 5.77-3.422 6.47-6.78.1-.48-.207-.95-.692-1.052-.47-.098-.953.215-1.05.688-.56 2.684-2.57 4.81-5.134 5.41-.233.055-.425.195-.554.4-.12.202-.16.44-.11.67.1.402.46.687.87.687h-.005z"/><path fill="#58BCB4" d="M24.62.4c-.163-.25-.44-.4-.74-.4-.298 0-.575.15-.74.4-.034.05-3.624 5.448-6.734 11.22-.113.212-.14.454-.07.677.07.227.22.418.43.527.422.227.98.06 1.207-.36 2.246-4.167 4.78-8.194 5.91-9.948 2.63 4.086 10.37 16.54 10.37 21.492 0 4.816-3.265 8.96-7.94 10.086-.23.055-.426.195-.55.398-.126.204-.165.44-.11.672.098.402.453.68.863.68.07 0 .14-.008.207-.024 5.48-1.312 9.31-6.175 9.31-11.812.002-6.422-10.947-22.91-11.412-23.61V.4zm-4.58 31.29c-.024.49.354.857.843.857h.098c.46 0 .82-.316.84-.77.01-.14.05-1.33-.55-2.195-.273-.386-.852-.484-1.242-.21-.4.28-.496.84-.215 1.237.18.25.246.77.23 1.08z"/></svg>