<svg xmlns="http://www.w3.org/2000/svg" width="51.158" height="42.292" viewBox="0 0 51.158 42.292"><path fill="#58BCB4" d="M25.668 19.32l-2.324-1.258 1.258-2.324-2.325-1.258-1.257 2.324-5.563-3.008 5.36-3.36 1.406 2.243 2.238-1.405-1.4-2.242L25.3 7.63l-1.403-2.237-2.242 1.402-1.402-2.242-2.237 1.403 1.4 2.244-5.257 3.292V5.29h2.64V2.643h-2.644V0h-2.644v2.644H8.867V5.29h2.645v6.37L5.906 8.628l1.258-2.324-2.324-1.26-1.258 2.323L1.254 6.11 0 8.436l2.324 1.258-1.258 2.324 2.325 1.257 1.26-2.325 5.564 3.01-5.358 3.36-1.407-2.242-2.24 1.402 1.402 2.242-2.24 1.403 1.403 2.242 2.24-1.407 1.405 2.243L7.656 21.8l-1.402-2.238 5.258-3.297v6.203H8.867v2.645h2.645v2.644h2.644v-2.644H16.8v-2.645h-2.644v-6.37l5.606 3.034-1.258 2.325 2.324 1.257 1.258-2.324 2.324 1.254m-2.574 6.113c-8.055 0-12.77 4.488-12.97 4.684l1.743 1.69c.036-.04 4.18-3.98 11.23-3.98 1.306 0 5.72.2 7.59 2.755 1.11 1.523.99 3.965-.268 5.445-1.172 1.374-3.226 1.9-5.12 1.31-1.017-.32-1.68-1.115-2.032-2.428-.19-.726-.124-1.624.477-2.62-.73-.402-1.46-.805-2.19-1.203-.92 1.205-1.017 3.13-.673 4.416.562 2.11 1.828 3.53 3.656 4.105.786.247 1.583.364 2.363.364 2.09 0 4.075-.855 5.41-2.426 1.985-2.333 2.15-5.927.376-8.35-2.48-3.394-7.538-3.762-9.596-3.762m18.66-15.786c-.434-2.49-2.584-5.123-5.764-5.334-.113-.015-2.75-.34-4.77 1.68l1.738 1.738c1.145-1.14 2.656-.984 2.785-.972 1.996.132 3.317 1.77 3.59 3.316.102.578.062 1.19-.156 1.746-.156.39-.402.734-.707 1.02-.453.422-.906.707-1.53.695-.243-.007-.485 0-.724 0h-7.582v2.64h6.266c1.492 0 2.906-.002 4.227-.784 1.008-.593 1.836-1.476 2.297-2.554.43-1.004.52-2.12.332-3.192m7.922 10.678c-1.312-.965-3.043-1.47-5.133-1.492-2.434-.063-4.832.746-7.246.992-1.46.148-2.925.25-4.39.297l-5.605.012v2.656h5.527c2-.133 4-.35 5.98-.672 1.902-.306 3.766-.856 5.703-.833 1.582.016 2.84.363 3.738 1.024 1.56 1.15 1.766 2.988 1.75 3.98-.03 2.07-1.004 4.06-2.473 5.07-.83.574-1.913.88-3.13.88-.545-.005-5.353-.165-5.432-4.618l-2.415.045c.097 5.56 5.172 7.027 7.844 7.027 1.698 0 3.252-.448 4.483-1.296 2.098-1.45 3.484-4.22 3.53-7.062.05-2.5-.95-4.688-2.735-6.004"/></svg>