<svg xmlns="http://www.w3.org/2000/svg" width="39.873" height="67.5" viewBox="0 0 39.873 67.5"><g fill="#58BCB4"><path d="M25.887 58.07H14.372c-.934 0-1.692.758-1.692 1.69l-1.69 6.048c0 .934.756 1.69 1.69 1.69h14.898c.934 0 1.69-.757 1.69-1.69l-1.69-6.047c0-.93-.757-1.69-1.69-1.69zM15.08 32.527c.065.125.14.24.22.344l.65 4.257 1.77 17.625c0 .774.628 1.31 1.402 1.31h2.01c.774 0 1.403-.535 1.403-1.31l1.77-17.624h.72c1.27 0 2.3-1.078 2.3-2.348l-1.305-8.85c0-1.27-1.03-2.193-2.3-2.193h-7.184c-.45 0-.864.114-1.215.317l-2.724-5.398c-.488-.964-1.664-1.347-2.63-.863l-.116.06c-.966.487-1.353 1.663-.864 2.63l6.094 12.05z"/><path d="M23.99 18.336c0 5.14-7.716 5.14-7.716 0s7.715-5.14 7.715 0m13.62 9.534h-4.505c-.797 0-1.445.67-1.445 1.466l-.814 7.25c0 .797.648 1.438 1.44 1.438h.45l1.11 9.324c0 .48.394.832.878.832h1.262c.484 0 .88-.348.88-.832l1.112-9.324h.45c.796 0 1.445-.64 1.445-1.438l-.817-7.25c-.004-.797-.652-1.465-1.445-1.465zm-2.255-5.62c1.336 0 2.418 1.082 2.418 2.418s-1.082 2.418-2.418 2.418c-1.332 0-2.414-1.082-2.414-2.418s1.083-2.418 2.415-2.418zm-27.15 7.086c0-.797-.646-1.465-1.443-1.465H2.258c-.797 0-1.44.67-1.44 1.468L0 36.588c0 .795.65 1.436 1.442 1.436h.45L3 47.348c0 .48.395.832.88.832h1.26c.485 0 .88-.348.88-.832l1.11-9.324h.45c.795 0 1.44-.64 1.44-1.438l-.816-7.25z"/><path d="M6.93 24.668c0 3.223-4.836 3.223-4.836 0s4.836-3.223 4.836 0m14.047-13.14c.06 0 .11-.055.11-.118v-.113c0-.067-.048-.12-.11-.12H19.29c-.063 0-.11.053-.11.12v.113c0 .067.047.117.11.117h1.687zm0-.493c.06 0 .11-.05.11-.117v-.113c0-.067-.048-.12-.11-.12H19.29c-.063 0-.11.053-.11.12v.113c0 .066.047.117.11.117h1.687zm-.29.63c-.1.202-.31.347-.55.347-.246 0-.457-.145-.562-.348h1.113zM20.13 4.17c-1.3 0-2.357 1.055-2.357 2.355 0 .43.117.828.312 1.18.578 1.04.735 1.695.828 2.262.08.47.188.584.547.584h1.336c.36 0 .47-.11.547-.585.094-.568.25-1.224.824-2.263.19-.348.312-.746.312-1.18.003-1.304-1.05-2.355-2.35-2.355zm0-1.38c-.258 0-.474-.21-.474-.472V.473C19.66.21 19.873 0 20.13 0c.26 0 .472.21.472.473v1.85c0 .26-.21.47-.473.47zm-3.11 1.29c-.12 0-.242-.047-.336-.137L15.38 2.635c-.184-.184-.184-.48 0-.664.183-.184.484-.184.663 0l1.31 1.308c.183.184.183.485 0 .668-.09.086-.212.133-.333.133zm6.223 0c-.12 0-.242-.047-.336-.137-.184-.18-.184-.482 0-.666L24.22 1.97c.18-.185.48-.185.66 0 .185.182.185.483 0 .663L23.57 3.94c-.087.094-.212.14-.33.14zm2.523 2.828h-1.848c-.262 0-.473-.215-.473-.472 0-.258.21-.473.473-.473h1.848c.262 0 .473.213.473.475-.007.257-.214.472-.476.472zm-9.418 0h-1.852c-.26 0-.472-.215-.472-.472 0-.258.21-.473.472-.473h1.852c.258 0 .473.213.473.475 0 .257-.212.472-.47.472z"/></g></svg>