<svg xmlns="http://www.w3.org/2000/svg" width="32.546" height="45.842" viewBox="0 0 32.546 45.842"><path fill="#58BCB4" d="M11.773 27.842c0-2.477 2.023-4.5 4.5-4.5s4.5 2.023 4.5 4.5-2.023 4.5-4.5 4.5-4.5-2.024-4.5-4.5zm9.977 3.898c.75-1.125 1.273-2.476 1.273-3.898 0-1.426-.45-2.773-1.273-3.898l2.023-2.024c.45-.45.45-1.125 0-1.574s-1.125-.45-1.574 0l-2.027 2.023c-1.125-.75-2.476-1.276-3.898-1.276-1.426 0-2.774.45-3.9 1.273l-2.022-2.024c-.45-.45-1.125-.45-1.574 0s-.45 1.125 0 1.574l2.023 2.024c-.75 1.126-1.273 2.477-1.273 3.9 0 1.425.45 2.772 1.275 3.897L8.78 33.763c-.448.45-.448 1.125 0 1.574.227.227.524.3.825.3.3 0 .602-.073.824-.3l2.02-2.023c1.126.75 2.477 1.273 3.9 1.273 1.426 0 2.774-.45 3.9-1.273l2.022 2.023c.227.227.523.3.824.3.3 0 .602-.073.824-.3.45-.45.45-1.125 0-1.574l-2.17-2.023zM19.347 7.143c-.226 0-.45-.074-.676-.227-.52-.375-.6-1.05-.224-1.574l2.102-2.773-4.125.446h-.226l-4.124-.45 2.1 2.774c.376.524.302 1.2-.225 1.575-.524.375-1.2.3-1.574-.226L8.696 1.813c-.3-.375-.3-.825-.074-1.2.227-.375.676-.6 1.126-.6l6.6.75 6.603-.75c.45-.075.9.147 1.126.6.226.45.226.9-.074 1.2L20.325 6.69c-.3.3-.676.453-.977.453z"/><path fill="#58BCB4" d="M16.273 10.592c-3.3 0-6.824 3.074-9.676 8.324C3.972 23.79 2.324 29.94 2.324 34.592c-.074 8.55 5.25 9 13.95 9s14.022-.45 14.022-8.926c0-4.726-1.648-10.875-4.273-15.676-2.926-5.324-6.45-8.398-9.75-8.398zm0 35.25C8.625 45.842 0 45.842 0 34.666 0 24.24 7.273 8.342 16.273 8.342S32.546 24.24 32.546 34.666c0 11.176-8.625 11.176-16.273 11.176z"/></svg>