<svg xmlns="http://www.w3.org/2000/svg" width="71.653" height="65.811" viewBox="0 0 71.653 65.811"><g fill="#58BCB4"><path d="M10.77 51.558c0 6-8.996 6-8.996 0s8.996-6 8.996 0"/><path stroke="#7D7D7D" stroke-width="1.125" d="M54.528 1.616s-2.375-3-4.125 1.125-2.875 10.63-1.875 13 .125 5.13-.375 7-2.5 6.63-1.125 8.75"/><path d="M71.653.866H53.028s.75 4.125 4.5 6.125 4.75.75 6.5 2.75 2.5 3.88 4.375 5 3.25 1.5 3.25 1.5V.87zm-50.18 48.53c.75 1.02.535 2.458-.488 3.21L3.657 65.364c-1.024.754-2.46.535-3.21-.488-.75-1.02-.532-2.457.487-3.21l17.324-12.76c1.024-.75 2.46-.53 3.215.493v-.006zM48.96 31.04c.853.937.884 2.3.063 3.043L35.165 46.665c-.816.742-2.172.582-3.024-.36-.85-.937-.873-2.3-.06-3.042l13.86-12.578c.82-.742 2.17-.582 3.026.356h-.004z"/><path d="M34.91 45.44c.622 1.535-.116 3.285-1.652 3.906l-16.77 7.55c-1.534.622-3.284-.116-3.905-1.65l-.914-2.255c-.627-1.53.11-3.28 1.65-3.9l16.77-6.047c1.53-.62 3.28.117 3.902 1.65l.914.75h.002z"/></g></svg>