<svg xmlns="http://www.w3.org/2000/svg" width="56.574" height="57.425" viewBox="0 0 56.574 57.425"><path fill="#58BCB4" d="M16.98 1.27h.003c.68.034 1.305.41 1.77 1.054.492.687.738 1.59.687 2.54-.094 1.83-1.312 3.323-2.715 3.323l-.105-.004c-.68-.035-1.305-.41-1.77-1.054-.496-.695-.738-1.597-.69-2.546.098-1.825 1.312-3.317 2.82-3.317zm-.426 8.18l.172.003c2.098 0 3.844-1.985 3.98-4.524.067-1.237-.265-2.424-.925-3.346C19.09.62 18.12.058 17.05.004L16.875 0c-2.098 0-3.844 1.984-3.98 4.523-.063 1.235.265 2.422.925 3.344.69.97 1.664 1.527 2.734 1.582zm-9.86 1.67c.368-.374.92-.59 1.505-.59.985 0 1.993.614 2.02 1.993l.22 13.66c.01.61-.17 1.102-.528 1.47-.988 1.007-3.485.788-3.52-1.403L6.17 12.59c-.01-.606.165-1.102.524-1.47zM8.41 29.51c.922 0 1.8-.353 2.402-.97.598-.61.91-1.43.89-2.375l-.218-13.66C11.45 10.38 9.804 9.27 8.2 9.27c-.924 0-1.8.352-2.404.97-.598.608-.91 1.43-.89 2.374l.222 13.66c.03 2.126 1.674 3.236 3.28 3.236zm4.32 3.767l-4.363 11.86-7.47 6.515c-1.093.957-1.202 2.617-.245 3.71.52.595 1.832 1.942 1.832 1.942l9.856-8.652c.332-.29.582-.656.738-1.07l3.285-8.93-3.634-5.375zm43.602 19.63l-4.188-7.34h1.833c.47 0 .844-.376.844-.845 0-.23-.092-.44-.244-.594l-4.57-8.016h1.44c.47 0 .844-.38.844-.844 0-.234-.096-.44-.248-.594l-4.395-7.708c-.305-.527-1.168-.527-1.47 0l-4.495 7.887c-.15.262-.15.582.004.84.152.262.426.422.727.422h1.414l-4.672 8.195c-.146.262-.146.582.004.84.15.262.43.422.726.422h1.792l-4.286 7.516c-.148.262-.145.582.008.844.15.258.426.422.73.422h7.517v2.848h2.53v-2.86h7.553c.465 0 .844-.378.844-.843.002-.237-.096-.448-.244-.596z"/><path fill="#58BCB4" d="M24.383 39.67l-5.028-7.53c.047-.215.074-.457.07-.73l-.027-6.922-.015-5.227 4.886 4.86c.204.198.91.538 1.185.58L32 25.74l-7.617 13.93zm11.62-19.487c-.41-.226-.922-.074-1.145.336l-.558 1.02c-.105-.032-.207-.067-.324-.086L26.86 20.32s-5.87-5.75-8.17-8.15c-.17-.176-.427-.438-.575-.575-.465-.425-1.313-.68-2.13-.68-1.686 0-3.37 1.137-3.366 3.387l.06 16.243c.002.918.29 1.637.737 2.176l8.113 12.165-6.053 11.073c-.222.41-.074.92.336 1.144.13.07.27.105.403.105.296 0 .586-.16.738-.44l5.633-10.303 6.527 9.785c.504.76 1.34 1.17 2.19 1.17.505 0 1.01-.144 1.457-.44 1.214-.805 2.116-1.594 2.116-1.594l-9.436-14.13 8.355-15.282c1.176-.062 1.918-.996 2.062-1.918.078-.468-.004-.98-.234-1.43l.71-1.3c.23-.41.077-.92-.33-1.144z"/></svg>