<svg xmlns="http://www.w3.org/2000/svg" width="20.242" height="67.5" viewBox="0 0 20.242 67.5"><g fill="#58BCB4"><path d="M6.302 32.527c.062.125.14.24.222.344l.653 4.257 1.77 17.625c0 .774.628 1.31 1.4 1.31h2.013c.773 0 1.402-.535 1.402-1.31l1.77-17.624h.72c1.268 0 2.3-1.078 2.3-2.348l-1.305-8.85c0-1.27-1.027-2.193-2.3-2.193H7.76c-.446 0-.864.118-1.215.32l-2.725-5.4c-.488-.965-1.664-1.347-2.63-.863l-.116.06c-.965.487-1.35 1.663-.863 2.624l6.094 12.05z"/><path d="M15.21 18.336c0 5.14-7.71 5.14-7.71 0s7.71-5.14 7.71 0m1.65 39.734H5.344c-.934 0-1.692.758-1.692 1.69l-1.69 6.048c0 .934.757 1.69 1.69 1.69h14.9c.933 0 1.69-.757 1.69-1.69l-1.69-6.047c-.005-.93-.76-1.69-1.692-1.69zM12.2 11.527c.058 0 .105-.054.105-.117v-.113c0-.067-.047-.12-.106-.12h-1.69c-.06 0-.11.053-.11.12v.113c0 .067.05.117.11.117h1.69zm0-.492c.058 0 .105-.05.105-.117v-.113c0-.067-.047-.12-.106-.12h-1.69c-.06 0-.11.05-.11.12v.113c0 .066.05.117.11.117h1.69zm-.29.63c-.1.202-.312.347-.55.347-.247 0-.458-.145-.563-.348h1.113zm-.554-7.493C10.056 4.172 9 5.227 9 6.527c0 .43.12.828.312 1.176.58 1.043.735 1.695.83 2.262.077.473.19.586.546.586h1.336c.36 0 .47-.11.547-.583.097-.567.25-1.22.827-2.262.195-.348.312-.746.312-1.176.003-1.305-1.055-2.356-2.35-2.356zm0-1.38c-.258 0-.47-.21-.47-.472V.473c-.003-.262.208-.473.47-.473s.473.21.473.473V2.32c-.008.262-.218.473-.476.473zM8.242 4.08c-.12 0-.242-.047-.332-.137L6.6 2.635c-.182-.184-.182-.48 0-.664.185-.184.486-.184.666 0L8.574 3.28c.184.184.184.48 0 .664-.094.09-.21.14-.332.14zm6.223 0c-.12 0-.238-.047-.332-.137-.184-.18-.184-.482 0-.662l1.312-1.307c.18-.185.48-.185.664 0 .18.182.18.48 0 .663L14.8 3.94c-.093.09-.218.138-.335.138zm2.525 2.828h-1.85c-.26 0-.472-.21-.472-.472 0-.258.21-.47.473-.47h1.85c.26 0 .474.212.474.47-.005.257-.212.472-.473.472zm-9.42 0H5.72c-.263 0-.47-.21-.47-.472 0-.258.21-.47.47-.47h1.85c.258 0 .47.212.47.47 0 .257-.212.472-.47.472z"/></g></svg>