<svg xmlns="http://www.w3.org/2000/svg" width="75" height="75" viewBox="0 0 75 75"><path fill="#58BCB4" d="M56.02 41.902h11.312v4.762H56.02zm0-7.082h11.312v4.98H56.02zm0 14.07h11.312v4.446H56.02zm0 13.22h11.312v4.667H56.02zm0 6.867h11.312v4.543H56.02zm0-13.344h11.312v4.18H56.02zM6.422 34.82h11.312v4.98H6.422zm0 7.082h11.312v4.762H6.422zm0 6.988h11.312v4.446H6.422zm0 6.743h11.312v4.18H6.422zm0 13.344h11.312v4.543H6.422zm0-6.867h11.312v4.667H6.422z"/><path fill="#58BCB4" d="M25.566 4.12c-1.714.92-3.336 2.08-4.86 3.458V23c-.046.023-.097.07-.12.12-.024 0-.024 0-.024.025-1.378 1.355-2.44 2.804-3.19 4.375-.024-.122-.048-.266-.048-.438V11.277c-.508.653-.94 1.328-1.355 2.032-.995 1.665-1.77 3.454-2.277 5.34-.554 2.01-.847 4.11-.87 6.356l-9.134-.024 14.043 13.512V35.23c.024-.335.047-.675.098-.992.075-.894.243-1.738.46-2.54.533-2.077 1.45-3.89 2.73-5.436.22-.29.436-.578.706-.848.168-.195.363-.387.554-.555l.026-.026c.46-.484.992-.94 1.547-1.356 3.6-2.78 7.953-4.157 13.003-4.157 5.102 0 9.426 1.38 13.028 4.157.582.46 1.137.917 1.644 1.425.172.168.34.34.508.508.024.024.024.047.047.074 1.62 1.715 2.73 3.77 3.336 6.21.506 1.982.75 4.232.77 6.72l13.975-13.32-9.476-.024c-.025-2.246-.29-4.398-.85-6.43-.726-2.585-1.91-5.003-3.527-7.203v15.33c0 .168-.023.363-.074.53-.12-.24-.243-.484-.364-.702-.215-.41-.484-.797-.75-1.184-.555-.772-1.184-1.522-1.91-2.222v-.02c-.098-.1-.195-.196-.29-.267V7.7c-1.546-1.45-3.214-2.634-4.98-3.58-.144-.073-.29-.143-.437-.218V19.18c-1.087-.508-2.2-.942-3.384-1.282V2.528c-1.813-.555-3.7-.92-5.68-1.04v15.47c-.53-.024-1.062-.048-1.593-.048-.606 0-1.207.024-1.79.047V1.487c-1.957.122-3.82.462-5.582 1.017v15.422c-1.182.363-2.295.797-3.38 1.328v-15.4c-.173.076-.365.173-.533.267zm-.484 56.83h-4.496v12.57l32.34.097V60.95h-4.45c1.33 1.16 1.985 2.464 1.985 3.94 0 1.67-.845 3.118-2.56 4.4-.437.315-.92.628-1.453.917-.484.266-.965.508-1.472.727-1.524.652-3.168 1.086-4.98 1.304-1.016.12-2.08.196-3.216.196-3.094 0-5.825-.508-8.17-1.5-.507-.22-1.015-.457-1.5-.727-2.683-1.473-4.01-3.238-4.01-5.316 0-1.47.655-2.78 1.983-3.94z"/><path fill="#58BCB4" d="M28.637 36.102l-10.47.023 12.958 4.664m24.68-4.736l-10.59.023-2.512 4.71m-4.98 22.24c.218-.243.34-.53.34-.87V57.49c0-.12 0-.215-.024-.29l6.646-6.694h-15.69L35.69 57.2c-.02.075-.044.17-.044.29v4.664c0 .34.12.63.363.87.22.22.506.34.845.34.336 0 .625-.12.868-.34z"/><path fill="#58BCB4" d="M45.145 36.055l-2.516 4.71 13.1-4.738m-27.17.05l-10.463.025 12.953 4.664m4.595 16.704v4.667c0 .336.12.63.363.87.22.22.508.34.847.34.34 0 .63-.12.872-.34.218-.24.34-.53.34-.87V57.47c0-.122 0-.216-.024-.29l6.648-6.696H29l6.695 6.696c-.022.074-.045.168-.045.29z"/></svg>