<svg xmlns="http://www.w3.org/2000/svg" width="74.984" height="70.312" viewBox="0 0 74.984 70.312"><path fill="#58BCB4" d="M57.605 52.937c-4.777 0-9.105 1.93-12.246 5.05 3.35 2.23 4.942 6.403 3.876 12.325h25.746c-.004-9.598-7.78-17.375-17.38-17.375z"/><path fill="#58BCB4" d="M38.316 59.39c-6.03 0-10.918 4.89-10.918 10.922h21.837c0-6.03-4.89-10.922-10.92-10.922zM65.012 4.304V0H50.41v4.304h-9.418l.016 2.012h-.004v29.066l4.633 4.543V9.082h4.984v38.882h4.636V9.082h4.996v38.882h4.634V9.082h5.32v42.152l4.777 4.164V4.304"/><path fill="#58BCB4" d="M38.312 40.308H16.227l-2.45 30.004h8.844c0-8.652 7.04-15.695 15.698-15.695 1.133 0 2.234.125 3.3.355l.38-.37c1.14-1.134 2.39-2.114 3.71-2.958v-3.676l-7.394-7.66zm-27.906-4.906c0 1.91-1.547 3.46-3.465 3.46-1.91 0-3.46-1.55-3.46-3.46 0-1.914 1.55-3.46 3.46-3.46 1.92 0 3.468 1.55 3.468 3.46zM0 28.664v41.648h13.734V28.664L6.81 11.746 0 28.664z"/></svg>