<svg xmlns="http://www.w3.org/2000/svg" width="72.995" height="61.363" viewBox="0 0 72.995 61.363"><path fill="#58BCB4" d="M50.292 13.586c3.73.61 7.238-1.922 7.848-5.65.605-3.725-1.918-7.24-5.648-7.846-3.727-.606-7.238 1.92-7.844 5.648-.61 3.73 1.918 7.242 5.644 7.848zm18.46 35.434c-1.25 5.683-6.89 9.288-12.573 8.038s-9.29-6.89-8.04-12.574c.69-3.16 2.74-5.672 5.41-7.07l3.46 9.035c.25.65.805 1.092 1.44 1.23.366.08.765.06 1.14-.088 1.03-.395 1.55-1.55 1.15-2.578l-3.36-8.767c1.09-.11 2.206-.06 3.33.19 5.684 1.253 9.29 6.893 8.04 12.58zM61.57 32.542c-1.918-.422-3.832-.442-5.656-.114l-2.09-5.458 2.898.004c1.574 0 2.852-1.277 2.855-2.85 0-1.568-1.262-2.84-2.824-2.857h-.027l-9.418-.005s-3.227-9.082-3.566-9.69c-1.38-2.482-4.508-3.368-6.984-1.99l-16.46 9.173c-2.477 1.378-3.368 4.503-1.99 6.984.435.772 1.04 1.39 1.747 1.84.707.64 1.55 1.05 2.442 1.23l10.183 4.84-.445 12.194c-.06 1.574 1.172 2.9 2.746 2.954h.088c1.54.016 2.816-1.2 2.875-2.746l.51-14.066c.045-1.14-.596-2.19-1.623-2.68l-7.668-3.65-.21.03 11.57-6.448.32.91 1.803 4.937c.41 1.12 1.465 1.864 2.652 1.872h.023l4.27.002c.02.113.046.23.093.343l2.44 6.354c-3.87 1.88-6.88 5.44-7.874 9.96-1.73 7.83 3.244 15.606 11.076 17.33s15.61-3.25 17.332-11.083c1.723-7.83-3.25-15.61-11.085-17.33l-.002.002zM14.546 57.37c-5.82 0-10.55-4.733-10.55-10.554S8.73 36.26 14.546 36.26c5.82 0 10.555 4.735 10.555 10.556S20.37 57.37 14.55 57.37h-.004zm0-25.1C6.526 32.27 0 38.79 0 46.815c0 8.02 6.527 14.547 14.546 14.547 8.02 0 14.547-6.527 14.547-14.547S22.57 32.27 14.546 32.27z"/></svg>