<svg version="1" xmlns="http://www.w3.org/2000/svg" width="68.864" height="52.326" viewBox="0 0 68.864 52.326"><path fill="#7D7D7D" d="M8.91 40.505l-5.202 1.39c-.07-.296-.14-.593-.203-.89-.41-1.934-.636-3.863-.687-5.774h5.398c-.008-.262-.015-.53-.015-.8 0-.154.006-.314.01-.47h-5.4c.036-2.367.337-4.692.88-6.942l5.207 1.4c.062-.263.125-.52.195-.78.04-.15.084-.303.13-.456l-5.206-1.397c.645-2.254 1.535-4.426 2.652-6.47l4.664 2.697c.128-.236.257-.466.39-.7.082-.137.16-.274.242-.41L7.3 18.206c1.195-2 2.613-3.87 4.227-5.567l3.808 3.812c.184-.195.37-.387.56-.574.112-.114.226-.223.34-.332l-3.81-3.817c1.664-1.618 3.512-3.055 5.528-4.286l2.693 4.672c.227-.14.453-.277.687-.41l.413-.235-2.69-4.67C21.06 5.68 23.22 4.77 25.5 4.104l1.392 5.207c.254-.08.512-.154.77-.22.156-.043.308-.08.46-.12l-1.386-5.205c.37-.093.746-.18 1.12-.257 1.962-.42 3.923-.646 5.856-.693V8.21c.24-.004.477-.008.72-.008.188 0 .37 0 .558.004V2.813c2.363.04 4.688.348 6.934.895L40.53 8.915c.23.054.463.113.694.176.18.05.36.1.54.155l1.394-5.203c2.254.65 4.422 1.544 6.465 2.665l-2.695 4.668c.207.113.418.23.625.35.16.09.32.19.48.283l2.695-4.664c2 1.204 3.863 2.626 5.56 4.243l-3.813 3.808c.172.165.344.333.516.5.13.134.265.267.39.4l3.816-3.81c1.61 1.67 3.047 3.525 4.27 5.54l-4.672 2.692c.125.203.25.41.37.617.09.16.185.323.274.483l4.668-2.69c1.113 2.01 2.017 4.17 2.68 6.46l-5.203 1.39c.067.227.134.457.196.692.046.18.094.36.136.54l5.203-1.393c.085.348.167.696.24 1.047.435 2.043.66 4.082.69 6.098h-5.393c.004.156.008.316.008.472 0 .27-.008.536-.016.8h5.4c-.06 2.368-.385 4.69-.95 6.93l-5.204-1.393c-.04.15-.078.305-.12.46-.07.26-.142.517-.22.77l5.207 1.396c-.668 2.25-1.582 4.41-2.72 6.445l-4.663-2.694c-.08.137-.157.273-.235.414-.133.226-.266.45-.402.67l7.103 4.098c4.406-7.238 6.164-16.11 4.262-25.05C64.15 8.676 45.87-3.194 27.275.76 8.677 4.713-3.195 22.994.76 41.59c.808 3.806 2.218 7.333 4.11 10.497l7.07-4.148c-.08-.136-.157-.27-.24-.405-.117-.21-.234-.418-.347-.63L6.68 49.6c-1.1-2.017-1.995-4.18-2.647-6.474l5.207-1.39c-.055-.177-.102-.356-.153-.536-.062-.23-.12-.464-.176-.695z"/><path fill="#7D7D7D" d="M30.67 33.607c-.61 2.082.585 4.262 2.667 4.87 3.114.907 29.727 4.242 29.727 4.242S38.654 31.842 35.54 30.93c-2.082-.604-4.26.587-4.87 2.673zm1.425.4c.38-1.302 1.742-2.048 3.043-1.67 1.305.383 2.05 1.747 1.668 3.047-.38 1.3-1.742 2.047-3.043 1.668-1.3-.38-2.047-1.742-1.668-3.046z"/></svg>