<svg xmlns="http://www.w3.org/2000/svg" width="64.718" height="67.223" viewBox="0 0 64.718 67.223"><g fill="#58BCB4"><path d="M28.656 63.472c.136 1.23-.723 2.523-1.91 2.88l-2.626.78c-1.187.352-2.37-.348-2.63-1.56l-1.303-6.1c-.258-1.212.508-1.946 1.707-1.638l4.136 1.074c1.2.31 2.29 1.57 2.426 2.8l.2 1.764z"/><path d="M54.745 30.277l-17.676.754c-1.12.05-2.178.71-2.678 1.79l-.262.57-5.144 11.1c-2.868-.18-5.403-1.036-7.176-2.36-1.015-.74-1.827-1.68-2.452-2.754-.313-.534-.575-1.112-.778-1.706-.1-.298-.187-.6-.254-.888-.036-.145-.063-.285-.083-.41l-.023-.172-.008-.06v-.007c0-.245-.078-.487-.14-.72l10.902-6.275.124-.07c.54-.313.968-.816 1.175-1.46l4.535-14.16c.44-1.376-.316-2.85-1.69-3.29-1.376-.442-2.848.316-3.29 1.69L25.655 24.9s-14.687 6.066-16.953 8.04c-1.125.98-1.398 1.507-2.082 3.03L.234 50.178c-.57 1.27-.063 2.77 1.164 3.43l11.84 6.376c.402.215.832.316 1.257.316.946 0 1.864-.508 2.344-1.398.69-1.293.21-2.902-1.08-3.602L6.1 50.097l2.735-6.078c.27.49.55.98.86 1.45 1.51 2.32 3.546 4.36 5.86 5.864 2.308 1.515 4.843 2.49 7.32 3.058 2.484.562 5.257.633 6.667.683 1.922.07 5.215-1.315 6.172-4.128.46-1.36 4.223-13.49 4.223-13.49l15.258-1.952c1.335-.176 2.352-1.347 2.293-2.72-.067-1.45-1.294-2.574-2.743-2.515v.005z"/><path d="M18.214 36.128l.012.066c-.008-.062-.012-.07-.012-.066zM62.468 67.02c-1.242 0-2.25-1.01-2.25-2.25V26.405l-17.48-6.157c-.61-.215-1.098-.684-1.34-1.282L37.148 8.4 10.316 4.474c-1.23-.18-2.078-1.324-1.903-2.55.18-1.23 1.32-2.08 2.55-1.903L39.077 4.14c.793.117 1.46.645 1.762 1.387l4.35 10.82 18.022 6.35c.898.316 1.5 1.17 1.5 2.12v39.96c0 1.24-1.007 2.25-2.25 2.25l.004-.003zM9.312 28.957c3.7.21 6.902-2.805 7.004-6.598.1-3.8-2.887-6.98-6.598-7.02-3.688-.04-6.832 3.12-6.816 6.85.015 3.56 2.863 6.56 6.41 6.765z"/></g></svg>