<svg xmlns="http://www.w3.org/2000/svg" width="1121.048" height="1408" viewBox="0 0 1121.048 1408"><path fill="#5C5E62" d="M861.234 1060.065c-71.42 0-136.126 38.648-183.086 101.126 50.085 44.658 73.916 128.22 57.98 246.81h384.92c-.06-192.2-116.317-347.935-259.844-347.935h.03z"/><path fill="#5C5E62" d="M572.85 1189.287c-90.152 0-163.23 97.922-163.23 218.713h326.477c0-120.75-73.11-218.713-163.26-218.713h.014zm399.124-1103.1V0h-218.31v86.188H612.86l.238 40.29h-.06v582.048l69.267 90.974V181.867h74.514V960.48h69.28V181.867h74.693V960.48h69.267V181.867h79.54v844.095l71.418 83.384V86.188"/><path fill="#5C5E62" d="M572.79 807.17H242.606L205.976 1408H338.2c0-173.257 105.253-314.293 234.666-314.293 16.94 0 33.4 2.503 49.337 7.11l5.68-7.41c17.045-22.708 35.733-42.333 55.468-59.234V960.56L572.808 807.17h-.015zm-417.213-98.244c0 38.248-23.13 69.287-51.804 69.287-28.6 0-51.73-31.04-51.73-69.287 0-38.328 23.13-69.287 51.73-69.287 28.705 0 51.82 31.037 51.82 69.285h-.016zM0 573.996V1408h205.333V573.997l-103.52-338.783L0 573.997z"/></svg>