<svg xmlns="http://www.w3.org/2000/svg" width="42.62" height="36.078" viewBox="0 0 42.62 36.078"><path fill="#FFF" d="M12.718.828c-.3 0-.523 0-.75.148l-10.425 6.3c-.45.302-.75.75-.825 1.275-.074.526.075 1.05.375 1.5l18.75 23.03c.676.898 2.176.898 2.852 0L41.37 10.055c.302-.45.45-.9.376-1.426-.074-.526-.375-.98-.824-1.276L30.496.98c-.227-.148-.45-.148-.75-.148h-.226L12.718.828zm8.552 33.676c-.824 0-1.5-.375-2.023-.977L.57 10.43C.12 9.828-.105 9.078.047 8.328c.148-.75.523-1.352 1.2-1.8L11.67.225C12.047 0 12.422 0 12.797 0h17.027c.375 0 .75 0 1.125.226L41.372 6.6c.602.376 1.05 1.052 1.2 1.728.147.75-.075 1.5-.524 2.023L23.297 33.53c-.527.602-1.277.977-2.027.977z"/><path fill="#FFF" d="M.195 8.328h41.25v.75H.195z"/><path fill="#FFF" d="M25.77 9.152l-4.5-7.5-4.5 7.5-4.876-8.023.676-.378 4.2 6.972 4.5-7.5 4.5 7.5 4.125-6.97.675.374"/><path fill="#FFF" d="M21.27 36.078L16.395 8.476l.75-.148 4.125 23.398 4.125-23.398.75.148"/><path fill="#FFF" d="M21.27 34.727L7.32 9.152 11.445.527l.676.3-3.974 8.325 13.126 24 12.3-24L30.345.828l.676-.3 3.376 8.698-.075.153"/></svg>