<svg xmlns="http://www.w3.org/2000/svg" width="74.602" height="75" viewBox="0 0 74.602 75"><path fill="#58BCB4" d="M43.797 12.414c.578-.05 1.172-.086 1.543-.344-.945-.027-1.328-.617-2.06-.86 0 .58.556.59.517 1.204zm-9.254 4.636c0-.093-.14-.195-.172 0 0 .098.145.196.175 0zm4.105-9.43c-.328-.07-.31-.49-.86-.343 0 .618.607.852.86.343zm3.297 46.11c.203-.023.488.03.516-.172-.2.024-.484-.03-.513.172zm-7.23-35.476c.066.41-.312.37-.168.855.62.35 1.242.32 1.71.164.01-.636-.765-.496-1.37-.51.285-.537-.637-.833-.172-.513zm.512-2.23c-.16.39-.012.55-.172 1.195.816.265.992-1.33.172-1.2zm3.29 37.196c.276.167.394.456.17.683.485-.14.446.238.856.168.078-.7 1.46-.285 1.54-.512-.48-.367-1.794-.817-2.567-.336zm-2.26-33.255v.344h.517c.023-.31-.172-.407-.516-.347z"/><path fill="#58BCB4" d="M36.94 16.19c-.2.146-.455.228-.854.177.12 1.028-.613 1.21-.855 1.887.74.207.636-.04 1.375.168-.324-.754.434-.72.51-.856.1-.175-.096-.51 0-.683.287-.512 1.178-.914 1.197-1.547-.76-.52-2.28-.23-2.57.69.36.095 1.128-.214 1.2.164zm7.365-8.06c.703.065 2.066.194 2.055-.345-.28-.484-.363.12-.684.172-.816.13-1.918-.418-2.57.004.35-.13.734.13 1.2.17zm21.78 11.124c-.194.02-.27-.254-.343 0 .004.172.3.22.344 0zm-.855 3.77c-.305.05-.53-.805-.684-.34.16.09.57.77.684.34zm.86-.516c.05-.102.426-.66 0-.684-.055.106-.43.66 0 .684zM18.61 27.69c.37.376.082 1.408.52 1.716.093-.734-.087-2.082-.52-1.716zM32 51.336c.203-.082.387-.184.516-.34-.23-.027-.945.27-.516.34zm9.93-16.98c.203-.024.488.03.516-.168-.207.027-.49-.032-.516.167zm-23.672-15.92c-.2.028-.488-.027-.512.17.203-.025.49.034.512-.17zm17.348 35.64c.133-.04.336-.007.34-.17-.133.04-.336.007-.34.17zm-1.226-29.65c-.184.176-.356 1.222 0 1.37.148-.257.433-.37.86-.343.04.188.28.41.342.172-.386-.418-.69-.914-1.202-1.2zm-1.524 26.738c.21.02.406.05.343.344.922-.184.89.465 1.754.34.106.355.727.652.727.516v.512c1.016-.105 1.493.215 1.673-.172-1.282-.496-2.375-1.1-3.535-1.715-.3.1-.938-.2-.965.172zM49.106 8.64c-.134.04-.34.008-.345.17.138-.037.348-.005.347-.17zM46.2 18.242c.202.024.386.305.515 0-.184-.332-.79-.238-1.027-.515.352-.094.348-.016 0-.168-.28-.13-.13-.86-.516-.86.105-.01.203-.027.168-.176-.57-.168-.94-.543-1.543-.683-.004-.17.238-.206.27-.343-1.227-.083-1.114-1.364-2.13-1.71v.854c-1.016-.62-1.398.2-.957-.683-.895-.093-1.574.08-1.418 1.028-.398.38-.484.153-.883.344-.176.226-.18.636-.53.687-.126.464.336.343.336.683-.225.35-.713.435-.86.857.413.095.378.642.51 1.025 1.892-.727 2.396 1.055 3.087 2.06.136-.4.805.084.855.338-.575-.172-.563.24-.517.684.65.246.33-.473.86-.344-.04.324.19.38.17.684-.002.34-.467.22-.34.687.557.975 1.483 2.346 2.404 3.084.472.375 1.433.164 2.058.34-.453-.918-.297-2.445-1.03-3.086.233-.34.343-.796.854-.858-.036-.536.112-1.26-.173-1.544.363-.494.758-.955.684-1.89-.605.068-.89.35-.855-.5l.004.002zm-7.54 4.465c.32-.328-.102-.31 0-.855-.352-.504-1.344-.372-1.375-1.2-.622-.062-1.684.317-1.372-.683-.777-.15-.398.85-1.027.85-.254-.542.785-1.02 0-1.026-.176.398-.59.555-.512 1.203.227.745.715.89 1.203 1.022.14.04.684.17.684.17.06-.01.188-.417.348-.342.628.3.437 1.11 1.2 1.37-.063.74-.278 1.32-.685 1.716-.503-.196-.635-.102-.855.343 1.847-.414 2.21 1.56 3.43 1.2-.238-.176-1.016-.676-.688-.856.53-.02.487.54 1.2.345.08-.893-1.498-1.01-.86-1.89.405.056.32.6.86.517.197-.203.19-.61.166-1.032-.603-.25-1.334-.382-1.713-.86v.002z"/><path fill="#58BCB4" d="M37.12 23.273h-.342v.317c.113 0 .226.012.343.012v-.33zM46.043 34.7c-.09-.466-.137-.427-.344-1.028-.5.226-.848-.004-1.2-.34-.105-.31.5-.715-.007-.86-.16.704-.578 2.044-.34 2.575.188-.348 1.324-.2 1.54 0 .147-.5.257-.195.687-.176.013-.32-.13-.36-.34-.17zM49.8 19.098c-.06.62-.55.82-.34 1.714 1.407.915 1.974-1.902.34-1.714zm6.86 2.562c-.473.434.13.7.172.856.035.132-.215.257-.172.34.09.175.465.273.688.515.21.235.074.66.515.52.227-1.367-.59-1.696-1.203-2.227zm2.4-.86c-.638-.222-2.134-.3-2.57-.167-.173-.34-.298-.73-.688-.86.125.282-.34.747-.344.344-.008-.1-.023-.2-.172-.172.168 1.12 1.21.95 1.715 1.37.04-.13.008-.338.176-.338.305.265.914.226.688 1.027.552-.152.36.445.69.512.034-.192.19-.266.34-.34-.02.242.296 1.12.17.683.378-.687-.107-1.17 0-2.06h-.002zm-1.205-3.253c-.527.125-.328-.473-.86-.344-.05.535.798.918.86.344zm-25.37.023c-.336-.05-.34.23-.516.344-.24-.22-.078-.844-.52-.855-.04.13-.144.195-.343.17.02.423.32.53.002.853.457.004.976-.066 1.2.172.053-.235.245-.332.172-.687zM31.45 7.457c.304-.098.71-.09.855-.344-.34-.36-.73-.004-.856.344zm-.508 9.426c.218-.535.816.375.855-.344-.234.004-.38-.08-.516-.176.04.235-.984.227-.336.517zm2.918 1.883c-.004.093.136.19.17.004 0-.098-.14-.2-.17-.004zm-3.43-.508c.04-.61-.246-.9-.856-.86-.117.625-1.128.364-1.03 1.2.945.203.937-.543 1.886-.34zm3.254-.52c-.324-.04-.375.196-.684.176-.04.32.192.375.172.684.535.074.547-.368.512-.86zm-.508 1.542c-.648-.245-.328.474-.855.345.097.305.09.71.347.855.043-.238.375-.195.512-.343-.12-.524-.12-.325 0-.856zm.512.857c.105-.176.715.023.683-.688h-.68c.235.39-.44.64 0 .685zm.34-3.257c.01-.294-.13-.44-.34-.513.015.27-.028.594.34.512zm-3.598 1.83h-.856c-.605 1.017-.054.85.168 1.485-.484.14-.44-.398-.855-.328.055.403.207.87.344.87h1.375c.183 0 .05.763.51.642.25-.098.42-.207.517-.45-.996-.59.527-1.55.168-1.97-.277.564-1.27-.25-1.367-.25z"/><path fill="#58BCB4" d="M61.984 61.94c-1.734 1.74-3.625 3.267-5.633 4.58.785-.806 1.535-1.638 1.72-3.036.956-.582 1.35-1.734 2.222-2.406-.027-.523.406-.965 0-1.367-.54-.082-.387.53-1.027.34-.402-.05-.645-.262-1.2-.164-.585.556-1.647.64-2.397 1.03.066-.694-1.07-.187-1.543-.34-.37.142-.38.65-.856.685.01-.22.22-.24.17-.516-.414-.07-.375.312-.855.172-.016.344-.477 1.1-.855.516.1-.635.784-.7.854-1.37-.54.024-.59-.44-.688-.855-1.442-.78-2.875.31-4.457-.168-.045-.735-1.02-.735-1.545-.517-.067-1.11-1.016-.262-1.37-1.023-.77.742-1.82.285-2.915.512-.323-.36-.843-.528-1.37-.68.05.45-.36.44-.684.515-.188.438.52.816 0 1.027-.707-.174-.547-1.51-.004-1.713-.822.32-1.4.887-2.57.86.014.808-.623.976-1.026 1.37-.398-.29-.722-.65-1.2-.86-1.257.785-2.878.09-3.085-1.19.208-.6.314-1.29.34-2.06-.296.01-.436-.132-.515-.343-.88-.203-2.21.043-2.746-.512.566-.124.13-1.495.86-1.456-.13-.868.467-.958.51-1.974h-1.886c.098 2.028-1.14 1.517-2.398 1.466-.324-.31-.59-.336-.824-.73-.686-1.165-.815-2.777.2-3.984V46.54c0-.26 1.23-.278 1.51-.86.424.266 1.014.26 1.615.34-.062.542.89.766.977.172-.203-.027-.512.027-.54-.172.76-.574 1.62.367 2.216-.004.277.238.535.484.847.684.035-.254.41-.156.688-.172.75.79.26 2.828 1.544 3.086.65-1.425-.806-2.675-.35-3.945.92-1.027 2.945-1.46 2.91-2.918-.24-.22-.105-.812-.344-1.027.275-.03-.28-.816.513-.688-.27.257-.13.702.17.86.32-.33-.102-.314 0-.86.173-.005.345-.005.517-.005-.327-1.41 1.067-1.105 1.712-1.547-.24-.54-.04-.57-.005-1.2.997-.293 1.767-1.62 2.743-1.37-.195.46-1.06.76-.34 1.202.258-.258.305-.723.688-.86.497-.222 1.91-.855 1.028-1.37-.023.32-.113.57-.344.683-.54.27-.75-.093-1.37-.17-.01-.56-.3-.843-.685-1.023.105-.352.867-.05.684-.688-1.64-.21-1.71 1.143-2.744 1.545.312-.66.746-1.196 1.2-1.716.112 0 .23 0 .34.004.026-.203-.032-.488.17-.515.618-.298 1.435-.4 2.4-.345.245-.33.65-.493.687-1.028.417-.098.882-.15.854-.684-.008-.22-.22-.238-.172-.516-.933-.437-1.875-.867-2.57-1.54-.11-1.034-.832-1.456-1.375-2.057.075.76-.284 1.088-.854 1.2-.324-.42-.875-.61-.688-1.542-.762.134-.69-.56-1.03-.854-.7.14-.59.027-1.372.003-.172.57.378 1.863-.34 1.886.277.64.69 1.14.515 2.23-.3.157-.5.415-.853.516-.082 1.182.496 2.053-.687 2.225-.426-.657-.87-1.298-.688-2.57-1.633.045-1.988-1.75-3.086-1.712.137-.707-.074-1.067-.512-1.2-.004-1.007.887-1.675 1.54-2.23.206-.176.363-.11.515-.344.34-.51.31-.12.854-.346.313-.425.356-1.13.856-1.367.12.535.46.223.857.168.32-.327.02-.43 0-.854.418-.343.333-.796-.343-.855-.298.446-.33 1.156-.857 1.37-.195-.202-.195-.604-.172-1.03-.55.04-.417-.61-.686-.855.55-.04.185-.91-.174-1.026-.578.57.09 2.532-1.2 2.055-.116-.62.91-.467.345-1.03-.63-.002-.19 1.068-.854 1.03-.684-.177-.72-.997-1.37-1.2-.34-.05-.34.23-.517.343-.32-.367-1.063-.308-1.204-.855.004-.227.3-.156.344-.34-.145-.156-.426-.35-.516-.515-.11-.204-.024-.524-.173-.684-.21-.235-.38.06-.512 0-.496-.243-.016-.673-.172-.857-.104-.126-.323.062-.343-.168-.02-.27-1.222-.33-1.543-.684.386-1.252-.427-1.95-.005-3.43-.132-.033-.2-.14-.172-.342-.295.01-.44-.133-.514-.34-.64.355-.45-.246-1.2-.17-.244.5-.62.87-1.2 1.03-.1-.548.32-.53-.005-.86-.924.007-.72.984-.854 1.37-.17 0-.202.14-.34.176-.64.18-.272-.65-.86-.516-.557.093-1.065.3-1.37.686-.113.14-.15.527-.245.687-.063.1-.762-.003-.762.17v1.2c0-.01-.29.04-.438.176-.218-.235-.687-.106-.906-.34.007-.184-.02-.434-.11-.168.16.753 1.35.507 1.746 1.022.395-.237 1.786-.717 2.07-.002-.507.003-1.034-.016-1.02.515.3.102 1.013-.207 1.033.172-.06.862.046 1.554.343 2.058-.25.324-.51 1.535-.34 1.71.034-.19.19-.265.343-.34-.06.606-.473.423-.172 1.028-.55-.15-.534.268-.687.518.134.04.34.004.345.172-.59.47.16 1.21-.684 1.37.036.8-.35 1.343-.34 2.054.016 1.062.993 2.105.004 2.913-.355-.044-.043-.76-.52-.688-.23 1.366-1.105 2.09-1.882 2.913.012.523-.156.87-.512 1.027-.296.78.07 1.978-.17 2.23-.207.22-.128 1.127-.17 1.89.28.502.706.823.86 1.542.17.804-.123 1.757.002 2.57.074.468.46.803.344 1.194-.016.273-.438.136-.34.52.195.37.574.565.687 1.022-.29 1.073.33 1.554.69 2.397.196-.707-.36-.665-.343-1.2.227-1.855-1.277-3.523-.344-4.973.047.353.465.337.516.69l.002 1.37c.3.957.875 1.637.855 2.91.687.747 1.042 1.82 1.374 2.914.087.54-.303.605-.167 1.2 1.223 1.577 2.72 2.878 4.633 3.77 1.55-.243 1.737.886 2.398 1.538 1.062.082 1.29 1 2.574.855-.088 1.112 1.28.772 1.025 2.054 1.026-.23.862.742 1.542.86.313-.146 1.285.835 1.715.51-.47-.31.578-.55.855-.687.56.813 1.266 1.478 1.028 3.087-.324.07-.31.49-.856.345-.03.48-.298.73-.856.69-.004.51-.446.58-.516 1.025.11.29.52.28.688.516-.03.544-.92.22-.855.856.31.66.978.966 1.544 1.367.42 1.016 1.42 1.44 1.888 2.398 1.064.364 2.467.39 3.264 1.024-.004.17.137.206.168.343.12.305-.132.57-.167.684-.082.25-.077.657-.168.856-.032.065-.087.13-.153.187-.805.055-1.402.094-2.215.094l.175 1.21v-1.21c-19.777 0-35.07-15.632-35.086-34.843C2.62 21.97 12.49 8.897 26.316 4.242c-.183.4-.413.8-.812.984-.86.282-1.22 1.094-2.254 1.204-.08.54.518.386.334 1.03-.304.153-.44.477-1.035.34-.19.438.736.602.166.86-.89-.082-.94-1.008-1.202-1.715-.816.152-1.762.187-2.227.69.4.118.59.438.857.688.684.043 1.207-.433 1.543.168-.332.36-.375 1-.856 1.2.06.577.5.76.346 1.545.485-.027.715-.316 1.2-.343-.27.61.58.106.515.516-.3.496-.91.692-1.2 1.2.55-.15.533.27.86.34.76-1.356 2.38-1.852 3.083-3.262-.203-.024-.484.035-.512-.168.697-.332 1.107-.954 1.71-1.375.99.133 1.15-.562 1.717-.86.984.126 1.26-.452 2.058-.514.297-.35-.13-.34.172-.69.676-.007.824-.546 1.367-.683.64-.183.27.64.86.516.855.167.84-.536 1.542-.517.43.372 1.023.05 1.37-.003.168-.024.215.19.344.17.2-.034.65-.713.684-.174-.25.38-.918.34-1.028.863.352.46.786-.078 1.028-.004.078.022.012.546.344.34.527.13.328-.47.855-.34 1.133.19 1.69-.27 2.398-.35.244-.03.64.09.857-.003.246-.105-.02-.078.004-.17.203-.916.828.647 1.2 0-.03.038-.26-.173-.005-.173.452-.053.136.666.687.51.14-.67 1.464-1.56 2.057-.684-1.31-.165-1.606.682-2.228 1.202.56-.008.85-.29 1.542-.172.203-.258.148-.765.688-.687-.008.52.363.663.516 1.026 1.78-.19 1.71 1.483 3.43 1.362.238.105.027.66.344.687.566-.465.93 1.13 1.71.51.24.106.027.66.345.684 0-.172.302-.21.345 0-.004.172 0 .344 0 .512-.59-.074-.96.07-1.37.176.296-.42-.025-1.374-.69-1.37-.565.144-.74 1.32-.51 1.714-.43-.02-.54-.328-.684.172.302.042.392.296.34.683.442.086.45.57.69.855.132.16.776.203.515.688.205.1.424-.202.518-.17-.025-.013 1.38 1.034 1.373 1.022.804.77 1.694 1.54 1.89 2.575.723.186 1.28.542 2.055.682.45-.5-.496-.648-.344-1.375.6-.02 1.57.473 1.89.172-.3-.045-.39-.3-.344-.686-.895-.195-1.254-.92-2.06-1.2-.284.005-.573 0-.858.005-.485-.43-1.02-.81-1.372-1.37-.692-.053-1.234-.256-1.2-1.03 1.392.153 1.67 1.42 3.258 1.368.013-.61-1.01-1.337-.17-1.716.183.56.593.89.687 1.543.763-.145 1.56.238 1.028.855.723.25 1.38.563 1.72 1.2-.356.64.296.843.343 1.543-.32.324-.02.43.005.855-.257.03-.65-.058-.702.176.228.17.67.16.67.51v.856c1.015-.004.315.59.362.684.12.265.87.508.523 1.03.23.165.348.454.52.68-.082.657.05 1.094.344 1.372-.242.062-.582.875-.17 1.027.31-.626.627-.364 1.37-.34.25.61.91.804 1.034 1.542-.323.817-1.144 1.137-1.026 2.4 1.136.35 1.124 1.85 2.23 2.225.042-.433.503-.715.854-.344-.073-.703.157-1.097.34-1.543-.35-.906-.772-1.738-1.202-2.57.13-.988-.515-1.2-.687-1.883.293-.828.08-1.51-.17-2.23.913-.03 1.64-.293 2.4-.856-.64.18-.338-.577-.69-.686-.434 1.004-2.02.85-2.227-.336.402-.055.707-.336 1.027 0 .126-.39.704-.516 1.044-.688.41.16.203.692 1.387.516v-.54h-1.23c-.03-1.016-.373-.93-.514-1.7.617.012.828.344 1.37.434.04-.333-.065-.555-.175-.74.868 1.18 1.665 2.4 2.384 3.685-.04.205-.098.39-.15.59.255.77.92 1.13 1.032 2.05-.11 1.014-.66.522-.684 1.022-.38.138.03 1.06-.686.856-.304-.497-.457-1.145-1.2-1.2.286 1.543-.675 3.164-.335 5.313-.403.114-.13.9-.856.684-.027.542.453.573.344 1.202-.2 1.63.445 2.414.86 3.426.144.646-.294 1.1-.34 1.888-.095 1.535.35 3.34.343 4.453.548.446.915 1.095 1.03 2.06.06.476-.096 1.074.006 1.543.03.148.656.426.345.855.56-.2 1.563-.02 1.716.685.484-.146 1.06-.2 1.543-.345.28-.95.66-1.8 1.007-2.684-1.144 7.232-4.506 13.892-9.772 19.16l-.01.007zM37.266 0C16.7.02-.02 16.97 0 37.535.016 58.082 16.746 75 37.297 75h.035c9.965 0 19.328-4.098 26.367-11.148 7.04-7.05 10.91-16.52 10.9-26.484C74.58 16.82 57.85 0 37.263 0z"/></svg>