<svg version="1" xmlns="http://www.w3.org/2000/svg" width="56.215" height="74.799" viewBox="0 0 56.215 74.799"><path fill="#7D7D7D" d="M11.016 7.285c-1.707 0-3.098 1.387-3.098 3.098 0 1.703 1.39 3.098 3.098 3.098 1.71 0 3.1-1.392 3.1-3.095 0-1.71-1.393-3.098-3.1-3.098z"/><path fill="#7D7D7D" d="M11.016 15.54c-2.848 0-5.16-2.313-5.16-5.16 0-2.85 2.312-5.16 5.16-5.16 2.848 0 5.164 2.31 5.164 5.16 0 2.847-2.316 5.16-5.164 5.16zM7.004 3.12V0h-3.44v3.12H0v14.517h9.707v10.79c0 .792.645 1.436 1.434 1.436.796 0 1.436-.644 1.436-1.437v-10.79h9.45V3.122H7.006zM5.082 43.668L2.13 41.914c-.782-.414-.942-1.008-.48-1.793l5.53-9.55c.414-.783 1.008-.943 1.79-.482l2.952 1.758c.778.406.938 1.008.48 1.785l-5.527 9.56c-.414.78-1.01.936-1.793.48zm8.95 9.5l.07 8.465c0 .46-.094.895-.278 1.305l-4.92 10.29c-.595 1.24-1.63 1.745-3.1 1.52-.874-.143-1.558-.544-2.062-1.212-.507-.66-.687-1.43-.55-2.3.047-.278.16-.626.343-1.036l4.438-9.32-.207-13.69c-.047-1.007.14-1.854.566-2.546l6.274-10.796c1.238-2.12 3.094-3 5.57-2.633 1.418.23 2.52.8 3.297 1.72l5.637 6.815 7.426 2.2c1.102.366 1.65 1.124 1.65 2.272 0 .645-.228 1.215-.69 1.723-.456.504-1.007.75-1.65.75-.185 0-.395-.047-.618-.137l-8.602-2.48c-.37-.137-.644-.344-.824-.617l-2.273-2.89-4.546 7.916 7.156 3.238c.96.414 1.53 1.145 1.72 2.2l1.58 9.976c.14 1.015-.17 1.87-.93 2.585-.756.707-1.64.997-2.65.855-1.465-.228-2.292-1.036-2.473-2.407l-1.31-8.258-8.046-3.507z"/><path fill="#7D7D7D" d="M56.215 33.03v39.205c0 .637-.22 1.47-.656 1.902-.44.438-.976.656-1.616.656h-36.13l-.136-2.773 14.796-3.64.55-4.134 7.802-3.133 1.1-3.51-2.5-8.64 4.196-8.77 12.59-7.162zm-26.66-6.73c0 6.184-9.28 6.184-9.28 0 0-6.187 9.28-6.187 9.28 0"/></svg>