<svg xmlns="http://www.w3.org/2000/svg" width="52.113" height="66.985" viewBox="0 0 52.113 66.985"><path fill="#58BCB4" d="M4.75 43.797c.1.078.21.148.316.22.047.03.094.06.145.09.11.065.218.132.33.194l.14.078c.37.19.76.352 1.18.473.05.016.1.035.15.047 0 0 0-.004.008-.004 1.344.36 2.922.317 4.778-.354 1.328-.48 2.066-1.49 2.465-2.583l.01-.03c.09-.25.165-.51.224-.763.312.052.64.087 1.008.087.494 0 1.045-.06 1.635-.19.078.676.058 1.945.078 3.1.008.498.454.76.93.768.047 0 .094 0 .137-.008.41-.064.776-.436.804-.88.328-5.55-1.063-6.42-1.29-6.614-.226-.195-.534-.274-.82-.23-.175.026-.347.1-.484.226-.36.324-.328.836-.09 1.266.055.1.145.226.305.636-.828.184-1.46.164-2.008.074.003-.145.003-.285 0-.414v-.008c-.01-.297-.024-.555-.044-.754 0-.007 0-.01-.004-.02l-.03-.3v-.016c-.005-.027-.01-.05-.01-.066v-.016c0-.012-.003-.023-.003-.023s0-.01-.005-.022c0-.01 0-.01-.003-.013 0-.02-.007-.047-.01-.086 0-.004 0-.008-.005-.01-.008-.037-.016-.08-.028-.127 0-.007-.004-.01-.004-.02-.01-.05-.027-.104-.046-.167l-.012-.035c-.04-.13-.094-.273-.172-.43l-.02-.042c-.04-.08-.082-.157-.132-.24l-.024-.034c-.047-.078-.1-.152-.16-.23l-.023-.03c-.062-.083-.132-.165-.206-.243l-.053-.05c-.078-.08-.164-.163-.262-.24-.004-.005-.008-.005-.008-.01-.094-.073-.195-.147-.3-.214-.024-.016-.044-.027-.067-.043-.11-.07-.23-.133-.356-.195-.024-.013-.047-.02-.07-.032-.122-.055-.247-.105-.384-.152-.017-.008-.04-.016-.06-.023-.15-.046-.31-.09-.477-.13l-.117-.02c-.176-.036-.355-.067-.554-.087-.015 0-.03 0-.046-.004-.184-.016-.383-.023-.59-.027-.028 0-.055-.004-.082-.004l-.06.003c-.214 0-.44.012-.682.027-.047.003-.098.01-.145.015-.22.023-.45.05-.69.086l-.134.02c-.27.05-.55.104-.843.17-.066.017-.137.03-.207.048-.31.074-.625.156-.96.258-.23.07-.462.125-.688.176-.08.017-.153.028-.23.044-.15.028-.302.055-.45.078-.09.012-.176.023-.266.03-.14.017-.27.028-.405.04-.09.008-.176.012-.262.016-.133.006-.26.01-.39.01-.094 0-.188.004-.282.004-.042 0-.085 0-.124-.004-.144-.003-.29-.007-.43-.015-.023 0-.042-.004-.066-.004-.16-.01-.316-.02-.47-.037-.034-.004-.065-.008-.096-.008-.125-.016-.242-.027-.36-.047l-.09-.012c-.136-.02-.273-.043-.398-.066-.015 0-.027-.006-.04-.01l-.323-.06c-.027-.01-.055-.015-.082-.018-.1-.023-.2-.047-.29-.066-.01 0-.014-.004-.02-.004-.1-.023-.19-.047-.27-.07-.02-.008-.04-.012-.056-.016-.062-.016-.12-.035-.176-.05-.01-.005-.028-.01-.04-.013-.058-.02-.113-.035-.156-.05-.007-.005-.015-.005-.026-.01l-.078-.026c-.01-.004-.02-.008-.027-.008-.01-.01-.02-.013-.02-.013s0 .012.005.027c.004.008.004.016.004.027l.01.056c.004.02.01.04.012.066.007.02.01.043.02.066l.022.1c.005.022.013.046.017.07.02.09.047.19.074.31l.013.045c.015.062.03.125.05.19l.024.087.063.22.023.08c.023.087.05.17.078.26 0 .007.005.015.01.02.092.304.206.64.335 1l.022.058c.04.11.083.224.13.34.008.024.016.048.027.067.2.504.433 1.04.706 1.578l.025.043.2.374c.01.023.026.047.038.07.07.13.145.254.22.383l.003.004c.243.4.51.8.798 1.183.015.02.027.04.043.055.087.11.176.222.266.33.025.028.048.06.075.088.095.107.19.213.287.314.016.016.03.03.047.05.31.33.65.635 1.008.907.036.03.07.062.106.087z"/><path fill="#58BCB4" d="M23.25 40.352c-.887.027-1.957 1.09-1.825 2.223.165 1.41-.1 2.44-.53 2.88 1.105.105 1.718-1 1.722-1.01.277-.577.855-.944 1.39-.577.356.242 1.208.867.282 1.96-.145.17-2.016 2.38-5.81 2.134-3.167-.207-3.32-1.527-3.585-1.867-.586.676-1.35.953-2.34 1.312-1.25.453-2.582.496-3.742.496-.933 0-2.598-.43-3.308-.98C2.138 50.777 5.7 58.48 7.1 60.863c3.47 5.918 7.65 6.758 9.922 5.55 1.313-.694 1.766-.163 2.77.07 9.18 2.11 13.125-9.295 13.61-15.444.237-2.977-.958-11.9-10.153-10.69zM39 6.656l.47.055c0-.02 0-.03-.005-.05L39 6.66z"/><path fill="#58BCB4" d="M39.375 17.324c.016-.293.03-1.05.047-1.34.195-3.578.172-5.707.047-9.273-.17-.02-.33-.03-.47-.05h.462c0 .02 0 .03.004.05.784.086 1.772.172 2.205.172.537 0 1.873-.13 2.68-.227-.014.442-.025.746-.037 1.192-.05 2.07-.062 2.738-.027 4.812.023 1.4.066 3.27.16 4.667H39.37h.003zm7.808 5.508c-.36-.242-.535-1.02-.648-1.47-.242-.96-.36-1.956-.457-2.944-.242-2.453-.293-4.926-.305-7.387-.008-1.824.016-2.25.066-4.074.004-.156.01-.312.012-.47.012-.03.03-.085.07-.163.137-.276.273-.56.38-.86.265-.74.808-1.432.55-2.19C46.75 2.953 46 .985 45.61.69 45.362.5 42.983 0 41.686 0c-1.3 0-3.23.5-3.477.688-.39.296-1.14 2.265-1.25 2.582-.257.757.28 1.45.55 2.19.108.298.24.58.38.86.04.078.06.133.07.164.005.082.01.164.01.25.02.664.035 1.325.05 1.99.044 2.28.044 3.163-.026 5.444-.07 2.262-.156 4.574-.617 6.797-.122.574-.255 1.324-.646 1.777-.257.293-.827.59-1.182.88-.697.562-1.307 1.226-1.854 1.933-1.086 1.398-1.832 2.1-1.992 4.808v9.008c.77.5 1.422 1.098 1.973 1.758.026-1.984-.07-5.992.07-5.805h16.39v16.665H36.242c-.48 3.434-1.723 7.723-3.88 11.2.017.046.032.09.052.132.238.54.68 1.49 1.1 1.91.446.433.943.59 1.517.79 1.3.447 2.62.717 3.988.84 3.235.29 7.008.143 10.082-.947.55-.19.89-.362 1.31-.784.45-.44.87-1.04 1.11-1.61.404-.97.593-1.907.593-2.017V29.92c-.36-3.828-2.52-5.55-4.93-7.086z"/></svg>