<svg xmlns="http://www.w3.org/2000/svg" width="52.469" height="74.945" viewBox="0 0 52.469 74.945"><g fill="#58BCB4"><path d="M44.138 6.082c0 3.36-2.72 6.082-6.082 6.082-3.355 0-6.078-2.723-6.078-6.082S34.7 0 38.056 0c3.363 0 6.082 2.723 6.082 6.082zm6.79 25.594l-9.915-3.53-4.45-12.216c-1.105-2.133-2.883-3.618-4.98-4.004-4.918-.918-6.633 4.695-6.633 4.695L21.29 32.01l10.387-6.06-.945-2.038c-.207-.446-.012-.97.43-1.173.44-.21.97-.015 1.176.43l1.238 2.676c0 .01.008.013.012.016.012.01.012.026.016.04L36 31.06l.237.49c.14.272.645.792 1.117.983l9.63 3.676-6.15 10.573-8.06-7.57 1.612-7.414-1.96-4.238-11.7 6.825L16.2 53.4l-9.588 15c-.356.5-.536 1.094-.536 1.805-.14 1.2.18 2.242.957 3.133.774.883 1.77 1.395 2.973 1.54 1.77.136 3.113-.57 4.03-2.126L24.266 56.7c.21-.43.492-1.024.85-1.813l2.033-8.562 9.45 7.755-11.176 19.2c-.305.528-.125 1.208.398 1.513.176.105.363.152.555.152.382 0 .753-.2.956-.55l9.543-16.41-.013 13.01c.43 2.056 1.738 3.19 3.93 3.4 1.203.07 2.246-.282 3.133-1.063.885-.785 1.36-1.738 1.43-2.867v-.957L45.28 53.28c0-1.28-.296-2.555-1.112-3.37l-1.666-1.57 6.652-11.446c1.766.106 3.04-.898 3.293-2.648.165-1.156-.603-2.22-1.52-2.566l-.002-.004z"/><path d="M17.212 20.066l-9.53-2.382 1.93-7.996 1.592.382-1.55 6.414 6.367 1.59 1.606-6.347 1.59.398-2 7.94h-.002zm-.57-18.504C11.832.395 7.005 3.352 5.845 8.148L1.947 24.262l13.117 3.258-.43 1.738L1.53 26 .26 31.25c-.935 3.844.68 5.707 4.53 6.7.563.148 6.72 1.565 9.176 2.132l-.973 3.895c-.148.594.215 1.207.813 1.355.094.023.387.086.48.086.5-.004.95-.344 1.075-.848l7.876-32.21c1.156-4.805-1.79-9.637-6.59-10.798h-.002z"/></g></svg>