<svg xmlns="http://www.w3.org/2000/svg" width="44.522" height="67.283" viewBox="0 0 44.522 67.283"><path fill="#7D7D7D" d="M15.817 30.71l.082.047c.412.29.92.457 1.47.453.74-.007 1.41-.36 1.87-.87l1.943-1.966c-.62 3.614-1.055 6.91-1.34 9.348l-4.03-7.012zM1.86 25.92l7.636 15.34-7.082 21.53c-.51 1.9.62 3.858 2.524 4.37 1.906.512 3.86-.62 4.37-2.523l6.364-18.922 6.258 18.88c.512 1.9 2.465 3.034 4.37 2.522 1.903-.512 3.036-2.47 2.523-4.37l-6.91-21.075c.337-3.94 1.1-10.122 2.356-16.418l.75-.757c.77-.938.81-2.286.1-3.204 2.09-8.89 5.2-17.12 9.53-18.593 2.226-.758 4.823.48 7.714 3.683.456.508 1.242.547 1.746.086.51-.467.548-1.248.088-1.75-3.62-4-7.1-5.47-10.35-4.36-4.556 1.544-8.267 8.27-11.05 19.993-.61.086-1.19.39-1.61.906l-4.27 4.293-5.26-2.953v.006c-.4-.223-.866-.352-1.36-.352-.07 0-.14.008-.21.012l-6.59.812c-1.005.195-1.76 1.078-1.76 2.136 0 .25.044.485.12.707zm7.746-8.792c0-2.652-2.15-4.804-4.805-4.804-2.65 0-4.8 2.148-4.8 4.804 0 2.653 2.15 4.805 4.8 4.805 2.66-.004 4.81-2.152 4.81-4.805z"/></svg>