<svg version="1" xmlns="http://www.w3.org/2000/svg" width="60.106" height="74.012" viewBox="0 0 60.106 74.012"><path d="M39.965 9.953c-5.625 0-10.184 4.56-10.184 10.184 0 5.62 4.56 10.18 10.187 10.18 5.62 0 10.184-4.56 10.184-10.18 0-5.625-4.563-10.184-10.184-10.184zm0 1.504c4.785 0 8.68 3.895 8.68 8.684 0 4.788-3.895 8.68-8.68 8.68s-8.684-3.892-8.684-8.68c.007-4.79 3.9-8.68 8.687-8.68"/><path d="M39.965 14.105c-3.328 0-6.03 2.7-6.03 6.028 0 3.328 2.698 6.027 6.03 6.027 3.328 0 6.03-2.7 6.03-6.027 0-3.328-2.698-6.028-6.03-6.028zm0 .75c2.91 0 5.28 2.368 5.28 5.278s-2.366 5.277-5.28 5.277c-2.91 0-5.28-2.37-5.28-5.277 0-2.91 2.37-5.278 5.28-5.278"/><path fill="#7D7D7D" d="M39.965 37.27c-1.078 0-2.133-.114-3.16-.305.008-.21.03-.418.03-.63 0-.6-.155-1.163-.405-1.667 1.137.273 2.312.437 3.535.437 8.266 0 14.97-6.703 14.97-14.968 0-8.266-6.7-14.965-14.97-14.965C31.7 5.172 25 11.872 25 20.137c0 5.316 2.78 9.972 6.957 12.63-.754.24-1.41.713-1.87 1.338-4.38-3.105-7.25-8.203-7.25-13.972C22.837 10.687 30.523 3 39.967 3 49.417 3 57.1 10.687 57.1 20.133c-.004 9.45-7.688 17.137-17.137 17.137zM27.25 20.137c0-7.012 5.703-12.715 12.715-12.715S52.68 13.125 52.68 20.137c0 7.01-5.703 12.715-12.715 12.715S27.25 27.148 27.25 20.137zM39.965 0c-11.12 0-20.137 9.016-20.137 20.133 0 7.195 3.778 13.504 9.453 17.062-.415 3.63-3.415 6.477-7.11 6.66v-4.972c0-4.356-1.215-6.653-2.29-8.676-1.147-2.156-2.33-4.39-2.33-11.078V9.88c0-2.075-1.68-3.75-3.75-3.75s-3.75 1.68-3.75 3.75v9.253c0 8.55 1.776 11.902 3.2 14.594.565 1.058.98 1.85 1.21 2.925-3.884-.3-6.96-3.55-6.96-7.515 0-2.075-1.68-3.75-3.75-3.75S0 27.067 0 29.137C0 37.31 6.55 43.96 14.672 44.164v26.098c0 2.07 1.68 3.75 3.75 3.75s3.75-1.68 3.75-3.75V51.36c6.883-.173 12.617-4.985 14.215-11.415 1.164.21 2.36.325 3.586.325 11.12 0 20.133-9.016 20.133-20.137C60.098 9.016 51.086 0 39.966 0z"/></svg>