<svg version="1" xmlns="http://www.w3.org/2000/svg" width="48.058" height="67.5" viewBox="0 0 48.058 67.5"><g fill="#7D7D7D"><path d="M19.203 32.527c.066.125.14.24.222.344l.653 4.257 1.77 17.625c0 .774.628 1.31 1.402 1.31h2.015c.773 0 1.402-.535 1.402-1.31l1.77-17.624h.72c1.268 0 2.3-1.078 2.3-2.348l-1.305-8.85c0-1.27-1.027-2.193-2.3-2.193h-7.184c-.45 0-.864.118-1.215.32l-2.727-5.398c-.488-.966-1.664-1.348-2.63-.864l-.116.06c-.965.487-1.352 1.663-.863 2.627l6.086 12.048z"/><path d="M28.113 18.336c0 5.14-7.71 5.14-7.71 0s7.71-5.14 7.71 0M38.828 28.89h-3.88c-.683 0-1.24.575-1.24 1.262l-.704 6.243c0 .684.555 1.238 1.242 1.238h.387l.952 8.027c0 .414.34.715.76.715h1.085c.418 0 .758-.3.758-.715l.957-8.027h.387c.684 0 1.242-.55 1.242-1.238l-.703-6.243c-.002-.687-.56-1.26-1.24-1.26z"/><path d="M38.972 26.137c0 2.773-4.164 2.773-4.164 0 0-2.778 4.164-2.778 4.164 0M14.41 30.152c0-.683-.555-1.26-1.242-1.26h-3.88c-.683 0-1.238.573-1.238 1.26l-.703 6.243c0 .684.555 1.238 1.242 1.238h.384l.953 8.027c0 .414.34.715.753.715h1.087c.417 0 .757-.3.757-.715l.957-8.027h.39c.683 0 1.242-.55 1.242-1.238l-.702-6.243z"/><path d="M13.308 26.137c0 2.773-4.16 2.773-4.16 0 0-2.778 4.16-2.778 4.16 0m34.125 4.648c0-.6-.484-1.105-1.086-1.105h-3.39c-.6 0-1.087.504-1.087 1.105l-.613 5.46c0 .6.484 1.083 1.086 1.083h.34l.836 7.024c0 .363.294.625.66.625h.95c.363 0 .664-.258.664-.625l.836-7.024h.34c.603 0 1.087-.484 1.087-1.082l-.625-5.46z"/><path d="M46.476 27.27c0 2.425-3.642 2.425-3.642 0 0-2.426 3.642-2.426 3.642 0M5.09 29.684H1.7c-.603 0-1.087.504-1.087 1.105L0 36.25c0 .598.484 1.082 1.085 1.082h.34l.836 7.023c0 .363.3.625.66.625h.95c.366 0 .667-.258.667-.625l.836-7.023h.34c.598 0 1.086-.484 1.086-1.082l-.626-5.465c0-.597-.483-1.1-1.08-1.1z"/><path d="M5.214 27.27c0 2.425-3.64 2.425-3.64 0 0-2.426 3.64-2.426 3.64 0m24.546 30.8H18.247c-.934 0-1.692.758-1.692 1.69l-1.69 6.048c0 .934.757 1.69 1.69 1.69h14.9c.933 0 1.69-.757 1.69-1.69l-1.69-6.047c0-.93-.76-1.69-1.693-1.69zM25.1 11.527c.06 0 .106-.054.106-.117v-.113c0-.067-.047-.12-.105-.12h-1.684c-.063 0-.11.053-.11.12v.113c0 .067.05.117.11.117H25.1zm0-.492c.06 0 .106-.05.106-.117v-.113c0-.067-.047-.12-.105-.12h-1.684c-.063 0-.11.05-.11.12v.113c0 .066.05.117.11.117H25.1zm-.288.63c-.1.202-.312.347-.55.347-.247 0-.458-.145-.563-.348h1.11zm-.555-7.493c-1.3 0-2.355 1.055-2.355 2.355 0 .43.12.828.312 1.176.58 1.043.735 1.695.83 2.262.077.473.19.586.545.586h1.333c.36 0 .47-.11.547-.583.095-.567.25-1.223.825-2.262.195-.348.316-.746.316-1.176 0-1.305-1.056-2.356-2.353-2.356zm0-1.38c-.258 0-.47-.21-.47-.472V.473c0-.263.213-.473.47-.473.263 0 .474.21.474.473v1.85c-.002.26-.213.47-.47.47zM21.144 4.08c-.12 0-.242-.047-.332-.137l-1.31-1.306c-.182-.184-.182-.48 0-.664.185-.185.486-.185.666 0l1.308 1.307c.184.184.184.48 0 .668-.09.086-.21.133-.332.133zm6.226 0c-.12 0-.237-.047-.33-.137-.185-.18-.185-.482 0-.666l1.308-1.308c.18-.185.48-.185.664 0 .184.182.184.48 0 .663l-1.31 1.308c-.093.094-.218.14-.33.14zm2.52 2.828h-1.848c-.262 0-.473-.21-.473-.472 0-.258.21-.47.47-.47h1.85c.26 0 .47.212.47.47-.003.257-.21.472-.472.472zm-9.418 0h-1.85c-.263 0-.47-.21-.47-.472 0-.258.21-.47.47-.47h1.85c.258 0 .47.212.47.47 0 .257-.212.472-.47.472z"/></g></svg>