<svg xmlns="http://www.w3.org/2000/svg" width="67.5" height="67.5" viewBox="0 0 67.5 67.5"><path fill="#58BCB4" d="M33.75 1.5C15.977 1.5 1.5 15.977 1.5 33.75S15.977 66 33.75 66 66 51.523 66 33.75 51.523 1.5 33.75 1.5zm0 66C15.148 67.5 0 52.352 0 33.75S15.148 0 33.75 0 67.5 15.148 67.5 33.75 52.352 67.5 33.75 67.5zm19.875-38.625s-.148 2.477-1.273 2.926c-1.125.45 2.55.527 2.7 0 .22-.524.22-3.3-1.427-2.922zm-13.95 18.523s2.552 2.774 3.524 4.65c.37.374 1.723-1.052.894-1.427-.745-.293-4.273-4.492-4.42-3.22zm14.25 2.176c-.374.227.978 3.75 2.774 3.676 1.723-.074 1.12-3.3.6-3.227-1.127.83-3.377-.597-3.377-.45zM48.228 46.5s-.9 1.95-2.55 2.477c-1.65.523 1.198 3.074 2.55 2.625 1.347-.45 1.648-5.176 0-5.102zm-.375-26.477l-.75 1.95s7.125 1.648 2.7 5.625l-.603 1.95c.976.225 1.8.6 1.726 1.874-.148.375-.602.226-.977 0l-2.777-2.25s-3-.3 0 2.25c3 2.476 2.102 7.2-2.625 7.35-4.648.15 0 3.302 0 3.302 1.5.898.602 3.898-1.2 2.398 0 0-3.226-3.074-3.523-3.676-.3-.602-2.55 1.5-1.95-1.65-1.35-3.823-5.25 2.177-5.25 2.177s-1.573 8.398-3.448-2.7l-2.704-1.874s-5.325.6-7.8-2.48c0 0 .448 4.273 3.147 3.374 2.7-.898 2.4 3.074-4.2 5.4-1.05-1.575-2.85-6.677-4.8-11.927 0 0-9.75-2.325 1.8-2.325 0 0 1.5-.9-1.425-2.024l.75-1.95S6.3 23.625 9 18.45s11.25-2.476 11.25-2.476c1.8-.524 9.75-1.575 10.2-1.875 0 0 4.5-1.277 8.022.82 0 0 13.574-.75 19.273 2.326 0 0 .824 1.65-2.55 2.324 0 0 1.874 3.676 1.425 4.125-.45.45-3.45-1.8-2.773-5.023l-5.995 1.353v-.003z"/></svg>