<svg version="1" xmlns="http://www.w3.org/2000/svg" width="74.625" height="61.108" viewBox="0 0 74.625 61.108"><path fill="#FFF" d="M48.934 37.46c1.698.474 3.522-.5 4.007-2.24.47-1.716-.523-3.52-2.234-4.005l-1.333-.375-1.726 6.237 1.29.384zm-.43-6.866l-11.37-3.214c-.706-.188-1.416.24-1.613.956l-1.01 3.633c-.2.71.188 1.44.91 1.66l11.368 3.18 1.715-6.22zm10.33 15.766c1.693-.872 2.825-2.533 2.978-4.44.21-2.597-1.72-4.307-4.324-4.323-2.727-.016-2.86 2.61-3.965 3.457l5.312 5.305z"/><path fill="#FFF" d="M74.562 60.336c.372-1.102-1.008-1.828-1.008-1.828l-8.422-4.238c-.63-.36-2.066-1.68-2.066-1.68L51.39 40.633c-.984-.945-2.203-1.695-3.63-2.094l-15.624-4.426-9.383-9.848c-.696-.646-1.063-1.72-1.063-1.72l-4.722-12.67c-.52-1.922-2.914-2.574-2.914-2.574l-4.196-1.3-9.082-2.27s-.648-.116-.76.407c-.12.524.487.65.487.65L9.8 8.815c2.062.695 2.984 3.015 2.984 3.015l4.414 15.394s.637 1.91 1.715 2.898L28.973 42s.983 1.598 3.456 2.418l20.47 6.188 7.54 6.352s.59.734 2.372 1.188l9.863 2.867c.75.19 1.606.155 1.884-.677z"/><path fill="#FFF" d="M27.483 27.27l1.574-14.012c.45-1.94-1.35-3.648-1.35-3.648l-3.083-3.13-6.93-6.297s-.51-.41-.863-.004c-.344.402.13.8.13.8l6.28 7.95c1.49 1.585 1.204 4.07 1.204 4.07l-1.527 7.77s-.238 1.468 1.008 2.854l3.558 3.646zm29.403-11.626c-.38-.38-3.332-2.383-6.952-2.383-.403 0-.798.028-1.185.067l-3.2-1.778c0 .86.24 1.72.45 2.304-1.85.497-3.45 1.126-4.836 1.126l-3.045-1.91c0 1.523.76 3.05.76 3.05s-.76 1.524-.76 3.047l3.046-1.906c1.387 0 2.984.63 4.836 1.13-.21.585-.453 1.444-.453 2.304l3.2-1.777c.385.04.78.063 1.183.063 3.62 0 6.573-2 6.952-2.384.383-.374.383-.565 0-.95zM34.48 50.836c-.426-.43-3.747-2.676-7.813-2.676-.453 0-.9.027-1.332.07l-3.594-1.996c0 .965.27 1.93.51 2.586-2.08.56-3.873 1.266-5.432 1.266l-3.425-2.14c0 1.71.856 3.425.856 3.425s-.856 1.715-.856 3.43l3.426-2.14c1.56 0 3.355.706 5.433 1.265-.24.66-.51 1.625-.51 2.586l3.595-1.996c.433.043.875.07 1.332.07 4.066 0 7.387-2.25 7.812-2.676.43-.426.424-.64 0-1.07zm32.704-28.063c-.192-.192-1.692-1.21-3.528-1.21-.207 0-.406.01-.602.03l-1.62-.902c0 .437.12.875.226 1.17-.938.25-1.75.57-2.453.57l-1.547-.97c0 .777.387 1.55.387 1.55s-.387.774-.387 1.547l1.547-.97c.703 0 1.516.322 2.453.572-.105.296-.226.733-.226 1.167l1.62-.903c.195.02.398.033.602.033 1.836 0 3.336-1.016 3.528-1.21.19-.177.19-.274 0-.47z"/></svg>