<svg version="1" xmlns="http://www.w3.org/2000/svg" width="72.653" height="66.248" viewBox="0 0 72.653 66.248"><path fill="#FFF" stroke="#FFF" stroke-miterlimit="10" d="M11.27 51.495c0 6-8.996 6-8.996 0s8.996-6 8.996 0m43.758-49.94s-2.375-3-4.125 1.124-2.875 10.62-1.875 13 .125 5.12-.375 7-2.5 6.62-1.125 8.75"/><path fill="#FFF" stroke="#FFF" stroke-miterlimit="10" d="M72.153.804H53.528s.75 4.125 4.5 6.125 4.75.75 6.5 2.75 2.5 3.87 4.375 5 3.25 1.5 3.25 1.5V.8zm-50.18 48.53c.75 1.02.535 2.458-.488 3.21L4.157 65.3c-1.024.754-2.46.535-3.21-.488-.75-1.02-.532-2.457.487-3.21l17.324-12.76c1.024-.75 2.46-.53 3.215.493zM49.46 30.977c.853.937.884 2.3.063 3.043L35.665 46.6c-.816.743-2.172.583-3.024-.36-.85-.936-.875-2.3-.06-3.04l13.86-12.58c.817-.742 2.17-.582 3.024.356z"/><path fill="#FFF" stroke="#FFF" stroke-miterlimit="10" d="M35.41 45.378c.622 1.535-.116 3.285-1.652 3.906l-16.77 7.55c-1.534.622-3.284-.116-3.905-1.65l-.914-2.255c-.625-1.54.113-3.29 1.65-3.91l16.77-6.047c1.533-.62 3.283.117 3.904 1.652l.914.75z"/></svg>