<svg version="1" xmlns="http://www.w3.org/2000/svg" width="63.558" height="52.77" viewBox="0 0 63.558 52.77"><path fill="#FFF" d="M1.875 39.297h59.808v-17.38H1.875v17.38zm60.75 1.875H.937c-.515 0-.937-.422-.937-.937V20.98c0-.515.422-.937.937-.937H62.62c.517 0 .94.422.94.938v19.26c.002.517-.42.935-.935.935z"/><path fill="#FFF" d="M14.117 52.77H5.14c-.515 0-.937-.422-.937-.938V40.235c0-.516.422-.938.937-.938.516 0 .938.422.938.938v10.66h7.1v-10.66c0-.516.423-.938.94-.938.514 0 .936.422.936.938v11.598c0 .52-.422.937-.937.937zm44.308 0h-8.98c-.516 0-.938-.422-.938-.938V40.235c0-.516.422-.938.938-.938s.938.422.938.938v10.66h7.102v-10.66c0-.516.422-.938.94-.938.514 0 .935.422.935.938v11.598c.003.52-.42.937-.935.937zM9.875 28.215c-1.68 0-3.047 1.363-3.047 3.043 0 1.68 1.367 3.047 3.047 3.047 1.68 0 3.047-1.367 3.047-3.047 0-1.675-1.368-3.043-3.047-3.043zm0 7.965c-2.71 0-4.922-2.207-4.922-4.922 0-2.71 2.207-4.918 4.922-4.918 2.71 0 4.92 2.208 4.92 4.918-.002 2.715-2.21 4.922-4.92 4.922zm43.815-7.965c-1.68 0-3.046 1.363-3.046 3.043 0 1.68 1.367 3.047 3.047 3.047 1.68 0 3.047-1.367 3.047-3.047 0-1.675-1.367-3.043-3.043-3.043zm0 7.965c-2.71 0-4.92-2.207-4.92-4.922 0-2.71 2.206-4.918 4.92-4.918 2.712 0 4.92 2.208 4.92 4.918 0 2.715-2.208 4.922-4.92 4.922zm5.95-14.418c-.516 0-.938-.422-.938-.937V8.39H4.86v12.44c0 .514-.423.936-.938.936-.516 0-.938-.422-.938-.937V7.45c0-.516.422-.938.938-.938H59.64c.516 0 .938.422.938.938v13.38c0 .514-.422.932-.938.932z"/><path fill="#FFF" d="M59.64 8.39c-.516 0-.938-.42-.938-.936V1.876H4.86v5.578c0 .515-.423.937-.938.937-.516 0-.938-.42-.938-.933V.937c0-.515.422-.937.938-.937H59.64c.516 0 .938.422.938.938v6.516c0 .515-.422.937-.938.937zM20.51 34.305h22.544V28.48H20.51v5.825zm23.482 1.875H19.574c-.516 0-.938-.422-.938-.938v-7.7c0-.515.422-.937.938-.937h24.418c.516 0 .938.422.938.937v7.7c0 .516-.423.938-.938.938z"/><path fill="#FFF" d="M22.71 36.18c-.515 0-.937-.422-.937-.938v-7.7c0-.515.422-.937.938-.937s.94.422.94.937v7.7c0 .516-.42.938-.936.938zm3.63 0c-.516 0-.938-.422-.938-.938v-7.7c0-.515.422-.937.937-.937.512 0 .934.422.934.937v7.7c0 .516-.422.938-.938.938zm3.628 0c-.515 0-.937-.422-.937-.938v-7.7c0-.515.426-.937.94-.937.517 0 .94.422.94.937v7.7c0 .516-.423.938-.94.938zm3.625 0c-.516 0-.938-.422-.938-.938v-7.7c0-.515.422-.937.938-.937s.938.422.938.937v7.7c0 .516-.414.938-.934.938zm3.633 0c-.516 0-.938-.422-.938-.938v-7.7c0-.515.422-.937.938-.937s.938.422.938.937v7.7c0 .516-.422.938-.938.938zm3.63 0c-.517 0-.94-.422-.94-.938v-7.7c0-.515.423-.937.94-.937s.937.422.937.937v7.7c0 .516-.422.938-.938.938zm6.28-14.418c-.094 0-.188-.015-.28-.043L32.59 17.24c-.498-.158-.77-.68-.615-1.178.156-.496.684-.77 1.176-.613l14.27 4.48c.495.153.77.68.612 1.173-.123.402-.494.656-.893.656zm-17.14 0c-.094 0-.188-.015-.282-.043l-14.26-4.48c-.497-.16-.77-.68-.615-1.18.153-.49.68-.77 1.172-.613l14.262 4.48c.496.155.77.68.613 1.175-.13.402-.497.656-.895.656z"/></svg>