<svg version="1" xmlns="http://www.w3.org/2000/svg" width="41.296" height="65.244" viewBox="0 0 41.296 65.244"><path fill="#7D7D7D" d="M15.746 32.81c.77-1.503 1.766-2.855 3.024-4-1.543.852-2.915 1.938-4.094 3.24-.547-1.517-1.68-6.447 6.79-6.177.244 7.742-3.858 7.457-5.72 6.937zm-3.61-1.355C9.896 30.79 3.43 27.95 10.76 18.52c3.965 2.69 5.488 5.056 5.773 7.01-1.893.68-3.198 1.995-3.034 4.386-1.03-2.453-1.847-5.852-2.19-7.97-.18 2.474.183 6.87.83 9.51zm13.47-2.547c1.136-4.082 2.59-9.05.827-13.215-1.672-3.95-7.316-4.226-10.49-3.644C9.893 13.16 1.516 18.9 2.56 27.224c.75 5.985 5.88 12.89 5.703 18.196-.148 4.52-2.804 9.466-1.468 13.91 1.845 6.15 10.852 8.206 14.305 2.76 4.816-7.597.3-17.562 1.36-25.987.28-2.282 2.54-5.008 3.148-7.196zM23.343 9.803c2.113.125 3.945-1.96 4.095-4.668.147-2.707-1.442-5-3.552-5.13-2.113-.124-3.945 1.962-4.098 4.67-.147 2.702 1.446 4.998 3.555 5.128zm-7.558-.595c1.47.086 2.746-1.367 2.852-3.254.1-1.883-1.008-3.484-2.477-3.574-1.472-.09-2.746 1.367-2.85 3.254-.103 1.884 1.005 3.485 2.475 3.574zm-5.798 2.01c1.36.08 2.54-1.263 2.633-3.005.098-1.738-.926-3.22-2.285-3.305-1.358-.082-2.54 1.265-2.632 3.008-.1 1.742.925 3.223 2.284 3.3zM5.742 13.93c1.11-.086 1.93-1.31 1.824-2.735C7.464 9.775 6.48 8.69 5.37 8.777c-1.108.09-1.925 1.314-1.823 2.74.1 1.42 1.08 2.5 2.195 2.415zM2.43 17.39c1.02-.247 1.617-1.5 1.336-2.806-.282-1.31-1.34-2.176-2.36-1.93C.383 12.896-.21 14.15.07 15.46c.284 1.308 1.34 2.17 2.36 1.93zM35.257 39.4l5.797-5.8c.16-.16.242-.372.242-.586 0-.106-.02-.215-.062-.317-.13-.308-.43-.51-.766-.51h-4.14v-18.23c0-.456-.372-.827-.83-.827h-1.655c-.46 0-.828.37-.828.828v18.23h-4.14c-.337 0-.638.204-.767.512-.043.102-.062.21-.062.317 0 .214.082.425.242.585l5.8 5.8c.318.322.845.322 1.17-.002z"/></svg>