<svg version="1" xmlns="http://www.w3.org/2000/svg" width="44.522" height="67.283" viewBox="0 0 44.522 67.283"><path fill="#FFF" d="M15.817 30.71l.082.047c.414.29.92.457 1.47.453.74-.007 1.41-.36 1.87-.87l1.945-1.966c-.62 3.614-1.055 6.91-1.34 9.348l-4.03-7.012zM1.86 25.92l7.636 15.34-7.082 21.53c-.51 1.9.62 3.858 2.524 4.37 1.906.512 3.86-.62 4.37-2.523l6.364-18.922 6.258 18.88c.512 1.9 2.465 3.034 4.37 2.522 1.903-.512 3.036-2.47 2.523-4.37l-6.91-21.075c.337-3.94 1.1-10.12 2.357-16.418l.75-.757c.77-.938.812-2.286.105-3.204 2.086-8.89 5.198-17.12 9.527-18.593 2.227-.758 4.824.48 7.715 3.683.456.508 1.242.547 1.746.086.508-.465.547-1.246.087-1.75-3.618-4-7.1-5.47-10.35-4.36-4.554 1.546-8.265 8.272-11.05 19.995-.61.086-1.187.39-1.61.906l-4.27 4.294-5.257-2.953v.005c-.402-.223-.867-.352-1.36-.352-.07 0-.14.008-.21.012l-6.593.812c-1.004.195-1.758 1.078-1.758 2.136 0 .25.043.485.118.707zm7.746-8.792c0-2.652-2.15-4.804-4.805-4.804-2.65 0-4.8 2.148-4.8 4.804 0 2.653 2.15 4.805 4.8 4.805 2.66-.004 4.81-2.152 4.81-4.805z"/></svg>