<svg xmlns="http://www.w3.org/2000/svg" width="62.747" height="75.004" viewBox="0 0 62.747 75.004"><g fill="#58BCB4" stroke="#7D7D7D" stroke-miterlimit="10"><path d="M31.125 22.145c2.95 0 5.348 2.394 5.348 5.343 0 2.954-2.394 5.336-5.348 5.336-2.95 0-5.335-2.39-5.335-5.336-.004-2.953 2.386-5.343 5.335-5.343z"/><path d="M58.8 43.805c-.24 0-.487-.043-.726-.137-1.066-.402-1.605-1.59-1.203-2.656 1.16-3.078 1.758-6.32 1.758-9.64 0-15.028-12.227-27.255-27.25-27.255-15.027 0-27.253 12.227-27.253 27.254 0 3.14.527 6.22 1.57 9.145.383 1.07-.18 2.25-1.254 2.633-1.074.38-2.25-.176-2.633-1.254C.61 38.524 0 34.99 0 31.376 0 14.076 14.075 0 31.375 0s31.372 14.074 31.372 31.375c0 3.813-.676 7.547-2.016 11.094-.31.824-1.094 1.332-1.93 1.332zm-51.624 6.6h7.566v24.6H7.176v-24.6z"/><path d="M14.754 43.29v-5.07c0-.798-.687-1.446-1.54-1.446-.85 0-1.534.648-1.534 1.445v5.07h3.074zm16.5-32.665c-9.55 0-17.605 6.813-19.312 16.06l-1.375-3.755c-.25-.676-.992-1.02-1.668-.774-.676.246-1.02.993-.778 1.668l2.688 7.325c.138.37.435.66.806.78.136.044.277.067.418.067.246 0 .488-.067.7-.204l6.108-3.91c.602-.387.778-1.192.395-1.797-.388-.607-1.193-.778-1.798-.396l-3.04 1.943c1.276-8.27 8.382-14.43 16.846-14.43 9.415 0 17.075 7.66 17.075 17.074 0 2.08-.37 4.115-1.097 6.036-.254.668.086 1.415.75 1.668.148.057.305.084.457.084.52 0 1.013-.32 1.208-.835.84-2.218 1.266-4.554 1.266-6.95 0-10.838-8.817-19.655-19.653-19.655z"/><path d="M9.434 49.094h9.484v-.008h3.536V41.62h2.2v10.65H19.92c-1.664 0-3.043 1.387-3.043 3.05l-.008 19.685h6.03V58.3h16.89v16.704h6.03V55.29c0-1.665-1.35-3.02-3.01-3.02h-5.45V41.62h2.25l.002 7.466h4.176v.004h9.483c1.27 0 2.3-1.03 2.3-2.3 0-1.267-1.03-2.298-2.3-2.298h-9.06v-4.516c0-3.785-2.71-5.926-6.416-5.926h-13.52c-3.707 0-6.414 2.144-6.414 5.926v4.516H9.434c-1.27 0-2.297 1.03-2.297 2.297 0 1.27 1.028 2.3 2.297 2.302z"/><path d="M25.543 61.035h11.57v13.97h-11.57v-13.97zm22.45-10.63h7.566v24.6h-7.57v-24.6z"/></g></svg>