<svg xmlns="http://www.w3.org/2000/svg" width="73.336" height="72.423" viewBox="0 0 73.336 72.423"><path fill="#58BCB4" d="M66.356 0H6.98C3.125 0 0 3.125 0 6.98v63.332c0 1.044.73 1.98 1.668 2.083 1.25.207 2.395-.73 2.395-1.98V40c0-.832.625-1.668 1.562-1.668 13.438-1.25 24.793-10.105 29.688-22.394.52-1.25 2.187-1.25 2.707 0 4.898 12.292 16.254 21.144 29.69 22.394.833.106 1.563.832 1.563 1.668v30.312c0 1.044.73 1.98 1.668 2.083 1.25.207 2.4-.73 2.4-1.98V6.98c0-3.855-3.126-6.98-6.98-6.98z"/><path fill="#58BCB4" d="M46.46 53.75c1.77-3.645 2.708-7.5 3.126-10.52 0-.105.105-.105.105-.105.836-.207 1.67-.73 2.19-1.145l.627-.625c.106-.105.312 0 .312.105 1.042 5.832-2.708 10-6.145 12.5-.11.102-.316-.003-.21-.21h-.003zM20.524 41.355c0-.105.207-.105.207-.105.21.207.42.418.73.625.63.52 1.566 1.145 2.61 1.25.105 0 .105.105.105.105.418 3.125 1.457 7.08 3.332 10.938.105.105-.106.312-.207.207-3.548-2.395-7.923-6.668-6.775-13.02zM54.17 38.75c-.106-.312-.42-.52-.73-.625s-.73 0-.94.207l-1.042 1.043c-.312.418-.73.73-1.043 1.043-.105.105-.207.207-.418.312-.105.105-.207 0-.207-.105.104-1.043.104-1.875.104-2.293 0-.105-.105-.207-.207-.207h-25.52c-.207 0-.312.105-.312.313 0 .417 0 1.354.105 2.604h-.207c-.313-.207-.625-.418-.832-.625-.31-.312-.73-.625-1.04-1.043-.312-.313-.624-.73-.94-1.043-.204-.203-.415-.31-.622-.31-.52 0-.937.31-1.043.73-3.23 9.27 3.645 16.25 11.043 19.58h.106c.73.94 1.563 1.88 2.606 2.61.73.623 1.355 1.354 1.874 2.187 1.146 1.875 1.982 5-2.81 7.293-.107 0-.107.104-.208.206v1.355c0 .21.207.31.312.31h9.48c.208 0 .313-.204.313-.31v-1.354c0-.105-.103-.207-.205-.207-4.793-2.294-3.957-5.42-2.812-7.294.52-.832 1.146-1.563 1.876-2.187 1.042-.834 1.874-1.878 2.706-2.814l.207-.207C51.05 54.48 57.3 47.71 54.173 38.75z"/></svg>