<svg version="1" xmlns="http://www.w3.org/2000/svg" width="74.997" height="71.261" viewBox="0 0 74.997 71.261"><path fill="#7D7D7D" d="M56.032 22.738c0 3.766-3.062 6.828-6.824 6.828-3.766 0-6.824-3.062-6.824-6.828 0-.015.004-.027.004-.043h-3.1c0 .016-.005.03-.005.047 0 5.473 4.453 9.93 9.93 9.93 5.474 0 9.926-4.453 9.926-9.93 0-.012-.008-.023-.008-.035H56.03c-.004.008 0 .02 0 .03z"/><path fill="#7D7D7D" d="M44.243 22.738c0 2.738 2.227 4.965 4.965 4.965s4.965-2.227 4.965-4.965c0-.012-.008-.023-.008-.035l-9.918-.008c0 .016-.004.028-.004.043z"/><path fill="#7D7D7D" d="M49.208 37.594c8.105 0 14.703-6.528 14.844-14.598-.902-.184-1.855-.293-2.852-.293h-.207v.035c0 6.5-5.285 11.79-11.79 11.79-6.5 0-11.788-5.29-11.788-11.79 0-.015 0-.027.004-.047h-.59c-.85 0-1.676.09-2.473.24.105 8.104 6.72 14.667 14.847 14.667zm10.02-27.374c0 5.64-4.575 10.214-10.22 10.214-5.645 0-10.22-4.575-10.22-10.215C38.79 4.57 43.364 0 49.01 0c5.644 0 10.22 4.574 10.22 10.22m7.265 56.14c0 6.534 8.52 6.534 8.504 0V41.97h-8.506v24.39z"/><path fill="#7D7D7D" d="M49.047 62.418c-1.09 0-1.977-.883-1.977-1.973 0-1.086.89-1.965 1.977-1.965 1.086 0 1.97.883 1.97 1.965.003 1.09-.884 1.973-1.97 1.973zM65.805 23.48c-.395 8.83-7.676 15.895-16.598 15.895-8.96 0-16.266-7.125-16.606-16-5.46 1.824-9.15 7.113-9.15 13.422v15.97h-8.28v-26.53h5.846V22.66h-6.39l5.308-9.89-6.39-11.438L7.15 12.77l5.31 9.89H6.07v3.574h5.843v26.532h-7.22c-6.26 0-6.26 8.57 0 8.57h7.224v9.77h3.257v-9.77h12.54v-.027c2.15.012 4.31-1.61 4.31-4.86V37.69h2.728l-.008 33.416H63.81l.012-33.415h2.672v.008h8.504v-.7c0-5.796-3.454-11.49-9.193-13.515z"/></svg>