<svg version="1" xmlns="http://www.w3.org/2000/svg" width="58.46" height="58.46" viewBox="0 0 58.46 58.46"><path fill="#7D7D7D" d="M26.984 23.11c-.62.51-3.555 3.3-.406 8.233.222.348.12.812-.23 1.035-.126.078-.266.117-.403.117-.246 0-.488-.12-.633-.348-3.828-6-.074-9.55.72-10.2.32-.26.792-.214 1.053.102.262.32.22.794-.1 1.06zm2.246-3.618c-3.977 0-7.21 3.43-7.21 7.648 0 .59.065 1.184.194 1.77l.22.79c.112.323.222.596.35.862.376.914.91 2.16 1.407 3.12.56 1.09.83 2.595.957 3.665.024.21.043.395.055.543h8.058c.078-.902.324-2.867 1.012-4.203.494-.965 1.025-2.21 1.39-3.086.15-.32.27-.61.366-.91.004 0 .004-.01.008-.012l.22-.797c.12-.55.187-1.144.187-1.734 0-4.223-3.233-7.652-7.21-7.652z"/><path fill="#7D7D7D" d="M45.73 27.792h-4.29c-.413 0-.75-.335-.75-.75 0-.414.337-.75.75-.75h4.29c.414 0 .75.336.75.75 0 .415-.336.75-.75.75zm-4.227 12.215c-.145.145-.34.22-.53.22-.192 0-.384-.075-.532-.22l-3.03-3.035c-.294-.293-.294-.766 0-1.06s.765-.292 1.06 0l3.03 3.038c.296.294.296.766.003 1.06zm-5.898-5.64c-.703 1.36-.86 3.723-.875 3.988l-.016.316c-.02.4-.348.72-.75.72h-9.468c-.4 0-.73-.313-.75-.71l-.012-.318c0-.03-.02-.36-.078-.84-.16-1.34-.442-2.457-.797-3.152-.52-1.008-1.07-2.297-1.45-3.198-.144-.304-.285-.655-.402-1.01-.008-.02-.01-.04-.015-.06l-.23-.83c-.165-.728-.243-1.43-.243-2.13 0-5.043 3.906-9.148 8.71-9.148s8.712 4.105 8.712 9.148c0 .7-.078 1.403-.234 2.095l-.236.867c-.008.035-.02.067-.035.098-.104.316-.248.667-.408 1.003-.358.867-.91 2.156-1.428 3.164zm-2.27 6.828h-8.21c-.415 0-.75-.336-.75-.75s.335-.75.75-.75h8.21c.414 0 .75.336.75.75s-.335.75-.75.75zm0 1.78h-8.21c-.415 0-.75-.335-.75-.75s.335-.75.75-.75h8.21c.414 0 .75.337.75.75s-.335.75-.75.75zm-.59 1.786h-7.03c-.415 0-.75-.332-.75-.75 0-.41.335-.75.75-.75h7.03c.415 0 .75.34.75.75 0 .418-.335.75-.75.75zm-11.69-7.93l-3.036 3.036c-.148.145-.34.22-.535.22s-.383-.075-.53-.22c-.294-.293-.294-.766 0-1.06l3.034-3.034c.293-.293.765-.293 1.06 0 .295.293.295.766.002 1.06zm-9.075-9.785c0-.414.336-.75.75-.75h4.29c.413 0 .75.336.75.75 0 .415-.337.75-.75.75h-4.29c-.414 0-.75-.335-.75-.75zm4.98-12.015c.293-.294.766-.294 1.06 0l3.034 3.034c.293.293.293.766 0 1.06-.144.143-.34.217-.53.217-.192 0-.384-.073-.532-.22l-3.035-3.033c-.29-.29-.29-.76.003-1.058zm11.52-4.696c0-.414.336-.75.75-.75s.75.336.75.75v4.29c0 .413-.336.75-.75.75s-.75-.337-.75-.75v-4.29zm8.926 7.878l3.035-3.034c.297-.293.77-.293 1.06 0 .295.293.295.766 0 1.06l-3.032 3.034c-.145.144-.34.218-.53.218-.192 0-.384-.074-.532-.22-.29-.288-.29-.765.003-1.058zM29.23 0C13.085 0 0 13.085 0 29.23c0 9.21 4.265 17.426 10.925 22.78L0 58.46h29.23c16.145 0 29.23-13.086 29.23-29.23C58.46 13.085 45.37 0 29.23 0z"/></svg>