<svg xmlns="http://www.w3.org/2000/svg" width="59.129" height="73.61" viewBox="0 0 59.129 73.61"><path fill="#58BCB4" d="M27.934 12.927c-.036-3.824-5.938-3.348-4.98-9.21C23.308 1.543 27.358.54 27.9.254S29.906 0 29.906 0s1.473-.03 2.012.255c.535.285 4.574 1.293 4.89 3.46.86 5.86-5.033 5.388-5.132 9.212-.028 1.183-.16 7.34-.16 7.34-.004.29-.24.527-.535.527H28.5c-.293 0-.527-.234-.527-.527.004 0-.024-6.203-.036-7.34zm.027-10.043c-.1-2.633-1.52-1.734-1.55-1.168-.025.46.23.797 1.55 1.168zm4.167 0c1.328-.37 1.59-.71 1.57-1.168-.023-.566-1.425-1.465-1.57 1.168zM29.71 13.51l.673 1.237-.227-8.41c.516-.02.97-.094 1.062-.22.22-.3.37-.616 1.066-.944 1.926-.906 1.906-2.785 1.906-2.785S33.78 3.72 33 4.185c-.78.46-1.137.425-1.547.898-.414.473-.34.84-1.306.84h-.573c-.965 0-.886-.367-1.29-.84-.4-.473-.76-.433-1.534-.898-.773-.465-1.16-1.797-1.16-1.797s-.05 1.883 1.863 2.785c.692.328.836.645 1.05.945.08.11.44.18.872.21l-.363 8.423.7-1.24h-.002zm-6.9-5.255c.55 3.457 1.014 6.926 1.42 10.395-.39.074-.785.164-1.183.265l-.14.035c-.665-3.48-1.426-6.957-2.227-10.425.566-.235 1.183-.457 1.867-.657.082.133.168.262.263.387zM6.976 21.595l4.625.015c2.326 0 3.017-.234 3.94 1.02.315.43.54.863.736 1.355-.156.372-.285.762-.386 1.18-.973-1.973-1.063-1.8-2.684-1.8h-7.02c.227-.54.497-1.14.79-1.77zm19.93-3.29c-.243.02-.497.04-.755.067-.232-2.582-.513-5.168-.826-7.75l.055.043c.756.594 1.486 1.223 1.494 2.28.008.69.023 3.435.03 5.36h.003zM18.89 9.408c.923 3.325 1.766 6.672 2.56 10.02-.446.172-.89.37-1.325.598-.934-3.15-1.934-6.286-2.98-9.415.16-.13.332-.27.527-.41.352-.252.754-.52 1.22-.79h-.002zm-3.144 2.684c1.488 3.06 2.57 6.122 3.28 8.602-.252.18-.5.368-.737.57-.765-2.214-2.31-5.26-4.354-8.284l1.468-.4c0-.003.157-.233.34-.487zm-4.043 1.493c3.04 1.965 4.797 4.89 5.977 8.258-.125.134-.246.27-.364.415-1.226-3.426-3.218-6.12-7.093-7.22l.633-1.22.847-.232zm-2.57 3.59c.348.008.695.02 1.03.03 3.685.087 5.712 2.365 6.83 5.482-.126.183-.25.37-.36.566-1.078-2.772-3.117-4.054-6.555-4.132-.613-.02-1.246-.033-1.894-.04.324-.645.644-1.29.95-1.903zm41.203 0c.3.61.613 1.254.922 1.906-.65.01-1.28.02-1.895.044-3.438.078-5.496 1.36-6.62 4.133-.11-.195-.228-.387-.353-.566 1.164-3.12 3.234-5.395 6.918-5.48.337-.017.68-.028 1.028-.036v.002zm-2.508-3.59l.84.23.613 1.223c-3.892 1.098-5.93 3.793-7.21 7.22-.11-.146-.232-.282-.36-.415 1.24-3.366 3.05-6.296 6.12-8.258zm-4.02-1.492c.18.255.333.485.333.485l1.464.4C43.51 16 41.914 19.05 41.11 21.262c-.233-.204-.475-.396-.725-.57.757-2.478 1.886-5.544 3.425-8.6h-.002zm-3.1-2.683c.46.27.862.54 1.206.797.188.14.36.278.52.41-1.098 3.13-2.15 6.266-3.137 9.414-.43-.224-.867-.423-1.312-.595.85-3.355 1.75-6.698 2.723-10.024zm-6.458 1.26c-.355 2.565-.676 5.132-.95 7.698-.233-.023-.464-.043-.683-.062.043-1.918.102-4.645.12-5.364.025-.95.677-1.6 1.513-2.273zm18.172 10.925c.285.63.543 1.23.766 1.77h-7.02c-1.62 0-1.707-.173-2.715 1.8-.094-.418-.22-.808-.367-1.18.203-.492.438-.925.762-1.355.938-1.254 1.63-1.02 3.95-1.02l4.624-.015zM37.145 7.892c.656.195 1.25.41 1.79.636-.86 3.47-1.677 6.946-2.4 10.426l-.14-.035c-.396-.104-.79-.194-1.18-.27.456-3.417.968-6.834 1.565-10.24.134-.168.255-.34.365-.52zm18.707 23.01c-4.098-.276-8.352-.436-12.492-.526.098-.62.165-1.19.207-1.715 3.895.09 7.89.24 11.762.488.176.586.352 1.175.52 1.757v-.002zM5.266 25.69c3.18-.126 6.44-.216 9.8-.275.208-.004.415.36.625.356h.078c-.078.5-.114 1.038-.102 1.608v.11c-.207-.063-.418-.344-.63-.34-3.573.062-7.034.16-10.4.3.206-.593.417-1.175.632-1.757zM.316 44.027c6.426-.742 13.442-1.29 19.9-1.562l-.01 1.71c-6.565.282-13.71.84-20.206 1.61.086-.527.19-1.113.316-1.758zm.727-3.587c5.844-.58 12.14-.97 18.023-1.178l.227.402.734 1.28c-6.285.204-13.097.618-19.355 1.26l.316-1.514.055-.25zm.914-3.904c5.016-.43 10.32-.703 15.395-.863.218.543.46 1.11.738 1.69-5.442.162-11.184.45-16.56.93.138-.57.275-1.16.427-1.757zm.988-3.703c4.352-.336 8.887-.55 13.286-.68.128.54.284 1.11.467 1.704-4.71.132-9.593.36-14.238.734.155-.575.316-1.16.487-1.755zm1.12-3.69c3.837-.247 7.79-.396 11.654-.486.032.524.083 1.098.176 1.72-4.105.09-8.32.25-12.382.523.175-.582.36-1.168.55-1.757zm50.72-1.704c-3.37-.144-6.84-.24-10.418-.304-.238-.004-.48.36-.72.355l-.007-.12c.02-.57-.008-1.105-.078-1.605l.172.004c.207.004.422-.36.63-.356 3.366.06 6.64.15 9.82.274.207.58.406 1.162.6 1.75zm4.344 18.344c-6.487-.766-13.624-1.328-20.187-1.61l.02-1.71c6.453.277 13.457.82 19.87 1.562.11.645.208 1.235.295 1.758zm-.624-3.586c-6.285-.646-13.133-1.06-19.453-1.263l.754-1.277.233-.4c5.915.21 12.247.597 18.12 1.187l.05.242c.11.52.203 1.025.297 1.51zm-.793-3.903c-5.402-.48-11.184-.773-16.66-.934.29-.585.543-1.147.77-1.69 5.105.16 10.453.434 15.496.867.136.597.27 1.183.394 1.757zm-.87-3.703c-4.677-.38-9.6-.606-14.345-.738.2-.598.36-1.168.495-1.704 4.434.13 9.012.344 13.39.684.16.59.317 1.176.458 1.758zM29.26 73.61c-6.16.027-2.364-6.18-2.364-6.18l-.652-18.586c-.383-.61-.594-1.215-.594-1.61.008-1.065 1.618-1.4 3.782-1.4h.11c2.16 0 3.765.335 3.757 1.4-.005.396-.23 1-.62 1.61l-.96 18.586s3.7 6.208-2.46 6.18h-.002zm8.367-45.355c-.01.738-.497 1.367-1.17 1.59.22 0 .442-.004.677-.012.715-.023 1.31-.164 1.797-.367-.236-.758-.693-1.324-1.36-1.648.04.14.06.285.058.437zm-3.353-.293c-.75.426-1.38 1.12-1.758 1.926.948-.09 1.808-.06 2.858-.043-.664-.227-1.137-.852-1.13-1.586.002-.11.01-.206.03-.3zm5.5 1.258c.074-.008.144-.016.207-.02.776-.027 1.334.32 1.725.86-.04.25-.082.504-.137.773-.074-.152-.156-.285-.254-.394-.47-.535-1.035-.71-1.586-.558-.074.027-.148.055-.258.094-.54.18-1.185.293-1.94.293-2.39 0-3.72-.235-5.553-.028.547-1.648 2.152-3.043 3.996-3.133 1.915-.094 3.254.68 3.8 2.11zm1.782-.442c.003.204-.42-6.113-6.567-4.44-.75.202-1.45.577-2.127.84-1.613.698-1.926-.31-1.395-.607 1.065-.66 2.292-1.094 3.66-1.356 4.753-.914 6.09 1.586 6.425 5.566v-.002zm-23.798 0c.398-3.98 1.777-6.48 6.515-5.566 1.368.262 2.586.695 3.64 1.36.524.296.196 1.304-1.405.605-.672-.258-1.364-.633-2.114-.84-6.117-1.672-6.644 4.645-6.636 4.44zm1.773.442c.57-1.426 1.928-2.2 3.834-2.11 1.844.086 3.426 1.485 3.946 3.133-1.83-.207-3.166.028-5.55.028-.76 0-1.4-.115-1.94-.29-.105-.036-.18-.063-.254-.094-.546-.152-1.117.023-1.593.555-.11.125-.207.277-.29.45-.05-.27-.093-.53-.128-.78.405-.565.975-.93 1.768-.905.067-.004.133.004.208.016zm5.52-1.258c.017.094.03.195.025.293-.004.734-.488 1.36-1.156 1.586 1.05-.013 1.905-.044 2.86.046-.365-.8-.98-1.496-1.728-1.923zm-3.354.293c0-.152.023-.297.062-.437-.668.324-1.137.89-1.383 1.648.483.203 1.07.344 1.788.367.234.008.46.012.676.012-.673-.223-1.15-.848-1.146-1.59h.002zm4.808 8.344c.172-.046.086.17.28.184.868.074 1.204-1.133 1.85-.703.433.29 1.452.29 1.89 0 .648-.425.965.778 1.832.704.2-.015.117-.23.285-.187.07.014.153.417-.323.417-.874 0-1.624-.805-1.835-.328-.31.69-1.526.69-1.82 0-.202-.478-.97.327-1.843.327-.473-.004-.383-.403-.313-.418l-.002.003zm3.043 3.72c-1.132 0-1.085-.15-1.96-.118-.53.023-2.938.574-2.367.152-.236.098 2.014-1.137 2.924-1.16.985-.027 1.21.406 1.403.406s.427-.433 1.41-.405c.91.023 3.142 1.258 2.907 1.16.57.422-1.832-.13-2.36-.152-.87-.04-.827.117-1.956.117h-.002zm-.015 1.546c1.3-.008 2.485-.207 3.388-.535-.008.575-1.605 1.396-3.394 1.38-1.79.016-3.375-.805-3.372-1.38.9.33 2.078.528 3.38.536z"/></svg>