<svg xmlns="http://www.w3.org/2000/svg" width="74.543" height="63.977" viewBox="0 0 74.543 63.977"><path fill="#58BCB4" d="M62.418 52.902l-12.508-1.18c4.852-3.648 8.312-8.46 10.316-14.375 2.273-6.707.328-13.886-4.953-18.29-4.445-3.707-10.098-4.398-14.754-1.808-.82.453-1.12 1.492-.66 2.312.453.824 1.492 1.12 2.313.66 3.395-1.886 7.574-1.332 10.914 1.45 3.183 2.652 6.117 8.066 3.91 14.578-2.25 6.634-6.4 11.525-12.606 14.95l-13.24-1.25c-1.047-.1-1.65-.875-1.86-1.203-.363-.57-.398-1.368-.273-1.946.394-1.424 1.925-1.68 3.12-1.912l.086-.016 14.102-1.41c.01-.003.022-.003.03-.007 1.652-.324 2.82-1.8 2.75-3.484-.07-1.695-1.375-3.082-3.062-3.25 0 0-19.476-4.39-26.27-5.09-2.01-.206-4.042-.113-6.038.278-4.625.906-7.56 3.094-7.88 3.34-.468.36-.83.836-1.062 1.38L.268 47.45c-.685 1.632-.01 3.515 1.562 4.335L24.353 63.59c.61.316 1.3.445 1.984.363L62.5 59.68c.086-.013.172-.024.254-.04 1.602-.316 2.773-1.73 2.754-3.387-.023-1.742-1.355-3.187-3.09-3.35zm3.965-35.562c-2.504 1.695-4.274 4.058-5.258 6.683 2.805.067 5.66-.7 8.164-2.39 2.5-1.692 4.27-4.06 5.25-6.688-2.808-.062-5.66.703-8.16 2.395zm-1.723-5.95c.754-4.004.17-7.953-1.417-11.39-2.727 2.63-4.707 6.09-5.457 10.097-.754 4.004-.168 7.95 1.414 11.39 2.73-2.632 4.707-6.09 5.46-10.097z"/><path fill="#58BCB4" d="M50.528 29.883c1.844 1.2 3.934 1.714 5.977 1.625-.754-1.903-2.078-3.598-3.926-4.797-1.85-1.192-3.938-1.71-5.98-1.62.75 1.9 2.073 3.6 3.926 4.795z"/></svg>