<svg version="1" xmlns="http://www.w3.org/2000/svg" width="59.129" height="73.61" viewBox="0 0 59.129 73.61"><path fill="#7D7D7D" d="M27.934 12.927c-.036-3.824-5.938-3.348-4.98-9.21C23.308 1.543 27.358.54 27.9.254S29.906 0 29.906 0s1.473-.03 2.012.255c.535.285 4.574 1.293 4.89 3.46.86 5.86-5.033 5.388-5.132 9.212-.028 1.183-.16 7.34-.16 7.34-.004.29-.24.527-.535.527H28.5c-.293 0-.527-.234-.527-.527.004 0-.024-6.203-.035-7.34zm.027-10.043c-.1-2.633-1.52-1.734-1.55-1.168-.024.46.23.797 1.55 1.168zm4.168 0c1.328-.37 1.59-.71 1.57-1.168-.023-.566-1.425-1.465-1.57 1.168zM29.71 13.51l.673 1.237-.227-8.41c.516-.02.97-.094 1.062-.22.22-.3.37-.616 1.066-.944 1.926-.906 1.906-2.785 1.906-2.785S33.78 3.72 33 4.185c-.78.46-1.137.425-1.547.898-.414.473-.34.84-1.306.84h-.573c-.965 0-.886-.367-1.29-.84-.4-.473-.76-.433-1.534-.898-.773-.465-1.16-1.797-1.16-1.797s-.05 1.883 1.863 2.785c.692.328.836.645 1.05.945.08.11.44.18.872.21l-.363 8.423.7-1.24zm-6.9-5.255c.55 3.457 1.014 6.926 1.42 10.395-.39.074-.785.164-1.183.265l-.14.035c-.665-3.48-1.426-6.957-2.227-10.425.566-.235 1.183-.457 1.867-.657.082.133.168.262.262.387zM6.976 21.595l4.625.015c2.327 0 3.018-.234 3.94 1.02.316.43.54.863.737 1.355-.156.372-.285.762-.386 1.18-.972-1.973-1.062-1.8-2.683-1.8h-7.02c.227-.54.497-1.14.79-1.77zm19.93-3.29c-.243.02-.497.04-.755.067-.23-2.582-.512-5.168-.825-7.75l.055.043c.756.594 1.486 1.223 1.494 2.28.008.69.023 3.435.03 5.36zM18.89 9.408c.923 3.325 1.766 6.672 2.56 10.02-.446.172-.89.37-1.325.598-.934-3.15-1.934-6.286-2.98-9.415.16-.13.332-.27.527-.41.352-.25.754-.52 1.22-.79zm-3.144 2.684c1.488 3.06 2.57 6.122 3.28 8.602-.252.18-.5.368-.737.57-.766-2.214-2.31-5.26-4.355-8.284l1.468-.4c0-.003.157-.233.34-.487zm-4.043 1.493c3.04 1.965 4.797 4.89 5.977 8.258-.125.134-.246.27-.364.415-1.226-3.426-3.218-6.12-7.093-7.22l.633-1.22.847-.232zm-2.57 3.59c.348.008.695.02 1.03.03 3.685.087 5.712 2.365 6.83 5.482-.126.183-.25.37-.36.566-1.078-2.772-3.117-4.054-6.555-4.132-.613-.02-1.246-.032-1.894-.04.324-.644.644-1.29.95-1.902zm41.203 0c.3.61.613 1.254.922 1.906-.65.01-1.28.02-1.895.045-3.438.078-5.496 1.36-6.62 4.133-.11-.195-.228-.387-.353-.566 1.164-3.12 3.234-5.395 6.918-5.48.337-.017.68-.028 1.028-.036zm-2.508-3.59l.84.23.613 1.223c-3.89 1.098-5.93 3.793-7.21 7.22-.11-.146-.23-.282-.36-.415 1.24-3.366 3.05-6.296 6.12-8.257zm-4.02-1.492c.18.255.333.485.333.485l1.465.4C43.51 16 41.915 19.05 41.11 21.262c-.233-.204-.475-.396-.725-.57.757-2.478 1.886-5.544 3.425-8.6zm-3.1-2.683c.46.27.862.54 1.206.797.188.14.36.278.52.41-1.098 3.13-2.15 6.266-3.137 9.414-.43-.223-.867-.422-1.312-.594.85-3.355 1.75-6.698 2.722-10.023zm-6.458 1.26c-.355 2.565-.676 5.132-.95 7.698-.233-.023-.464-.043-.683-.062.043-1.918.102-4.645.12-5.364.025-.95.677-1.6 1.513-2.273zm18.172 10.925c.285.63.543 1.23.766 1.77h-7.02c-1.62 0-1.707-.173-2.715 1.8-.094-.418-.22-.808-.367-1.18.203-.492.438-.925.762-1.355.938-1.254 1.63-1.02 3.95-1.02l4.624-.015zM37.145 7.892c.656.195 1.25.41 1.79.636-.86 3.47-1.677 6.946-2.4 10.426l-.14-.035c-.396-.105-.79-.195-1.18-.27.456-3.418.968-6.835 1.565-10.24.134-.17.255-.34.365-.52zm18.707 23.01c-4.098-.276-8.352-.436-12.492-.526.098-.62.165-1.19.207-1.715 3.895.09 7.89.24 11.762.49.175.585.35 1.174.52 1.756zM5.266 25.69c3.18-.126 6.44-.216 9.8-.275.208-.004.415.36.625.356h.08c-.08.5-.115 1.04-.103 1.61v.11c-.207-.064-.418-.345-.63-.34-3.573.06-7.034.16-10.4.3.206-.594.417-1.176.632-1.758zM.316 44.027c6.426-.742 13.442-1.29 19.9-1.562l-.01 1.71c-6.565.282-13.71.84-20.206 1.61.086-.527.19-1.113.316-1.758zm.727-3.587c5.844-.58 12.14-.97 18.023-1.178l.227.402.734 1.28c-6.285.204-13.097.618-19.355 1.26l.316-1.514.055-.25zm.914-3.904c5.016-.43 10.32-.703 15.395-.863.218.543.46 1.11.738 1.69-5.442.162-11.184.45-16.56.93.138-.57.275-1.16.427-1.757zm.988-3.703c4.352-.336 8.887-.55 13.286-.68.13.54.285 1.11.468 1.704-4.71.132-9.593.36-14.238.734.155-.574.316-1.16.487-1.754zm1.12-3.69c3.837-.247 7.79-.396 11.654-.486.03.524.082 1.098.175 1.72-4.105.09-8.32.25-12.382.523.175-.582.36-1.168.55-1.758zm50.72-1.704c-3.37-.145-6.84-.24-10.418-.305-.238-.004-.48.36-.72.355l-.007-.12c.02-.57-.008-1.105-.078-1.605l.172.004c.207.003.422-.36.63-.357 3.366.06 6.64.15 9.82.274.207.58.406 1.162.6 1.75zm4.344 18.343c-6.488-.766-13.625-1.328-20.188-1.61l.02-1.71c6.453.277 13.457.82 19.87 1.562.11.645.208 1.235.294 1.758zm-.625-3.586c-6.285-.646-13.133-1.06-19.453-1.263l.754-1.277.233-.4c5.914.21 12.246.597 18.12 1.187l.05.242c.11.52.202 1.025.296 1.51zm-.793-3.903c-5.402-.48-11.184-.773-16.66-.934.29-.585.543-1.147.77-1.69 5.105.16 10.453.434 15.496.867.136.597.27 1.183.394 1.757zm-.87-3.703c-4.677-.38-9.6-.605-14.345-.737.2-.598.36-1.168.495-1.704 4.434.13 9.012.343 13.39.683.16.59.317 1.176.458 1.758zM29.26 73.61c-6.16.027-2.364-6.18-2.364-6.18l-.652-18.586c-.383-.61-.594-1.215-.594-1.61.008-1.065 1.618-1.4 3.782-1.4h.11c2.16 0 3.765.335 3.757 1.4-.006.396-.23 1-.62 1.61l-.96 18.586s3.7 6.208-2.46 6.18zm8.367-45.355c-.01.738-.497 1.367-1.17 1.59.22 0 .442-.004.677-.012.715-.023 1.31-.164 1.797-.367-.235-.758-.692-1.324-1.36-1.648.04.14.06.285.058.437zm-3.353-.293c-.75.426-1.38 1.12-1.758 1.926.948-.09 1.808-.06 2.858-.043-.664-.227-1.137-.852-1.13-1.586.002-.11.01-.207.03-.3zm5.5 1.258c.074-.008.144-.016.207-.02.777-.027 1.335.32 1.726.86-.04.25-.082.504-.137.773-.075-.152-.157-.285-.255-.394-.47-.536-1.035-.71-1.586-.56-.075.028-.15.056-.26.095-.54.18-1.184.293-1.94.293-2.39 0-3.72-.235-5.552-.028.547-1.648 2.152-3.043 3.996-3.133 1.915-.094 3.254.68 3.8 2.11zm1.782-.442c.003.204-.42-6.113-6.567-4.44-.75.202-1.45.577-2.128.84-1.613.698-1.926-.31-1.395-.607 1.065-.66 2.292-1.093 3.66-1.355 4.753-.914 6.09 1.586 6.425 5.566zm-23.798 0c.398-3.98 1.777-6.48 6.515-5.566 1.368.262 2.586.695 3.64 1.36.524.296.196 1.304-1.405.605-.672-.258-1.364-.633-2.114-.84-6.117-1.672-6.644 4.645-6.636 4.44zm1.773.442c.57-1.426 1.93-2.2 3.835-2.11 1.844.086 3.426 1.485 3.946 3.133-1.83-.207-3.165.028-5.55.028-.76 0-1.4-.114-1.94-.29-.104-.035-.18-.062-.253-.093-.546-.152-1.117.023-1.593.555-.11.125-.207.277-.29.45-.05-.27-.093-.53-.128-.78.405-.565.975-.93 1.768-.905.067-.004.133.004.207.016zm5.52-1.258c.018.094.03.195.026.293-.004.734-.488 1.36-1.156 1.586 1.05-.012 1.905-.043 2.86.047-.365-.8-.98-1.496-1.728-1.922zm-3.353.293c0-.152.023-.297.062-.437-.67.324-1.138.89-1.384 1.648.483.203 1.07.344 1.788.367.234.008.46.012.676.012-.673-.223-1.15-.848-1.146-1.59zm4.808 8.344c.172-.047.086.17.28.183.868.074 1.204-1.133 1.85-.703.433.29 1.452.29 1.89 0 .648-.425.965.778 1.832.704.2-.015.117-.23.285-.187.07.014.153.417-.323.417-.875 0-1.625-.805-1.836-.328-.31.69-1.526.69-1.82 0-.202-.478-.97.327-1.843.327-.472-.004-.382-.403-.312-.418zm3.043 3.72c-1.132 0-1.085-.15-1.96-.12-.53.024-2.938.575-2.367.153-.235.098 2.015-1.137 2.925-1.16.985-.027 1.21.406 1.403.406.193 0 .427-.434 1.41-.406.91.023 3.142 1.258 2.907 1.16.57.422-1.832-.13-2.36-.152-.87-.04-.827.117-1.956.117zm-.015 1.545c1.3-.008 2.485-.207 3.388-.535-.007.575-1.604 1.396-3.393 1.38-1.79.016-3.375-.805-3.372-1.38.9.33 2.078.528 3.38.536z"/></svg>