<svg version="1" xmlns="http://www.w3.org/2000/svg" width="60.879" height="62.988" viewBox="0 0 60.879 62.988"><path fill="#7D7D7D" d="M50.38 40.488c.073 0 .147.012.222.012-.582-.578-1.746-1.547-3.656-2.28 0 0-6.16-1.868-9.078-3.91 0 .058-.004.117-.004.18-.016.8-.105 1.784-.23 2.804-.367 3.027-1.05 6.39-1.05 6.39-.907-1.487-1.716-2.464-2.44-3.1-.878-.77-1.612-1.017-2.19-1.017-.07 0-.136 0-.203.012-.715.07-1.144.52-1.27.66 3.946-4.81 5.356-8.93 5.474-9.305-.022-.3-.026-.62-.01-.96 0 0-.02-.384-.063-.384-.004 0-.004 0-.01.005 1.13-1.453 2.05-2.66 2.66-4.347 1.04-1.043 1.575-3.57 1.575-3.57.863-2.426.328-3.37-.082-3.72.626-2.03 1.99-7.765-1.253-11.41 0 0-1.244-2.746-6.24-3.746 0 0-1.923-.777-2.696-2.804 0 0-1.72.224-1.72 1.72l-.832-.332-.773.543-.898-.54s-.062-.02-.187-.02c-.172 0-.465.03-.895.186 0 0-6.5 2.5-8.163 7.66 0 0-.922 2.192.203 8.575-.27.11-1.474.775-.36 3.896 0 0 .483 2.29 1.42 3.41.53 1.64 1.34 3.223 2.333 4.625l-.012-.01s.128.612.015 1.47c.23.63 2.098 5.5 5.375 9.18-.173-.175-.53-.47-1.063-.56-.106-.02-.22-.03-.336-.03-.53 0-1.195.21-1.98.845-.766.62-1.65 1.64-2.64 3.28 0 0-.817-4.02-1.15-7.222-.077-.77-.13-1.492-.136-2.102v-.347c-2.856 2.077-9.22 4.017-9.22 4.017-2.886 1.11-4.11 2.777-4.11 2.777C1.22 46.17.243 52.5 0 54.667c0 2.95 12.48 5.336 27.87 5.336 4.58 0 8.9-.215 12.708-.59-1.375-1.97-2.2-4.352-2.2-6.926 0-6.616 5.384-12 12-12z"/><path fill="#7D7D7D" d="M49.582 58.61v-1.427c-1.004-.047-1.98-.316-2.55-.645l.448-1.754c.63.344 1.516.66 2.488.66.855 0 1.44-.328 1.44-.93 0-.57-.48-.93-1.59-1.305-1.604-.54-2.702-1.29-2.702-2.75 0-1.32.93-2.356 2.535-2.67v-1.427h1.48v1.32c1.005.047 1.68.254 2.177.496l-.434 1.696c-.39-.164-1.08-.512-2.16-.512-.975 0-1.29.422-1.29.84 0 .496.53.81 1.803 1.29 1.785.628 2.508 1.452 2.508 2.803 0 1.337-.944 2.478-2.67 2.778v1.53h-1.477zm.797-16.622c-5.79 0-10.5 4.71-10.5 10.5s4.71 10.5 10.5 10.5 10.5-4.71 10.5-10.5-4.715-10.5-10.5-10.5z"/></svg>