<svg xmlns="http://www.w3.org/2000/svg" width="35.964" height="67.406" viewBox="0 0 35.964 67.406"><path fill="#58BCB4" d="M5.36 47.352L7.77 35.45l6.308-7.355h7.8l6.31 7.355 2.41 11.902L28.19 58.08l-6.31 8.53h-7.797L7.77 58.08 5.36 47.35zM0 42.972v9.825l.503 7.64 2.287-14.29 2.444 12.077 5.52 6.434-8.618 2.75h31.696l-8.69-2.668 5.593-6.52 2.445-12.08 2.28 14.292.505-7.64v-9.825L30.73 28.5l-7.29-9.117-.163-5.555-2.898-3.945-5.846-3.254-4.317-4.167L4.545 0 9.08 3.44l3.274 4.618 1.176 5.122-.015 2.632-.87 3.504-7.41 9.184L0 42.973z"/></svg>