<svg xmlns="http://www.w3.org/2000/svg" width="55.094" height="67.498" viewBox="0 0 55.094 67.498"><path fill="#58BCB4" d="M34.437 23.938C22.633 34.914 21.4 31 11.145 23.508c11.64 7.1 11.808 7.074 23.292.43zM22.18 14.273c.164.004.387.02.707.02 1.277.004 1.012-.242 1.512 1.027.5 1.266-.11 1.575-.675 2.305-.57.727.18.66.113 1.406-.07.75-.173.574-.95.585-.774.012-.9.114-.95-.582-.05-.694.708-.596.086-1.405-.62-.81-1.183-1.03-.67-2.305.38-.953.335-1.054.827-1.047h-.003zm5.136-4.125c-.08 0-.18.004-.286.008-.86.047-1.058-.047-1.007.512.054.56-.11.43.347.75.457.324.442.137 1.008-.512.496-.566.52-.754-.06-.758h-.002zm-8.945 0c-.575.008-.555.192-.06.758.567.65.55.832 1.01.512.456-.324.29-.19.346-.75s-.148-.465-1.008-.512c-.11-.008-.203-.008-.285-.008zm5.45-1.355c-.263 0-.6.02-1.025.027-1.7.028-1.93-.36-2.082 1.278-.15 1.636.017 1.492-1.233 3.09-1.25 1.597-1.095 2.27 0 5.05 1.092 2.782.514 3.227 3.31 3.24 2.797.01 2.254-.45 3.367-3.24 1.114-2.79 1.364-3.277 0-5.05-1.363-1.774-1.17-1.563-1.285-3.09-.085-1.145-.257-1.31-1.053-1.305zm2.41-3.11c2.24-.015 1.987.465 4.194 4.106 3.496 5.306 2.352 4.23-.06 10.23-2.655 6.27-2.765 6.216-7.635 6.216-4.646.004-4.708.047-7.38-6.215-2.813-6.764-3.696-4.64-.016-10.233 3.12-4.97 1.95-4.02 7.653-4.02 1.48-.02 2.503-.08 3.25-.086h-.004zM31.32 0c-1.016.035-2.156.766-3.18 2.496-2.66-1.16-7.848-1.437-10.457.086-3.867-4.625-7.172-1.95-6.035 3.57-4.52 6.493-1.747 10.46-3.274 18.196C5.777 33.223.012 46.484 0 49.77c1.723 6.477 6.395 13.457 8.504 11.988 9.71-6.762-7.852-4.867 8.703-16.72 2.375-2.335 5.48.446 5.528 3.372l.246 14.715c.077 5.582 7.37 5.59 8.67 1.328 9.27-31.493 8.81-24.148 15.784-2.393 1.258 3.924 7.852 3.647 7.656 1.147C50.864 41.05 59 18.577 37.063 11.172l-3.402-4.59c1.528-3.37-.11-6.656-2.343-6.578V0z"/></svg>