<svg version="1" xmlns="http://www.w3.org/2000/svg" width="67.265" height="39.668" viewBox="0 0 67.265 39.668"><g fill="#7D7D7D"><path d="M46.898 7.43c0-1.27-.97-2.3-2.164-2.3-1.195.003-2.164 1.03-2.164 2.3 0 .304-.234.554-.523.554s-.523-.246-.523-.554c0-1.883 1.438-3.41 3.207-3.41.964 0 1.827.453 2.41 1.167V4.85c0-2.065-1.57-3.737-3.52-3.74-1.94.003-3.513 1.675-3.516 3.74 0 .31-.234.556-.523.556-.284 0-.52-.246-.52-.555C39.058 2.175 41.1 0 43.62 0c1.76 0 3.278 1.06 4.04 2.605C48.42 1.06 49.945 0 51.7 0c2.52 0 4.56 2.172 4.56 4.85 0 .306-.233.556-.522.556-.29 0-.52-.25-.52-.555-.004-2.063-1.574-3.735-3.52-3.74-1.942.005-3.516 1.67-3.52 3.74v.34c.586-.714 1.45-1.17 2.41-1.17 1.77 0 3.207 1.53 3.207 3.41 0 .306-.234.556-.523.556-.29 0-.523-.25-.523-.554-.007-1.273-.97-2.3-2.167-2.3s-2.16 1.03-2.164 2.3v3.78h-1.54V7.43h.017z"/><path d="M3.01 16.887c.517-1.73 1.568-2.66 2.255-2.79v-.546c-.687-.126-1.738-1.06-2.254-2.786-.73-2.44-2.13-3.86-3.005-4.55.954.055 2.606.313 4.414 1.345 1.97 1.12 3.31 3.04 3.92 4.08l.077.13h52.11c2.758.003 4.414.718 5.398 1.925.988 1.207 1.34 2.98 1.34 5.188 0 1.093-.086 2.292-.22 3.566-.362 3.55-1.252 6.345-3.022 8.274-1.766 1.93-4.44 3.03-8.488 3.12-2.605.056-4.625.08-7.21.08-1.638 0-3.5-.01-5.888-.024-1.766-.007-3.398-.12-4.918-.31l-.17-.02-.087.155c-2.28 4.133-5.922 5.43-7.598 5.82-.25.06-.453.094-.6.12l.054-8.335-.16-.07C19.245 26.9 16.08 18.3 8.75 15.707l-.196-.07-.11.187c-.55.977-1.933 3.078-4.03 4.27C2.604 21.12.957 21.384 0 21.438c.875-.692 2.277-2.114 3.01-4.55z"/></g></svg>