<svg xmlns="http://www.w3.org/2000/svg" width="60.434" height="61.308" viewBox="0 0 60.434 61.308"><path fill="#58BCB4" d="M30.074.687c-8.015 0-14.54 13.414-14.54 29.902 0 15.212 12.654 27.954 14.54 29.77 1.887-1.815 14.54-14.56 14.54-29.773 0-16.487-6.524-29.9-14.54-29.9zm0 60.62l-.234-.21c-.15-.137-15-13.84-15-30.504C14.84 13.723 21.672 0 30.07 0s15.234 13.726 15.234 30.593c0 16.668-14.85 30.368-15 30.504l-.23.21z"/><path fill="#58BCB4" d="M32.023 12.582c0 2.6-3.9 2.6-3.9 0 .002-2.598 3.9-2.598 3.9 0"/><path fill="#58BCB4" d="M30.07 4.95c-4.214 0-7.632 3.417-7.632 7.635 0 4.22 3.418 7.633 7.632 7.633 4.22 0 7.637-3.418 7.637-7.633 0-4.218-3.418-7.636-7.637-7.636zm0 2.768c2.684 0 4.867 2.184 4.867 4.864 0 2.683-2.184 4.863-4.867 4.863-2.68 0-4.86-2.184-4.86-4.863 0-2.68 2.18-4.864 4.86-4.864"/><path fill="#58BCB4" d="M41.566 46.42H18.758l10.22-19.128-10.962-14.5.55-.418 11.23 14.852-9.882 18.504h20.5L30.53 27.226l11.23-14.852.554.418-10.964 14.5"/><path fill="#58BCB4" d="M43.367 16.964l-8.793 10.5 8.117 14.743 1.3-4.09.844-4.848v-6.22l-.472-4.974m-27.4-5.113l8.79 10.5-8.117 14.743-1.297-4.09-.844-4.848v-6.22l.473-4.973m12.495 23.5l-.827 12.86 2.16 2.14 3.64-3.136s.978-12.02.563-11.858c-.414.152-5.535-.004-5.535-.004zm-4.397 8.415v-7.45l-4.727-.464"/><path fill="#58BCB4" d="M6.024 26.66c0 5.1 4.238 9.234 9.468 9.234.102 0 .2-.012.3-.016-.182-.883-.327-1.78-.43-2.69-3.63-.067-6.57-2.966-6.57-6.528 0-3.602 3.005-6.532 6.7-6.532.192 0 .38.012.567.028.16-.906.35-1.793.555-2.66-.367-.043-.742-.07-1.125-.07-5.23.003-9.467 4.136-9.467 9.234z"/><path fill="#58BCB4" d="M15.492 22.917c-2.12 0-3.84 1.676-3.84 3.747 0 1.968 1.563 3.582 3.543 3.73 0-.094-.007-.184-.007-.277 0-2.48.156-4.887.45-7.192-.048-.004-.095-.008-.146-.008z"/><path fill="#58BCB4" d="M16.602 39.007c-.368.03-.735.055-1.11.055-7.015 0-12.718-5.562-12.718-12.402S8.48 14.257 15.492 14.257c.672 0 1.332.067 1.977.164.282-.895.595-1.762.93-2.594-.945-.176-1.914-.27-2.91-.27-8.553 0-15.49 6.76-15.49 15.1s6.933 15.1 15.49 15.1c.693 0 1.37-.045 2.036-.132-.335-.846-.648-1.72-.925-2.616zM54.41 26.66c0 5.1-4.238 9.234-9.473 9.234-.1 0-.2-.012-.3-.016.183-.883.327-1.78.43-2.69 3.632-.067 6.57-2.966 6.57-6.528 0-3.602-3.01-6.532-6.7-6.532-.19 0-.38.012-.566.028-.16-.906-.35-1.793-.552-2.66.367-.043.742-.07 1.12-.07 5.236.003 9.474 4.136 9.474 9.234z"/><path fill="#58BCB4" d="M44.94 22.917c2.122 0 3.84 1.676 3.84 3.747 0 1.968-1.56 3.582-3.542 3.73 0-.094.008-.184.008-.277 0-2.48-.156-4.887-.45-7.192.048-.004.1-.008.145-.008z"/><path fill="#58BCB4" d="M43.832 39.007c.367.03.734.055 1.11.055 7.015 0 12.718-5.562 12.718-12.402s-5.707-12.403-12.72-12.403c-.67 0-1.33.067-1.975.164-.285-.895-.594-1.762-.93-2.594.94-.176 1.91-.27 2.906-.27 8.558 0 15.495 6.762 15.495 15.102s-6.934 15.1-15.492 15.1c-.69 0-1.366-.046-2.034-.133.335-.846.65-1.72.925-2.616z"/></svg>