<svg version="1" xmlns="http://www.w3.org/2000/svg" width="66.004" height="47.948" viewBox="0 0 66.004 47.948"><path fill="#7D7D7D" d="M51.926.304S51.88-.17 50.65.064c-1.23.24-9.704 3.314-10.134 3.6-.422.284-.758.234-1.04.284-.284.047-2.034.235-2.034.235s-2.367-.14-2.934-.14c-.566 0-3.598-.286-4.21 0-.618.284-1.942.52-5.302 4.21-3.36 3.69-3.597 2.984-4.215 3.172-.61.187-3.403 1.847-3.403 1.847s-8.1 4.31-11.647 10.176c0 0-1.75 2.653-1.656 2.934.098.285.33.38.33.38s-.33 1.374-.33 1.702c0 .332-.378 2.32-.378 2.32l-.38 3.125s-.71 3.216-.71 3.356v.617s-.664 1.562-.805 1.94c-.14.38-.895 1.138-1.134 2.51C.43 43.71 0 44.513 0 44.653c0 .14.285.665.52.333.234-.332.14.188.14.426s1.422 1.754 2.7.38c1.277-1.372 3.93-6.345 3.93-6.345s-.665 7.81-.192 8c.473.188 1.516 1.47 2.933-.992 0 0 .714 2.273 2.56-.664 0 0 1.8-.756 2.654-4.115 0 0 1.184-3.836.473-10.746 0 0 .71-.9 1.47-1.04.757-.14 5.014-2.51 5.014-2.51s.805.76 1.657.048c0 0 .664 1.323 1.988.897 0 0 .566 1.23 2.32.188 0 0 .805.613 2.13-.38 0 0 .99.52 1.94-.14 0 0 1.75 1.23 2.84.047 0 0 .426.38 1.375.284.943-.094 1.846-.047 1.795-.945 0 0 .14.943 1.895.52 0 0 1.47 0 1.278-1.14 0 0 2.7.9 3.406.52.71-.38.805-1.894.805-1.894s2.65 1.562 3.17 1.04c.52-.52.944-1.517.85-1.704 0 0 3.458 1.23 4.07.188.614-1.042.19-.85.19-.85s3.268.758 3.93.33c.666-.424.568-1.087.568-1.087s3.17.38 3.405-.094c.238-.475.047-1.186.047-1.186s2.27-.093 2.695-.613c0 0 1.656-.14 1.422-.663-.235-.518-2.653-.71-2.653-.71s-8.14-.992-8.71-1.324c0 0 4.354-2.274 4.64-2.414.285-.14-.238-.427-1.137-.19-.897.24-8.378.333-12.307-.14-3.93-.472-10.602-.9-10.602-.9s1.377-4.306 1.943-5.537c.567-1.23 1.61-3.406 3.126-4.21 1.516-.805 8.14-3.692 10.082-4.31 1.94-.612 1.565-.71 1.565-.71z"/></svg>