<svg xmlns="http://www.w3.org/2000/svg" width="69.051" height="74.996" viewBox="0 0 69.051 74.996"><g fill="#58BCB4"><path d="M25.654 9.31c-1.157-.62-2.747-1.58-3.95-2.748-1.203-1.164-2.593-2.48-2.972-2.894-.375-.414-1.653-1.316-2.446-1.766-.79-.453-2.933-1.582-3.757-1.77-.83-.187-3.198-.26-4.14.376-.94.64-2.33 2.406-2.82 3.95C5.083 6 4.33 9.343 4.93 10.66c.6 1.317 1.242 3.047 2.367 3.758 1.13.715 1.844 1.055 1.918 1.656.074.602-.074 1.578-.113 2.52-.04.94.226 2.633.79 3.008.56.375-1.056-2.106-.19-4.172.87-2.07.83-1.77-.225-2.485-1.055-.715-2.18-1.13-2.895-2.03s-1.617-2.407-1.617-3.65c0-1.242-.074-2.706.977-4.175 1.05-1.47 1.656-2.367 2.632-3.12.977-.755 1.39-1.732 3.836-.904 2.447.83 4.586 1.73 5.53 2.934.94 1.203 1.24.676 1.956 1.316.715.64 2.22 2.07 3.082 2.86.867.79 1.242 1.47 1.957 1.656.715.188 2.183.488 3.422.227 1.242-.264 1.43-.34 2.406-.678.976-.34 2.105-.602 3.234-.64 1.13-.04 1.73.038 1.844.75.115.714.115.64.603.073.488-.562.453-1.128 1.203-.863.754.262 2.258.227 2.78 1.05.528.83.603.83 1.43.83s1.243.9 2.372.937c1.13.04 1.016-.85 1.69-.705.677.14.563-.12-.452-.535-1.016-.413-2.633-.9-3.46-1.128-.83-.226-1.09-.79-1.993-.867-.902-.074-.828-.074-1.844-.375-1.017-.3-1.39-.04-2.333-.226-.94-.188-.64.074-1.69.226-1.056.15-1.357.074-2.372.113-1.016.04-2.067.602-3.047.715-.977.114-1.47.153-2.03.227-.556.082-.615.57-1.043.344z"/><path d="M46.75 10.586c.738-.7 2.634-2.78 3.575-3.762.94-.98 2.895-3.574 4.398-4.625C56.227 1.143 58.707.205 59.46.506c.75.3 1.466-.188 2.782.226 1.316.414 2.894 2.258 3.31 3.31.413 1.05.9 3.046 1.202 4.25s.676 2.593.188 3.573c-.488.977-.262 1.43-1.016 2.258-.754.828-2.066 2.52-2.445 3.535-.373 1.015-.45 1.69-.45 2.48s-.563-1.356-.83-1.88c-.26-.527-1.09-1.05-.226-1.24.867-.19 1.47-.228 1.957-.943.49-.715 1.845-1.844 2.22-2.933.375-1.09.79-1.618.3-4.325s-1.276-4.173-1.99-4.966c-.716-.79-.716-1.468-2.407-1.843-1.69-.374-1.242-.64-2.52-.6-1.277.04-2.18.15-3.234.675-1.056.527-1.73.902-3.12 2.22-1.393 1.315-3.8 3.983-4.475 4.737-.676.754-2.688 2.238-1.953 1.543z"/><path d="M56.415 17.543c.79.227.828.676.98 1.805.148 1.13.45 1.88.938 1.992.488.113 2.405-1.238 1.73-2.56-.676-1.315-1.168-1.655-.227-2.257.94-.6 2.293-1.316 1.39-1.882-.9-.56-2.03.677-1.542-.862.488-1.543 2.594-3.16.977-3.76-1.615-.603-3.27-.94-3.775.358-.508 1.297.957 1.223-.172 2.238-1.13 1.016-2.895 1.164-2.22 1.73.677.563 2.368-.073 3.048.528.677.603.04 2.032-.655 2.18-.696.157-.47.493-.47.493zm-43.058.267c-.79-.04-1.73.6-1.278-.978s1.04-1.016-.12-2.066c-1.16-1.055-.52-.375-.745-1.692-.227-1.316-1.242-1.386-1.47-2.687-.225-1.297-.34-3.067.716-2.164 1.056.902 1.505.304 2.634 2.164 1.13 1.86.828 1.785 2.07 2.554 1.242.77 1.992.51 1.13 1.413-.864.902-1.92.828-2.446 1.957-.53 1.12-.493 1.5-.493 1.5zm10.678-2.146c-.36.625-.414 1.28.754.715 1.162-.565 2.63-1.32 3.307-1.994.676-.676 1.543-1.39 2.18-1.203.64.187.976.562.675 1.164-.3.6.414.79 1.356.187.936-.6 1.464-1.015 2.105-1.055.64-.04.902-.563 1.766.113.867.676 1.69 1.957 2.445 1.824.754-.133 1.09.094 2.56.582 1.468.487 2.18 1.054 2.858 1.315.676.262 2.18-.414 1.355-1.504-.83-1.09-.454-1.202-2.294-1.842-1.844-.642-1.88-.943-3.195-1.618-1.316-.676-1.47-.075-1.99-.563-.53-.49-.34-1.388-1.166-1.41-.828-.02-1.055-.173-1.578-.282-.527-.114-.488.562-1.39 1.09-.903.527-1.243.675-2.22.374-.976-.3-1.578 0-2.48.79-.902.79-2.293 1.917-3.16 1.956-.876.038-1.622.885-1.892 1.354z"/><path d="M30.466 17.016c-1.578.226-2.707.754-3.684 1.054-.976.3-1.957.64-2.03 1.13-.075.488.374 1.51 1.652 1.112 1.28-.398 3.16-1.148 3.796-1.453.64-.3.754-.49 1.39.112.642.6 1.13 1.015 1.657.375.528-.64 1.016-2.254 1.204-1.973s.076 1.86.943 1.898c.863.04 1.656-.527 2.56-.113.9.413 1.24.862 2.78 1.39 1.543.527 2.18.01 3.16.797.977.78 1.05-.61.15-1.21-.903-.603-1.92-.716-3.536-1.544s-1.238-.977-2.406-.977-1.69.45-2.257-.6c-.562-1.052-.488-2.068-.79-2.033-.3.04-.64.828-1.655 1.578-1.016.75-1.766 1.017-2.18.81-.412-.203-.75-.355-.75-.355z"/><path d="M33.59 20.738c-.374.715-1.503 2.332-1.956 1.692-.453-.64.453-1.098-.902-.852-1.356.25-.942.55-1.844.477-.902-.075-1.656-.227-2.145.34-.488.562-.882.828-2 .714-1.12-.115-2.285.787-2.812 1.502s-1.127 1.465-1.467 2.18-.3 1.88.227 2.406c.526.527 1.276 1.202 1.467 1.277.188.074-1.015-1.47-.902-2.332.113-.864-.04-2.52 1.016-3.008 1.053-.49 1.228-1.055 2.474-1.203 1.25-.15 1.664.34 2.375-.227.714-.562.79-1.055 1.58-1.164.787-.112 1.615-.94 1.162-.112-.45.828-1.804 1.504-.45 1.582 1.353.074 1.244-.64 1.806-.453.563.186 1.13.073 1.69-.677.564-.754.49-1.203 1.017-.414s.715.34 1.242 1.09c.527.752.113 1.542 1.242 1.764 1.13.227.714-.226 1.276-.152.566.074 1.203-.488.602-1.13-.602-.64-1.766-1.315-.977-1.276.79.035 1.277.148 1.806.828.526.676 1.577 1.316 1.464.562s-.454-1.465-1.43-1.73c-.978-.262-1.618-.778-2.56-1.082-.94-.31-.754.324-1.43.234s-1.054-.05-1.13-.84c-.073-.79 0-1.843-.15-1.35-.142.487-.29 1.35-.29 1.35zm8.047 11.246c-.14-.968.414-2.066-.15-3.046-.564-.977-.338-1.43-.26-2.446.074-1.015-.453-1.804.226-1.918.676-.113 1.016-.308 1.957.297.94.608.754.346 1.577 1.588.83 1.242.974.555.657 1.762-.317 1.21-.543 2.71-1.22 2.788-.675.074-1.015.34-.34-.79.678-1.128 1.116-1.28.596-2.218-.52-.94-1.12-1.918-1.723-2.258s-1.168-1.355-1.242-.562c-.074.79.3 1.316.414 2.593.11 1.278.525 1.243.26 2.48-.265 1.243-.605 2.782-.754 1.73z"/><path d="M24.742 25.746c.067.602-.44 1.352-1.093 2.652-.65 1.297.232 2.61-.405 2.086-.64-.523-.152-1.88 0-2.78.154-.903 1.43-2.56 1.496-1.958zm12.606 1.914c-.367.64-.188.867.3 1.918.49 1.05.677 1.543.603 2.406-.076.864 0 2.22.377 1.578.38-.64.676-1.128.676-1.992 0-.863-.3-1.69-.754-2.445-.447-.75-.9-1.992-1.2-1.465zm-10.678.227c-.34.79-.49.64-.454 1.73.04 1.09.215 1.317-.004 1.692s.57-.565 1.02-1.43c.453-.865 1.09-.87 1.468-1.77.375-.904.754-1.62 0-.94-.75.677-1.578 3.12-1.765 2.333-.19-.793-.266-1.617-.266-1.617zm-10.38-7.575c-.93.442-1.92 1.407-2.594 2.083-.676.675-2.18 2.02-2.032 2.476.15.46.336 1.315 1.465 0 1.127-1.31 1.43-2.174 2.41-2.55.975-.374 1.39-.475 1.315-.97-.077-.497.027-1.318-.567-1.037zm2.446 2.602c-1.118.188-1.844.777-2.407 1.54-.564.76-1.205 1.437-.53 2.19.677.75 1.505.676 1.77-.226.26-.902-.34-.684.3-1.547.64-.857.53-1.232 1.09-1.61.564-.376.29-.435-.225-.345zm-.188 4.616c-.715.505-1.504 1.298-1.465 1.615.04.316.563.28 1.465.69.902.415 1.48.946 1.7.642.218-.305-.66-1.77-.973-2.258-.313-.487-.727-.69-.727-.69zm28.617 1.822c-.79.187-1.504 1.336-1.992 2.04s.098.233 1.422 0c1.324-.236 1.473-.087 2.19-.462.716-.375 1.618-.942.528-1.43-1.097-.488-2.148-.148-2.148-.148zm2.652-5.606c-.47.715-.582.672-.32 1.824.266 1.15.15 1.676.32 2.24.168.56 1.035.752 1.86.58.827-.17 1.69-.066 1.09-1.492-.602-1.425-.716-2.16-1.43-2.45-.715-.288-1.52-.702-1.52-.702zm6.11 5.492c-.64.375-.716.422-1.13 1.246-.414.825-.715 1.102-1.09 1.282-.375.18.562 1.19 1.11 1.964.542.774.655 3.633.882 4.422s.413 1.204.45 2.782c.04 1.582.3 2.52-.187 3.984-.488 1.465-.6 1.39-.6 2.785 0 1.39-.717 2.22.264 1.992.98-.227 2.066-1.316 2.312-2.707.245-1.39-.134-2.543 0-4.637s-.095-3.857-.43-4.573c-.34-.715-.454-1.69-.454-3.234s-.226-2.56-.45-3.648c-.23-1.09-.68-1.656-.68-1.656zm3.308 1.692c-.04.722.113 1.843.527 3.535.414 1.69.226 3.008.34 4.062.113 1.05.562 1.09.98 2.407.414 1.316.715 1.617 0 3.047s-1.203 1.994-.453 2.033c.75.04.86 1.543 1.576-1.016.715-2.558 1.168-2.594.828-4.477-.34-1.88-.488-2.793-.188-4.388.3-1.594.488-2.383-.113-3.285-.602-.903.367-.81-1.207-1.457-1.577-.648-2.265-.988-2.292-.46zm-14.56 9.964c.61-.562.41-.375 1.677-1.09s1.64-1.13 2.207-1.844c.56-.715.826-1.656 1.65-1.336.83.32 1.117.547.953 1.223-.16.675.25 1.23-.727.726-.977-.5-.637-.512-1.39 0-.755.516-.98 1.004-1.638 1.266-.657.26-1.58.412-.817.86s1.524-.34 1.35.19c-.176.526-1.09.9-1.59.413s-.5-.488-.953-.3c-.452.187-.722-.11-.722-.11zm4.142.64c-.488.15-1.242.71-.6 1.126s1.65.79 1.597 0c-.056-.79-.997-1.125-.997-1.125z"/><path d="M52.684 40.18c-.707.3-1.086.526-1.48.75-.395.225-.695-.19-.43.827.262 1.016.402 1.43-.102 1.69-.504.267-.09.677-1.78.83-1.692.147-2.69.187-2.302.335.383.148.684.828 1.887.828s1.355-.414 1.69-.902c.34-.488.153-.79 1.278-.98 1.13-.188 1.42-1.2 1.516-2.027.108-.822-.275-1.35-.275-1.35zM38.59 51.648c-.073.902-.007 1.844-.358 2.78-.355.942-1.11 2.26-.616 1.88.487-.375.675 0 .976-1.652.3-1.652 0-3.008 0-3.008zm-15.378-.226c-.375.977-.562 2.934-.226 3.496.34.562.375-1.203.414-2.145.034-.933-.188-1.35-.188-1.35zm20.718-1.688c.414.827.375 1.617 1.242 2.52.863.902 1.43 1.918 1.578 1.203s.566-1.09.867-.79.488.83.562 1.767c.072.94.146 1.75.146 1.945s.676.72.562-.67c-.114-1.39-.154-3.195-.716-3.496s-.828-.562-1.28-.074-.4.49-.837-.34c-.44-.827-.367-.827-.668-1.464-.302-.64-.716-.79-1.017-.828-.294-.04-.443.226-.443.226zm1.864-.828c.694.453.582.602 1.444 1.39.868.79 1.165.19.735-.56-.43-.755-.422-.79-.992-.83-.57-.04-1.185 0-1.185 0zm0-2.07c.77.527.953 1.242 2.176 1.203s2.09-.455.922-.79c-1.168-.34-1.234-.34-1.914-.415-.68-.075-1.184 0-1.184 0zm5.41 2.332c-1.07.04-1.137.48-1.762.336-.625-.148-.738.043-.324.793s.34.75.7 1.355c.354.602 1.33 2.145 1.218 1.13s-.64-2.07.168-2.747c.81-.676.344-1.13 1.48-1.465 1.137-.34 1.738.04 1.96-.828.227-.863.454-1.953-.374-1.656-.828.3-.504 1.055-1.586 1.805-1.082.755-1.48 1.28-1.48 1.28zM15.84 34.645c-.6.195-.58.382-.327.835.254.454-.695.754.082.942.773.187.867-.15 1.27.207.406.357.707.88 1.644 1.596.94.714 1.69.902 1.314 1.355s-.675.903-.94.83c-.263-.075.91.694 1.394.007.483-.684.647-1.324-.037-1.738-.682-.415-1.83-1.056-2.253-1.62-.422-.565-1.098-1.276-1.286-1.616-.19-.34-.862-.8-.862-.8z"/><path d="M16.67 37.512c-.716-.04-1.278 0-.528.527.754.525 1.34.48 1.25 1.01-.086.53-.688.867.008.96.695.095 1.672-.054.922-.733-.754-.676-1.653-1.766-1.653-1.766zm-2.974.414c-.415.754-.83 1.527-.262 2.777.562 1.246.664.735 1.047 1.648.385.916-.295.768.533 1.404.828.64 2.52 1.016 1.578.262-.936-.75-1.23-.602-1.31-1.184-.08-.58.002-.32 0-1.034-.005-.715-.044-.602-.646-1.785-.598-1.182-.937-2.084-.937-2.084zm3.536 7.11c-1.086-.06-2.114.913-.887 1.03 1.23.113 2.402-.005 1.644-.516l-.76-.515zm1.24 1.84c-1.343.14-.632 1.175-1.894 1.026-1.265-.148-1.933-1.445-1.574.012.36 1.46.223 2.785 1.4 2.098 1.17-.688 2-.785 2.272-2.016.27-1.223-.203-1.12-.203-1.12z"/><path d="M12.982 28.11c-.817 1.128-1.188 2.144-1.328 3.5-.14 1.35-.067 2.066-.254 3.195-.188 1.13-.227 1.297-.375 2.7-.153 1.4.148.964-.188 2.534-.34 1.572-.074 2.006-.94 3.084-.865 1.078-1.28 1.043-.603 1.68.676.64 1.11.64 2.36 1.77s2.378 2.59 2.003 1.5c-.375-1.086-1.265-2.578-.5-2.188.762.387 1.442.348.8-.707-.64-1.05-.448-.43-1.276-2.056s-1.014-2.04-.86-3.883c.15-1.843.374-3.346.827-5.147.45-1.805.203-2.063.515-3.61.31-1.546.168-2.855-.178-2.375z"/><path d="M9.52 30.14c-1.292.106-1.35-.867-1.843 1.016-.488 1.88.188 1.352-.3 3.95-.49 2.593-.977 2.67-.75 4.398.226 1.73.527 1.617.452 3.328-.076 1.71-.115 2.238-.076 3.78s-.3 1.423.453 2.892c.754 1.47.977 1.02 2.067 2.598s1.464.44 1.543 1.914c.074 1.473-.528 1.285 1.242 1.996 1.764.715 2.557 2.293 2.706.488.148-1.805 1.125-2.297-.34-3.273-1.47-.977-.902-.336-2.707-2.105-1.806-1.766-2.18-1.305-2.407-2.664-.227-1.36-.227-.605-.79-2.188-.562-1.578.04-2.555-.3-4.098-.34-1.543-.64-1.277-.04-2.52.602-1.242.942-.96 1.13-2.152.187-1.19.3-1.19 0-3.11s-.676-2.425-.227-3c.448-.574.9-1.308.184-1.25zm13.884 27.602c.355.73.597 1.73 1.16 2.03.562.302.64-.788 1.277-.6.643.187 1.09.64 2.033 1.09.942.452 1.543.753 2.82.487 1.278-.264 1.805-.98 2.747-1.166.94-.188 1.467.04 2.03.375.566.34.375.452.828.04.453-.416.488-1.244.902-1.584.415-.336 1.066-.64.89.113-.175.753-.698 1.81-1.34 2.316-.64.504-1.503 1.03-2.218 1.594-.714.563-1.055.755-1.618 1.43-.566.677-.867.568-1.203.677-.34.113-.842.04-.947 1.015-.102.978.12 1.13.91 1.544s2.066.828 3.195 1.09c1.13.262 1.43.754.676.562-.754-.188-1.844-.527-3.12-.828-1.282-.3-1.392-.64-2.18-.453-.79.188-2.708.676-3.684.828-.978.148-1.243.04-.114-.336 1.128-.377 2.406-.564 3.007-1.09.602-.53.79-1.13.34-1.62-.453-.487-.527-.487-1.277-.862s-.863-.185-1.317-1.126c-.455-.94-.455-1.13-1.466-1.734-1.016-.6-.942-.414-1.47-1.09-.527-.676-1.148-1.277-1.155-1.957-.013-.676-.103-1.563.293-.75zm19.772-1.732c-.336.678-.64 1.657.227 1.618.867-.04.793-.137 1.504-.293.715-.156 2.03.086 1.242-.69-.79-.782-.77-.892-1.533-.782-.762.113-1.442.148-1.442.148zm-5.058 6.544c.438-.414.547-.262 1.34-.828.79-.562 1.016-1.016 1.77-.98.754.04 1.016.79.45.902-.567.113-.267.38-1.13.64-.863.263-.527.19-1.316.563s-.488.51-.94.256c-.455-.25-.174-.55-.174-.55zm4.042-2.07c.563-.602.45-.602.978-.79.527-.187.375-.374.978-.753.6-.373.827 0 1.202-.412s.453-1.086.754-.898c.3.187-.074 1.097-.414 1.41-.34.315.188.917-.602 1.03s-.676-.223-1.13.414c-.452.64-.194 1.12-1.09.902-.894-.214-.675-.902-.675-.902z"/><path d="M35.73 65c.415-.188.942.227 1.317 0s.148-.562.676-.562c.527 0 .863.3 1.242 0 .375-.302.195-.528 1.04-.677.84-.146 1.034-.092 1.972-.646.938-.555 1.35-.742 1.953-.97.602-.225 1.316-.675 1.543-1.09s.227.602-.414 1.13c-.643.527-.603.656-1.545 1.062-.94.402-1.016.895-1.957.97-.942.077-.97.226-1.556.378-.586.148-.965.55-1.6.484-.642-.07-1.732.344-2.22.27-.488-.085-.453-.347-.453-.347zm1.017 1.13c.64.077.227.374 1.168 0 .94-.376.902-.415 1.543-.415s.676-.133 1.652-.367c.98-.234 1.617-.648 2.293-.984.676-.34 1.805-1.035 1.844-1.117.04-.086-.188 1.57-1.316 1.758-1.127.188-1.127.453-2.256.715-1.13.266-1.016.414-1.88.414s-.788-.043-1.503.184c-.714.23-1.24.148-1.542 0-.3-.154 0-.19 0-.19zm-18.76-11.267c-.92.75-1.73.867-1.096 1.504.64.633 1.04.46 1.678 0 .636-.46.52-1.227.23-1.22-.29.005-.81-.284-.81-.284zm.41 2.767c-.34.448-.677 1.015 0 1.315.675.3 1.202.488 1.276.79.074.3.113.6.715.826.6.23.715.19 1.09.68s.375.647.828.753c.45.11.64 0 .64 0s-.074-.234-.6-.55c-.528-.317-.79-.73-1.204-1.106s-.352-.69-.664-.816c-.313-.124-.274-.46-.688-.65-.414-.19-.715-.34-1.054-.79l-.34-.45zm-.75 2.667c.682.742.6.527 1.542 1.355.94.828.45.64 1.69 1.13 1.24.487 1.04.374 1.93.827.89.45 1.042.6 1.866.827.828.226 1.88.483 1.016.41-.864-.075-1.13-.075-1.805-.376s-.34-.413-1.578-.526c-1.243-.113-1.618-.36-2.333-.703-.715-.347-.942-.12-1.543-.874-.602-.75-.82-.64-1.012-1.203-.19-.562-.555-.94-.336-1.13.218-.187.36.048.56.263zm.973 3.573c.04.024.08.044.115.063.476.262.703.41 1.738.688 1.117.303 1.156.23 2.02.49.863.26 1.43-.094 1.242.234-.188.328-1.204.027-2.22-.12-1.015-.15-1.163.144-1.917-.38-.754-.523-.64-.188-.977-.637m4.487-28.074c-1.235.87-1.98.55-2.86-.238-.875-.79-.91-1.98-.61-2.99.274-.917 1.83-.167 2.84 0 1.015.17 1.86 2.357.63 3.228zm1.644.85c-.107-.788-.32-1.69-.91-2.932-.59-1.24-1.076-1.48-2.432-1.717-1.355-.238-1.542-.29-2.332 0-.79.29-1.218.54-1.68 0-.46-.54-1.214-.465-1.062-1.328.153-.863.29-2.41-.113-1.77-.41.653-.452 1.114-1.13 2.157-.674 1.044-.674 2.06-.525 2.587.152.526.168-.416.95-.79.78-.376 1.17-1.09 1.35-.26.18.826.067.892.668.802.602-.09.754-.51.754 0 0 .512-.226 1.364.83 2.407 1.053 1.04 1.39 1.19 2.405 1.413 1.016.227 1.333.227 1.587.83.253.6-.076 1.09.296 1.636.37.545.933-.138 1.125-.96.183-.83.33-1.284.22-2.073z"/><path d="M21.18 33.742c-.024.473.758.887.836.473.082-.41-.813-.945-.836-.473zm25.004 2.91c-.492.59-2.16 1.778-3.57.848-1.41-.93-1.047-2.703.227-3.488.994-.614 2.428-.43 3.225 0 .796.43.612 2.05.12 2.64zm6.282-2.113c-.078-1.205-.64-2.537-.98-3.15-.34-.614-.755-1.477-.755-1.477-.373.148-.6.375-.447 1.277.148.904-.04 1.505-.47 1.92-.433.413-.62.82-1.824.617-1.203-.204-1.895-.805-3.316-.504-1.422.3-2.477.527-3 1.73-.527 1.203-1.805 3.12-2.03 4.024-.227.902-.376 1.43.187 2.218s.88 1.69 1.267.75c.387-.94.574-2.22 1.066-2.746.488-.53.375-.228 1.805-.34 1.43-.115 2.56-.79 3.16-1.658.602-.863.828-2.105.828-2.367s.227.187 1.09.113.414-.903 1.355-.602c.94.3 1.618.675 2.07 1.203.446.53.07.195-.003-1.01z"/><path d="M43.446 35.105c-.043.563.79.563.71 0-.077-.566-.668-.566-.71 0zm19.42-12.523c-.283.977.564 3.797 1.52 6.258.96 2.46 1.243 4.687 1.92 6.926.675 2.238 1.69 6.535 1.804 8.68.113 2.144.113 4.683-1.523 6.44-1.637 1.758-3.184 2.992-5.062 3.84-1.875.844-2.836.512-2.668.254.168-.254 1.918-2.242 1.465-2.547-.45-.31-2.14 1.36-3.44 2.832-1.298 1.477-1.79 2.258-3.266 3.04-1.474.78-2.997 2.358-3.505 2.937-.506.578 4.588-2.344 5.705-3.484 1.12-1.14 1.234-1.555 2.7-1.64s2.874-.23 4.17-1.134c1.298-.906 4.935-2.633 5.458-4.828s1.474-5.38.465-7.238c-1.008-1.86-1.41-7.867-2.2-9.742-.788-1.875-1.636-4.688-2.257-6.535-.61-1.842-1.284-4.057-1.284-4.057zm-23.56 45.562c.776.102.81 1.367.432 2.305-.378.936-1.53 2.295-3.167 2.74s-4.064 1.086-5.954.234c-1.192-.535-2.922.867-4.16.473-1.243-.395-3.794-.656-4.114-1.89-.32-1.235-.495-2.94.47-3.45.965-.516 1.8-.957.594-1.305-1.207-.344-2.192-.64-1.813 0s-.034 2.023-.08 3.156c-.048 1.132-.1 3.214 3.003 4.1 3.102.892 4.383.282 6.523.286 2.144.004 5.316-.59 6.667-1.328 1.355-.738 2.883-2.86 2.965-3.898.08-1.035.362-1.773.757-2.22.393-.44-1.86-.296-2.704-.046-.848.25-.192.743.58.84zM10.54 23.316c-1.063.918-4.99 6.457-6.094 7.946-1.106 1.492-3.13 5.195-3.13 5.976 0 .782-.12 2.254-.86 4.21-.733 1.962-.55 6.25.31 7.782.86 1.53 1.41 3.23 3.066 4.863s2.762 1.633 4.785 3.164c2.024 1.53 3.25 2.31 4.477 2.258s-1.902-1.645-4.723-3.422C5.55 54.316 2.916 51.42 2.057 49.5S.4 43.71 1.258 41.412c.86-2.297.98-4.855 2.148-6.793 1.165-1.938 2.516-4.33 4.11-6.106 1.59-1.77 3.023-5.2 3.023-5.2z"/></g></svg>