<svg xmlns="http://www.w3.org/2000/svg" width="65.558" height="58.585" viewBox="0 0 65.558 58.585"><path fill="#FFF" d="M59.194 56.71l-.75-.75 4.35-18.823c2.547 6.523 1.35 14.172-3.6 19.574zm-2.024-1.95l-4.5-4.5.15-.3.52-1.2.678-1.5 6.3-14.4c.523.678.977 1.428 1.352 2.178l-2.773 12.227-.523 2.25-1.204 5.245zm-5.625-5.625l-.3-.375-4.65-4.65 12.525-12.6c0 .074.074.074.074.15l-6.824 15.6-.676 1.5-.15.375zm-5.55 3.453c-.6.227-1.574.45-2.176.45h-6.15l4.2-4.2h7.196l1.875 1.875-4.947 1.876zm-10.5.375H4.143l10.05-3.823c.603-.227 1.575-.45 2.177-.45h23.4l-4.275 4.274zm9.973-7.8l2.1 2.102H43.37l2.098-2.102zm-5.024-7.125l17.55-7.727c.075 0 .075.076.15.076L45.468 43.06l-5.024-5.025zm-5.625-5.7l19.646-4.573c.75.45 1.5.898 2.175 1.426l-17.32 7.647-4.5-4.5zm-1.95-1.952c5.4-4.95 12.975-6.152 19.424-3.602l-18.75 4.353-.676-.75zm26.846-.525c-7.877-7.872-20.627-7.872-28.426 0-.3.304-.3.75 0 1.054L44.416 44.04l-3.148 3.226h-24.9c-.75 0-1.95.227-2.7.523L.993 52.59c-.3.074-1.125.45-.977 1.2.074.522.524.75 1.274.75h32.773l-3.6 3.6h2.1l3.602-3.6h7.648c.75 0 1.95-.228 2.7-.524l5.624-2.102 6.448 6.448c.3.303.75.303 1.05 0 7.88-7.872 7.88-20.622.08-28.5zm-45.824-9.226c-3.75 0-6.75-3-6.75-6.75s3-6.75 6.75-6.75 6.75 3 6.75 6.75-3.074 6.75-6.75 6.75zm13.05-7.5H22.07c-.075-.602-.15-1.125-.302-1.727l3.3-1.35c.376-.15.603-.603.376-.978-.226-.376-.602-.6-.976-.376l-3.3 1.352c-.302-.524-.603-.977-.978-1.426l3.45-3.45c.3-.3.3-.75 0-1.05-.3-.303-.75-.303-1.05 0l-3.45 3.447c-.45-.375-.9-.676-1.426-.976l1.35-3.3c.15-.374 0-.823-.374-.976-.375-.148-.824 0-.976.375L16.288 6c-.524-.148-1.125-.3-1.727-.3V.75c0-.45-.3-.75-.75-.75-.446 0-.75.3-.75.75v4.875c-.6.074-1.122.15-1.723.3l-1.352-3.3c-.148-.375-.6-.6-.976-.375-.376.15-.603.602-.376.977l1.35 3.3c-.522.3-.975.602-1.425.977l-3.45-3.45c-.3-.3-.75-.3-1.05 0-.3.302-.3.75 0 1.052l3.45 3.45c-.376.448-.677.897-.978 1.425l-3.3-1.35c-.375-.15-.824 0-.976.376-.15.375 0 .824.375.977l3.3 1.352c-.15.524-.3 1.125-.3 1.727H.753c-.45 0-.75.3-.75.75s.3.75.75.75h4.875c.074.6.148 1.125.3 1.726l-3.3 1.352c-.375.148-.602.6-.375.976.148.3.375.45.675.45.075 0 .227 0 .3-.075l3.302-1.35c.3.52.6.975.976 1.425l-3.45 3.45c-.3.3-.3.75 0 1.05.15.148.375.226.524.226.15 0 .377-.074.525-.226l3.45-3.45c.45.375.898.676 1.425.977l-1.352 3.3c-.15.377 0 .826.375.978.074.075.226.075.3.075.3 0 .602-.15.676-.45l1.35-3.3c.522.148 1.124.3 1.725.3v5.024c0 .45.3.75.75.75s.75-.3.75-.75V22.14c.602-.073 1.125-.148 1.727-.3l1.35 3.3c.15.302.376.45.677.45.074 0 .227 0 .3-.074.376-.15.603-.602.376-.977l-1.352-3.304c.524-.3.977-.6 1.426-.976l3.45 3.45c.15.148.376.227.525.227.148 0 .375-.075.523-.227.3-.3.3-.75 0-1.05l-3.45-3.45c.376-.448.677-.897.978-1.425l3.3 1.352c.075.074.227.074.3.074.302 0 .603-.145.677-.446.148-.375 0-.824-.375-.977l-3.3-1.35c.148-.525.3-1.126.3-1.728h4.875c.45 0 .75-.3.75-.75s-.22-.825-.668-.825z"/></svg>