<svg xmlns="http://www.w3.org/2000/svg" width="75.003" height="74.99" viewBox="0 0 75.003 74.99"><path fill-rule="evenodd" clip-rule="evenodd" fill="#FFF" d="M15.74 8.642c-.074-.395-.183-.957-.297-1.364-.308-.152-.617-.308-.93-.468.04.18.075.367.11.554.094.477.238 1.215.402 1.703.297.153.594.305.89.454-.06-.284-.116-.577-.175-.877zM13.788 7.61c-.074-.382-.18-.918-.29-1.312-.34-.172-.675-.34-1.003-.5.063.25.117.512.176.78.088.41.225 1.04.377 1.482.31.156.62.312.93.472-.063-.297-.126-.605-.188-.922zm3.905 1.938c-.066-.367-.16-.863-.26-1.266-.306-.156-.63-.316-.974-.492.037.195.076.4.12.61.08.43.22 1.14.374 1.648l.93.48c-.067-.312-.13-.644-.192-.98zm1.99 1.015c-.067-.37-.16-.874-.262-1.285-.193-.093-.54-.265-.986-.492.03.172.066.348.1.527.087.46.232 1.235.396 1.762.315.164.632.328.948.496-.067-.32-.133-.662-.195-1.006zm-7.845-3.718c-.117-.54-.305-1.426-.47-1.61-.343-.172-.663-.328-.952-.468.04.19.078.386.117.59.082.417.215 1.113.37 1.613l1.083.55c-.05-.218-.1-.445-.148-.675zM22.55 11.2c.1.543.292 1.535.5 2.008.382.207.76.426 1.124.66-.086-.394-.164-.816-.242-1.25-.094-.515-.23-1.29-.375-1.715-.395-.168-.785-.324-1.16-.472.055.244.1.498.152.77zm-.837.24c-.078-.404-.188-.978-.3-1.388-.376-.14-.716-.266-1.013-.38.043.212.082.43.125.66.086.466.227 1.243.387 1.782.344.18.695.356 1.05.532-.09-.38-.17-.79-.25-1.207zM7.74 4.69c-.074-.373-.182-.904-.297-1.283-.293-.14-.61-.297-.94-.46.042.175.08.355.12.538.09.414.227 1.05.383 1.493l.894.468c-.053-.25-.11-.504-.16-.757zm23.907 10.323c-.254.28-.633.273-.915.066-.168-.127-.246-.36-.195-.596.063-.312.207-.582.41-.78.184-.18.43-.22.61 0 .047.058.078.14.1.226.208.32.267.774-.01 1.083zm42.84 36.48c1.238-6.69.21-12.863-2.668-18.648-2.697-5.406-7.58-11.063-10.46-13.504-2.88-2.44-14.097-7.31-20.547-10.717-4.104-2.168-7.89-2.312-11.334 1.727-.556.65-1.32 1.038-1.98 1.56-.443.35-.896.544-1.396.243-.473-.28-.993-.547-1.528-.8.067.316.13.664.196 1.035.136.754.418 2.32.7 2.414l-.013.054c.7.657 1.28 1.457 1.663 2.5 1.758.5 3.156 2.34 5.063 1.58.527-.212.754.803.226 1.014-1.957.78-3.285-.71-4.965-1.394.012.062.028.12.04.183.703 4.213 9.42 9.877 12.214 15.865 1.1 2.352 1.94 4.477 2.204 7.083.21 2.068.23 4.217 1.273 6.04.95 1.66 1.977 1.96 3.094.255 1.458-2.223 3.043-4.383 2.84-7.796-.02-.057-.034-.11-.042-.178-.26-3.747-1.372-7.247-3.095-10.345-.312-.563.434-1.09.742-.53 1.812 3.253 2.945 6.94 3.215 10.874.01.097-.008.176-.035.245 3.125 1.79 6.06 3.426 8.945 5.152 4.492 2.69 7.38 8.914 7.05 15.028-.187 3.444-1.284 4.702-4.097 4.636-.57-.012-1.137-.17-1.703-.253-.5-.07-1.035-.188-1.336.484-.277.626-.055 1.21.242 1.716 1.078 1.843 2.457 3.347 4.328 3.554 1.14.13 1.737.684 2.406 1.688 1.176 1.766 2.754 2.81 4.684 2.723.727-.03 1.453-.354 1.777-1.245.396-1.083-.476-1.263-.937-1.728-1.945-1.96-2.395-4.836-1.113-7.44 2.013-4.08 3.48-8.41 4.345-13.08zM1.74 1.74c-.082-.39-.2-.958-.324-1.33C.963.19.662.045.592.02.21-.103-.27.35.186.91c.34.415.996.892 1.648 1.294L1.74 1.74zm4.05 2.015c-.085-.395-.21-.977-.335-1.328-.305-.153-.617-.31-.922-.46.047.186.09.378.137.573.095.418.23 1.012.388 1.414.292.156.585.31.882.465-.05-.22-.102-.443-.15-.666zM3.838 2.82c-.098-.44-.258-1.13-.402-1.405l-.98-.488c.04.18.077.363.116.554.078.36.188.885.313 1.31l1.082.583-.13-.55zm4.74 1.615c.085.43.22 1.082.374 1.546.305.16.61.315.914.467-.058-.273-.117-.554-.172-.84-.074-.378-.176-.914-.29-1.308-.16-.075-.29-.13-.367-.157-.117-.043-.315-.13-.574-.25.04.175.078.355.114.543z"/></svg>