<svg xmlns="http://www.w3.org/2000/svg" width="59.229" height="58.164" viewBox="0 0 59.229 58.164"><path fill="#FFF" d="M41.348 50.69c-2.82 0-5.117-2.297-5.117-5.116 0-2.82 2.3-5.117 5.12-5.117 2.82 0 5.117 2.297 5.117 5.117S44.17 50.69 41.35 50.69zm14.257-21.16c.465-5.733-5.19-8.405-8.246-9.014-.22-.043-.45.01-.624.156-.172.14-.273.355-.273.578v20.133c-1.215-1.48-3.06-2.43-5.117-2.43-3.648 0-6.617 2.97-6.617 6.617 0 3.648 2.97 6.617 6.617 6.617s6.617-2.97 6.617-6.617V22.23c1.97.622 6.476 2.55 6.156 7.114-.072.27-.313 1.187-.443 2.218-.23 1.824.003 3.012.72 3.637.31.27.783.24 1.058-.07.274-.315.242-.788-.07-1.06-.504-.44-.3-2.67.203-4.39.007-.05.015-.1.018-.15zM21.89 25.074c0-2.82 2.297-5.117 5.118-5.117 2.82 0 5.117 2.297 5.117 5.117s-2.297 5.117-5.117 5.117c-2.825 0-5.118-2.294-5.118-5.114zm10.235-23.35v3.33L13.238 10.24V6.73l18.887-5.007zM6.62 35.597c-2.82 0-5.116-2.297-5.116-5.117S3.8 25.364 6.62 25.364s5.118 2.297 5.118 5.118C11.742 33.3 9.445 35.6 6.62 35.6zM33.618.657l-.012-.08c0-.007 0-.01-.004-.02-.003-.014-.01-.026-.015-.04-.008-.03-.02-.056-.03-.08-.01-.02-.02-.04-.032-.058-.012-.027-.027-.046-.04-.07-.015-.02-.03-.04-.046-.054-.018-.02-.03-.035-.05-.05-.02-.017-.04-.032-.06-.047-.02-.017-.04-.03-.06-.044l-.06-.034c-.023-.012-.043-.023-.066-.03-.023-.01-.047-.017-.07-.025-.023-.007-.047-.01-.07-.015-.027-.004-.055-.008-.082-.008-.016 0-.03-.004-.047-.004-.008 0-.012 0-.02.004-.027 0-.05.004-.078.008-.027.004-.05.008-.078.01-.01 0-.015 0-.024.005L12.293 5.434c-.328.086-.56.382-.56.722V26.29c-1.214-1.48-3.057-2.43-5.116-2.43C2.97 23.86 0 26.827 0 30.475c0 3.65 2.97 6.617 6.617 6.617s6.617-2.97 6.617-6.617V11.793L32.12 6.61v14.273c-1.214-1.48-3.058-2.43-5.116-2.43-3.65 0-6.617 2.97-6.617 6.617 0 3.65 2.968 6.618 6.617 6.618 3.648 0 6.617-2.968 6.617-6.618V.75.73c.003-.027 0-.05 0-.074zM19.758 44.92l-6.555 3.71c-.36.204-.488.66-.28 1.02.135.242.39.38.65.38.126 0 .255-.03.368-.098l6.558-3.71c.36-.203.488-.66.28-1.02-.202-.36-.66-.485-1.018-.282zm5.5 3.676c-.383-.164-.82.012-.985.395l-2.28 5.313c-.165.38.01.82.394.984.097.04.195.06.296.06.29 0 .567-.17.688-.453l2.284-5.312c.164-.387-.012-.828-.394-.988zm6.304 3.25c-.05-.41-.426-.704-.836-.648-.41.05-.7.426-.65.836l.692 5.473c.047.377.37.654.742.654.03 0 .062 0 .094-.003.41-.05.7-.425.648-.835l-.69-5.477zM42.945 9.172c.414 0 .75-.336.75-.75v-5.02c0-.414-.336-.75-.75-.75s-.75.336-.75.75v5.02c0 .414.336.75.75.75zm6.243 1.85c.19 0 .383-.073.527-.217l3.726-3.703c.296-.293.3-.766.007-1.06-.293-.292-.767-.296-1.06-.003l-3.726 3.7c-.292.292-.296.765-.003 1.06.145.146.336.22.532.22zm10.022 3.025c-.085-.406-.487-.66-.89-.574l-6.47 1.406c-.405.09-.66.485-.573.89.074.35.387.59.73.59.05 0 .105-.007.16-.018l6.47-1.407c.406-.085.664-.484.574-.89z"/></svg>