<svg xmlns="http://www.w3.org/2000/svg" width="48.796" height="43" viewBox="0 0 48.796 43"><path fill="#FFF" d="M20.328.74c.63.164 1.164.593 1.426 1.132.14.3.277.72.234.758-.008.008-.14-.008-.293-.03-.57-.1-2.152.058-2.34.226-.113.105-.105.36.008.472.113.114.21.114.758.024.236-.04.525-.067.66-.067.228 0 .24.008.197.09-.03.06-.03.15 0 .285.06.262.06.8-.008 1.028-.067.238-.024.382.15.472.18.09.373.032.447-.148.14-.317.156-1.29.023-1.65-.032-.073-.016-.08.128-.05.317.06.317.067.317.247 0 .455-.235 1.28-.504 1.814-.35.69-.772 1.133-1.295 1.387-.254.12-.352.14-.62.138-.466-.01-.775-.166-1.255-.638-.325-.324-.415-.45-.638-.906-.36-.727-.496-1.274-.51-2.024 0-.36.014-.676.057-.832.217-.87.815-1.508 1.62-1.726.34-.086 1.12-.094 1.437-.004zM19.03.03c-1.265.225-2.15 1.092-2.413 2.354-.09.414-.09 1.262 0 1.754.074.457.277 1.06.488 1.47.848 1.678 2.242 2.346 3.54 1.694.968-.496 1.8-1.86 2.023-3.308.293-1.958-.524-3.458-2.13-3.9C20.215.004 19.35-.03 19.03.03z"/><path fill="#FFF" d="M46.136 25.31c-1.176 2.356-4.516 5.297-9.148 8.078-4.762 2.86-9.93 5.145-15.22 6.742-2.714.817-5.94 1.547-7.264 1.637-.856.06-2.594.06-2.633 0-.072-.113.353-.602.81-.906.328-.225.594-.342 3.9-1.79 4.655-2.033 12.14-5.364 13.327-5.927.203-.098 1.074-.496 1.926-.89 3.637-1.69 8.91-4.33 13.613-6.825.457-.238.832-.44.848-.44 0-.005-.067.143-.157.323zm-16.875-.133c.393.637.475.797.615 1.223.31.906.457 2.21.496 4.305l.03 1.453-.314.14c-.172.083-.316.15-.324.15-.007 0-.022-.196-.045-.427-.075-1.033-.33-2.295-.653-3.217-.31-.887-.87-1.898-1.352-2.453l-.188-.212.285-.188c.323-.21.796-.66 1.01-.97.074-.112.156-.202.17-.202.03.016.143.188.27.4zm-7.59-.937c1.092.18 1.694.316 2.413.555 2.656.863 4.148 2.676 4.746 5.746.105.557.253 1.77.253 2.088 0 .137-.03.148-1.55.84-3.57 1.613-9.75 4.344-9.782 4.32-.007-.016.008-.344.03-.727.033-.39.084-1.56.123-2.6.066-1.86.137-3.06.187-3.4.023-.164-.04-.344-.137-.414-.03-.016-.114-.04-.188-.04-.164 0-.226.04-.285.165-.09.165-.148 1.19-.293 4.8-.05 1.21-.113 2.16-.164 2.447-.023.13-.066.156-.54.36-.284.12-.53.218-.546.218-.015 0-.047-.344-.058-.773-.05-1.206-.213-3.968-.31-5.362-.05-.7-.106-1.453-.12-1.695l-.033-.426.203.05c.54.13 2.274-.074 2.446-.285.05-.067.082-.234.106-.57.128-2.004 1.125-4.566 2.054-5.28.258-.193.348-.193 1.442-.013zm4.495-9.727c.816 1.246 2.934 3.324 4.297 4.23.212.14.384.27.376.278-.047.04-1.328-.424-1.957-.697-1.54-.676-2.887-1.62-3.57-2.485l-.18-.226.195-.148c.254-.187.473-.53.578-.87.047-.15.09-.27.106-.27.02.004.084.086.155.19zm-15.43-2.484c.066.486.203.83.406 1.056l.158.172-.227.128c-1.214.69-1.92 1.262-2.82 2.3-.53.622-1.273 1.598-1.8 2.39-.22.326-.406.58-.414.572-.03-.03.422-1.086.726-1.688.693-1.38 1.65-2.836 2.58-3.922.234-.277 1.296-1.386 1.328-1.386.007-.008.035.164.066.375zm8.402-3.698c1.532.114 2.766.516 3.676 1.192.496.367 1.11 1.027 1.453 1.54.328.503.922 1.694 1.035 2.085.114.374.075 1.02-.065 1.36-.105.236-.383.537-.457.494-.04-.023-.31-.51-.832-1.47l-.195-.366.098-.235c.12-.293.13-.465.008-.578-.105-.106-.316-.12-.426-.04-.227.173-.774 2.04-1.087 3.75-.35 1.89-.398 3.14-.128 3.735.136.293.05.246 1.964 1.313 2.572 1.44 3.2 1.867 4.076 2.76l.316.325-.172.27c-.245.374-.75.855-1.073 1.026l-.277.15-.434-.325c-.816-.613-2.086-1.164-3.383-1.453-.937-.21-2.47-.45-2.707-.422-.652.074-1.273.7-1.875 1.898-.545 1.094-.994 2.676-1.107 3.89l-.032.392-.276.06c-.398.09-1.336.09-1.605.015-.255-.073-.287-.112-.33-.577-.015-.172-.113-.766-.218-1.312-.245-1.334-.316-2.01-.316-2.885 0-1.238.172-2.332.62-3.898.435-1.53.548-2.297.548-3.735-.008-1.073-.066-1.753-.254-2.674-.293-1.46-.976-3.15-1.32-3.262-.172-.05-.352.016-.426.164-.058.137-.04.246.114.488.058.098.113.196.113.22 0 .022-.074.05-.172.073-.098.016-.547.15-.988.31-.736.245-.84.27-1.013.233-.39-.09-.516-.336-.613-1.156-.067-.62-.09-.563.44-.977 1.81-1.38 3.864-2.2 5.896-2.348.712-.083.75-.083 1.426-.03zm-1.847-.648c-2.095.227-4.224 1.133-6.15 2.64-.51.39-2.004 1.883-2.488 2.485-1.988 2.436-3.66 5.85-3.797 7.745-.03.375-.023.398.074.496.127.12.315.13.424.017.047-.047.285-.434.547-.864 1.216-2.054 2.595-3.898 3.704-4.957 1.102-1.043 2.88-1.933 4.734-2.378.12-.033.128-.017.285.47.472 1.45.652 2.708.613 4.298-.03 1.23-.13 1.828-.516 3.156-.63 2.192-.797 3.907-.547 5.715.04.284.137.89.227 1.362.172.952.246 1.5.246 1.776 0 .104.016.276.047.39.113.457.496 6.398.523 8.227l.016.637-1.133.496c-1.336.586-1.44.636-1.875.938-.586.406-.976.887-1.05 1.297l-.032.173-.45-.023c-.245-.016-.683-.04-.976-.05-2.85-.138-6.046-.614-9.187-1.372-.35-.082-.593.105-.515.406.047.164.106.195.727.367 6.39 1.755 12.644 2.267 19.1 1.56 1.455-.158 2.603-.345 5.374-.87 7.327-1.397 14.893-1.127 21.93.764 1.417.383 1.483.39 1.59.137.065-.163.03-.31-.106-.397-.21-.137-2.453-.703-4.066-1.035-2.22-.45-4.328-.734-6.97-.93-1.058-.075-5.085-.075-6.18 0-2.46.172-4.358.425-6.644.863-2.39.466-3.742.677-5.488.857-1.11.114-1.37.114-.512-.007 1.95-.262 3.504-.555 5.746-1.078 3.328-.78 5.56-1.125 8.738-1.36 1.074-.08 4.223-.112 5.422-.05 3.163.156 6.203.58 9.05 1.254.856.202.962.194 1.052-.06.066-.203-.04-.39-.262-.45-.488-.136-2.363-.53-3.172-.675-5.22-.93-10.352-1.034-15.594-.343-1.664.227-3.316.532-5.543 1.06-1.254.294-2.977.652-3 .63-.008-.01.316-.114.734-.24 1.623-.48 3.88-1.272 5.7-2.003 5.38-2.152 10.907-5.25 14.505-8.11 2.56-2.03 4.344-4.148 4.898-5.788.203-.603.14-.915-.172-.915-.073 0-.636.27-1.38.67-3.967 2.1-8.24 4.273-11.07 5.64-1.236.594-3.334 1.582-3.365 1.582-.008 0-.03-.668-.047-1.484-.03-1.59-.098-2.39-.285-3.336-.14-.703-.254-1.06-.512-1.547-.796-1.54-1.866-2.665-3.585-3.735-.293-.188-1.266-.742-2.16-1.254-1.253-.698-1.64-.944-1.695-1.05-.098-.187-.09-1.433.015-2.16.148-1.035.61-3.156.676-3.156.017 0 .05.05.09.13.115.253.623 1.116.955 1.604.69 1.05 1.828 1.95 3.523 2.797 1.852.915 3.78 1.41 5.047 1.28.434-.045.555-.09.63-.224.065-.13.05-.254-.048-.375-.067-.09-.148-.113-.457-.136-.45-.04-.84-.164-1.41-.45-1.712-.87-4.036-3.05-5.317-4.988-.262-.406-.39-.636-.848-1.59-1.036-2.167-2.094-3.27-3.773-3.945-1.24-.482-2.99-.685-4.563-.53z"/></svg>