<svg xmlns="http://www.w3.org/2000/svg" width="67.352" height="62.211" viewBox="0 0 67.352 62.211"><path fill="#FFF" d="M13.86 17.247c2.03.44 10.92 2.12 28.1 2.12 6.86 0 15.044-.27 24.634-.992v4.454H13.742l.117-5.585zm16.538-15.49c-.363.67-.855 1.517-1.476 2.474-.25-.286-.633-.45-1.133-.466 1.07-.797 1.946-1.48 2.606-2.004zm3.08 1.91c-1.517 0-2.826.318-3.69.6.95-1.493 1.568-2.692 1.868-3.306C32.91 1.988 34.16 2.95 35.4 3.86c-.623-.12-1.263-.188-1.923-.188zm30.82 14.123c-29.23 2.03-44.716-.215-49.26-1.07C21.75 14.507 26.4 9.265 29.083 5.34c.313-.14 2.13-.922 4.397-.922 1.453 0 2.81.317 4.023.942h.008c11.62 8.035 22.094 11.28 26.79 12.43zM26.368 4.805h.002c.01-.004.72-.297 1.353-.297.515 0 .68.184.742.414-2.8 4.098-7.785 9.668-15.063 11.496-.007.004-.015.012-.023.016-.038.012-.07.02-.1.04-4.52 3.112-9.544 1.9-11.684 1.148 9.14-2.293 18.906-8.57 24.77-12.817zM.74 18.098c1.72.692 7.246 2.477 12.364-.625l-.11 5.328-12.252-.88V18.1zm66.602-.152c0-.016-.008-.028-.012-.043-.004-.028-.012-.055-.023-.078-.01-.02-.024-.04-.036-.06-.01-.015-.02-.034-.04-.05-.02-.02-.036-.035-.056-.047-.016-.01-.03-.02-.05-.027-.024-.01-.048-.016-.075-.02-.01-.004-.02-.01-.027-.01-.152-.022-13.703-2.16-29.3-13.002L31.745.08c-.004-.005-.008 0-.012-.005-.01-.008-.023-.012-.03-.02-.013-.008-.02-.02-.036-.023-.004 0-.008 0-.012-.004-.035-.016-.07-.02-.105-.024-.01 0-.02-.004-.03-.004-.043 0-.09.008-.13.028-.015.008-.027.015-.042.027-.016.008-.028.016-.04.024h-.01L26.27 3.97C20.262 8.347 9.813 15.132.293 17.17c-.008 0-.012.008-.02.008-.02.004-.035.016-.054.024-.027.01-.05.023-.07.04-.015.01-.027.022-.04.034-.02.02-.038.043-.053.07-.005.008-.017.016-.02.024-.005.007-.005.01-.005.02-.012.026-.02.058-.023.09-.005.015-.01.03-.01.046l-.003.012v4.742c0 .183.133.332.31.363v28.84h.71v-28.79l12.34.886h.01v38.63h.713V23.58h28.606v25.083h.71V23.58h22.657v34.034h.707V23.58h.216c.207 0 .375-.17.375-.376V17.957c-.004-.003-.004-.007-.004-.01z"/></svg>