<svg xmlns="http://www.w3.org/2000/svg" width="64.337" height="74.58" viewBox="0 0 64.337 74.58"><path fill-rule="evenodd" clip-rule="evenodd" fill="#FFF" d="M23.587.05c6.254-1.068 5.285 15.73 4.855 19.905-.42 4.11-3.203 7.55-6.95 8.19C8.502 30.37 7.365 2.823 23.588.05zm17.16 0c16.227 2.772 15.086 30.32 2.094 28.1-3.743-.64-6.524-4.082-6.946-8.19C35.464 15.78 34.5-1.018 40.75.05zM2.642 28.755c-3.344 2.93-3.235 10.137-1.223 15.37 1.032 2.915 3.53 4.962 6.446 4.962 3.844 0 6.96-3.562 6.96-7.96 0-2.19-.772-4.17-2.018-5.61-2.05-2.7-8.57-8.16-10.17-6.762zm59.054 0c-1.598-1.403-8.117 4.058-10.164 6.762-1.25 1.44-2.023 3.42-2.023 5.61 0 4.397 3.114 7.96 6.96 7.96 2.92 0 5.416-2.05 6.45-4.96 2.01-5.236 2.114-12.442-1.226-15.372zM32.17 32.36c4.503 0 8.292 3.08 9.362 7.248 1.352 5.22 1.16 10.945 7.078 13.914 5.247 1.8 7.23 4.066 7.23 10.13 0 4.84-4.105 9.983-9.4 10.624-5.92.898-10.532-.273-14.267-2.426-3.734 2.148-8.348 3.324-14.262 2.426-5.3-.64-9.403-5.805-9.403-10.625 0-5.93 2.117-8.442 7.355-10.16 6.443-3.317 5.58-9.135 7.017-14.135 1.16-4.04 4.88-6.992 9.292-6.992z"/></svg>